Bungee_Basic-Inline.ufo
<glyph name="dollar" format="1">
  <advance width="650"/>
  <unicode hex="0024"/>
  <outline>
    <contour>
      <point x="441.0" y="622" type="line"/>
      <point x="441.0" y="774" type="line" smooth="yes"/>
      <point x="441.0" y="799"/>
      <point x="430.0" y="810"/>
      <point x="405.0" y="810" type="curve" smooth="yes"/>
      <point x="260.0" y="810" type="line" smooth="yes"/>
      <point x="235.0" y="810"/>
      <point x="224.0" y="799"/>
      <point x="224.0" y="774" type="curve" smooth="yes"/>
      <point x="224.0" y="622" type="line"/>
    </contour>
    <contour>
      <point x="224.0" y="83" type="line"/>
      <point x="224.0" y="-54" type="line" smooth="yes"/>
      <point x="224.0" y="-79"/>
      <point x="235.0" y="-90"/>
      <point x="260.0" y="-90" type="curve" smooth="yes"/>
      <point x="405.0" y="-90" type="line" smooth="yes"/>
      <point x="430.0" y="-90"/>
      <point x="441.0" y="-79"/>
      <point x="441.0" y="-54" type="curve" smooth="yes"/>
      <point x="441.0" y="83" type="line"/>
    </contour>
    <contour>
      <point x="328.0" y="720" type="line"/>
      <point x="338.0" y="720" type="line"/>
      <point x="338.0" y="626" type="line"/>
      <point x="328.0" y="626" type="line"/>
    </contour>
    <contour>
      <point x="328.0" y="94" type="line"/>
      <point x="338.0" y="94" type="line"/>
      <point x="338.0" y="0" type="line"/>
      <point x="328.0" y="0" type="line"/>
    </contour>
    <component base="S"/>
  </outline>
</glyph>
<glyph name="parenright" format="1">
  <advance width="429"/>
  <unicode hex="0029"/>
  <outline>
    <contour>
      <point x="135.0" y="-80" type="line" smooth="yes"/>
      <point x="324.0" y="-80"/>
      <point x="381.0" y="3"/>
      <point x="381.0" y="124" type="curve" smooth="yes"/>
      <point x="381.0" y="595" type="line" smooth="yes"/>
      <point x="381.0" y="717"/>
      <point x="324.0" y="800"/>
      <point x="135.0" y="800" type="curve" smooth="yes"/>
      <point x="81.0" y="800" type="line" smooth="yes"/>
      <point x="56.0" y="800"/>
      <point x="45.0" y="789"/>
      <point x="45.0" y="764" type="curve" smooth="yes"/>
      <point x="45.0" y="643" type="line" smooth="yes"/>
      <point x="45.0" y="618"/>
      <point x="56.0" y="607"/>
      <point x="81.0" y="607" type="curve" smooth="yes"/>
      <point x="112.0" y="607" type="line" smooth="yes"/>
      <point x="144.0" y="607"/>
      <point x="153.0" y="592"/>
      <point x="153.0" y="557" type="curve" smooth="yes"/>
      <point x="153.0" y="161" type="line"/>
      <point x="153.0" y="126"/>
      <point x="144.0" y="111"/>
      <point x="112.0" y="111" type="curve" smooth="yes"/>
      <point x="81.0" y="111" type="line" smooth="yes"/>
      <point x="56.0" y="111"/>
      <point x="45.0" y="100"/>
      <point x="45.0" y="75" type="curve" smooth="yes"/>
      <point x="45.0" y="-44" type="line" smooth="yes"/>
      <point x="45.0" y="-69"/>
      <point x="56.0" y="-80"/>
      <point x="81.0" y="-80" type="curve" smooth="yes"/>
    </contour>
    <contour>
      <point x="272.0" y="124" type="line" smooth="yes"/>
      <point x="272.0" y="36"/>
      <point x="222.0" y="11"/>
      <point x="135.0" y="11" type="curve"/>
      <point x="135.0" y="21" type="line"/>
      <point x="214.0" y="21"/>
      <point x="262.0" y="42"/>
      <point x="262.0" y="124" type="curve" smooth="yes"/>
      <point x="262.0" y="595" type="line" smooth="yes"/>
      <point x="262.0" y="677"/>
      <point x="215.0" y="698"/>
      <point x="135.0" y="698" type="curve"/>
      <point x="135.0" y="708" type="line"/>
      <point x="223.0" y="708"/>
      <point x="272.0" y="683"/>
      <point x="272.0" y="595" type="curve" smooth="yes"/>
    </contour>
  </outline>
</glyph>
<glyph name="plus" format="1">
  <advance width="734"/>
  <unicode hex="002B"/>
  <outline>
    <contour>
      <point x="465.0" y="99" type="curve" smooth="yes"/>
      <point x="465.0" y="267" type="line"/>
      <point x="628.0" y="267" type="line" smooth="yes"/>
      <point x="653.0" y="267"/>
      <point x="664.0" y="277"/>
      <point x="664.0" y="303" type="curve" smooth="yes"/>
      <point x="664.0" y="417" type="line" smooth="yes"/>
      <point x="664.0" y="443"/>
      <point x="653.0" y="453"/>
      <point x="628.0" y="453" type="curve" smooth="yes"/>
      <point x="465.0" y="453" type="line"/>
      <point x="465.0" y="621" type="line" smooth="yes"/>
      <point x="465.0" y="646"/>
      <point x="454.0" y="657"/>
      <point x="429.0" y="657" type="curve" smooth="yes"/>
      <point x="305.0" y="657" type="line" smooth="yes"/>
      <point x="279.0" y="657"/>
      <point x="269.0" y="646"/>
      <point x="269.0" y="621" type="curve"/>
      <point x="269.0" y="453" type="line"/>
      <point x="106.0" y="453" type="line" smooth="yes"/>
      <point x="81.0" y="453"/>
      <point x="70.0" y="442"/>
      <point x="70.0" y="417" type="curve" smooth="yes"/>
      <point x="70.0" y="303" type="line" smooth="yes"/>
      <point x="70.0" y="277"/>
      <point x="81.0" y="267"/>
      <point x="106.0" y="267" type="curve"/>
      <point x="269.0" y="267" type="line"/>
      <point x="269.0" y="99" type="line" smooth="yes"/>
      <point x="269.0" y="74"/>
      <point x="279.0" y="63"/>
      <point x="305.0" y="63" type="curve" smooth="yes"/>
      <point x="429.0" y="63" type="line" smooth="yes"/>
      <point x="455.0" y="63"/>
      <point x="465.0" y="74"/>
    </contour>
    <contour>
      <point x="362.0" y="153" type="line"/>
      <point x="362.0" y="355" type="line"/>
      <point x="160.0" y="355" type="line"/>
      <point x="160.0" y="365" type="line"/>
      <point x="362.0" y="365" type="line"/>
      <point x="362.0" y="567" type="line"/>
      <point x="372.0" y="567" type="line"/>
      <point x="372.0" y="365" type="line"/>
      <point x="574.0" y="365" type="line"/>
      <point x="574.0" y="355" type="line"/>
      <point x="372.0" y="355" type="line"/>
      <point x="372.0" y="153" type="line"/>
    </contour>
  </outline>
</glyph>
<glyph name="slash" format="1">
  <advance width="347"/>
  <unicode hex="002F"/>
  <outline>
    <contour>
      <point x="5.0" y="-54" type="line"/>
      <point x="2.0" y="-79"/>
      <point x="16.0" y="-90"/>
      <point x="41.0" y="-90" type="curve" smooth="yes"/>
      <point x="186.0" y="-90" type="line" smooth="yes"/>
      <point x="211.0" y="-90"/>
      <point x="219.0" y="-79"/>
      <point x="222.0" y="-54" type="curve" smooth="yes"/>
      <point x="342.0" y="774" type="line" smooth="yes"/>
      <point x="345.0" y="799"/>
      <point x="331.0" y="810"/>
      <point x="306.0" y="810" type="curve" smooth="yes"/>
      <point x="161.0" y="810" type="line" smooth="yes"/>
      <point x="136.0" y="810"/>
      <point x="128.0" y="799"/>
      <point x="125.0" y="774" type="curve" smooth="yes"/>
    </contour>
    <contour>
      <point x="221.0" y="720" type="line"/>
      <point x="231.0" y="720" type="line"/>
      <point x="127.0" y="0" type="line"/>
      <point x="117.0" y="0" type="line"/>
    </contour>
  </outline>
</glyph>
<glyph name="nine" format="1">
  <advance width="693"/>
  <unicode hex="0039"/>
  <outline>
    <contour>
      <point x="389.0" y="0" type="line" smooth="yes"/>
      <point x="578.0" y="0"/>
      <point x="635.0" y="83"/>
      <point x="635.0" y="205" type="curve" smooth="yes"/>
      <point x="635.0" y="533" type="line" smooth="yes"/>
      <point x="635.0" y="655"/>
      <point x="581.0" y="735"/>
      <point x="335.0" y="735" type="curve" smooth="yes"/>
      <point x="105.0" y="735"/>
      <point x="47.0" y="655"/>
      <point x="47.0" y="533" type="curve" smooth="yes"/>
      <point x="47.0" y="437" type="line" smooth="yes"/>
      <point x="47.0" y="318"/>
      <point x="101.0" y="257"/>
      <point x="282.0" y="257" type="curve" smooth="yes"/>
      <point x="335.0" y="257"/>
      <point x="377.0" y="262"/>
      <point x="409.0" y="272" type="curve"/>
      <point x="409.0" y="250" type="line" smooth="yes"/>
      <point x="409.0" y="201"/>
      <point x="395.0" y="190"/>
      <point x="346.0" y="190" type="curve" smooth="yes"/>
      <point x="159.0" y="190" type="line" smooth="yes"/>
      <point x="134.0" y="190"/>
      <point x="123.0" y="179"/>
      <point x="123.0" y="154" type="curve" smooth="yes"/>
      <point x="123.0" y="36" type="line" smooth="yes"/>
      <point x="123.0" y="11"/>
      <point x="133.0" y="0"/>
      <point x="159.0" y="0" type="curve" smooth="yes"/>
    </contour>
    <contour>
      <point x="409.0" y="458" type="line" smooth="yes"/>
      <point x="409.0" y="438"/>
      <point x="400.0" y="422"/>
      <point x="342.0" y="422" type="curve" smooth="yes"/>
      <point x="282.0" y="422"/>
      <point x="273.0" y="438"/>
      <point x="273.0" y="458" type="curve" smooth="yes"/>
      <point x="273.0" y="517" type="line" smooth="yes"/>
      <point x="273.0" y="538"/>
      <point x="282.0" y="554"/>
      <point x="342.0" y="554" type="curve" smooth="yes"/>
      <point x="400.0" y="554"/>
      <point x="409.0" y="538"/>
      <point x="409.0" y="517" type="curve" smooth="yes"/>
    </contour>
    <contour>
      <point x="213.0" y="90" type="line"/>
      <point x="213.0" y="100" type="line"/>
      <point x="389.0" y="100" type="line" smooth="yes"/>
      <point x="466.0" y="100"/>
      <point x="513.0" y="122"/>
      <point x="513.0" y="205" type="curve" smooth="yes"/>
      <point x="513.0" y="393" type="line"/>
      <point x="489.0" y="340"/>
      <point x="418.0" y="337"/>
      <point x="329.0" y="337" type="curve" smooth="yes"/>
      <point x="231.0" y="337"/>
      <point x="155.0" y="342"/>
      <point x="155.0" y="445" type="curve" smooth="yes"/>
      <point x="155.0" y="533" type="line" smooth="yes"/>
      <point x="155.0" y="634"/>
      <point x="232.0" y="649"/>
      <point x="332.0" y="649" type="curve" smooth="yes"/>
      <point x="440.0" y="649"/>
      <point x="523.0" y="636"/>
      <point x="523.0" y="533" type="curve" smooth="yes"/>
      <point x="523.0" y="205" type="line" smooth="yes"/>
      <point x="523.0" y="116"/>
      <point x="474.0" y="90"/>
      <point x="389.0" y="90" type="curve" smooth="yes"/>
    </contour>
    <contour>
      <point x="329.0" y="347" type="curve" smooth="yes"/>
      <point x="418.0" y="347"/>
      <point x="513.0" y="345"/>
      <point x="513.0" y="442" type="curve"/>
      <point x="513.0" y="533" type="line" smooth="yes"/>
      <point x="513.0" y="630"/>
      <point x="430.0" y="639"/>
      <point x="332.0" y="639" type="curve" smooth="yes"/>
      <point x="240.0" y="639"/>
      <point x="165.0" y="628"/>
      <point x="165.0" y="533" type="curve" smooth="yes"/>
      <point x="165.0" y="445" type="line" smooth="yes"/>
      <point x="165.0" y="348"/>
      <point x="241.0" y="347"/>
    </contour>
  </outline>
</glyph>
<glyph name="Q" format="1">
  <advance width="737"/>
  <unicode hex="0051"/>
  <outline>
    <contour>
      <point x="445.0" y="-90" type="line" smooth="yes"/>
      <point x="470.0" y="-90"/>
      <point x="481.0" y="-79"/>
      <point x="481.0" y="-54" type="curve" smooth="yes"/>
      <point x="481.0" y="1" type="line"/>
      <point x="638.0" y="23"/>
      <point x="679.0" y="97"/>
      <point x="679.0" y="198" type="curve" smooth="yes"/>
      <point x="679.0" y="530" type="line" smooth="yes"/>
      <point x="679.0" y="652"/>
      <point x="619.0" y="735"/>
      <point x="369.0" y="735" type="curve" smooth="yes"/>
      <point x="119.0" y="735"/>
      <point x="58.0" y="652"/>
      <point x="58.0" y="530" type="curve" smooth="yes"/>
      <point x="58.0" y="198" type="line" smooth="yes"/>
      <point x="58.0" y="97"/>
      <point x="100.0" y="24"/>
      <point x="255.0" y="1" type="curve"/>
      <point x="255.0" y="-54" type="line" smooth="yes"/>
      <point x="255.0" y="-79"/>
      <point x="266.0" y="-90"/>
      <point x="291.0" y="-90" type="curve" smooth="yes"/>
    </contour>
    <contour>
      <point x="285.0" y="220" type="curve" smooth="yes"/>
      <point x="285.0" y="493" type="line" smooth="yes"/>
      <point x="285.0" y="519"/>
      <point x="297.0" y="539"/>
      <point x="369.0" y="539" type="curve" smooth="yes"/>
      <point x="442.0" y="539"/>
      <point x="453.0" y="519"/>
      <point x="453.0" y="493" type="curve" smooth="yes"/>
      <point x="453.0" y="220" type="line" smooth="yes"/>
      <point x="453.0" y="193"/>
      <point x="442.0" y="173"/>
      <point x="369.0" y="173" type="curve" smooth="yes"/>
      <point x="297.0" y="173"/>
      <point x="285.0" y="193"/>
    </contour>
    <contour>
      <point x="362.0" y="0" type="line"/>
      <point x="362.0" y="77" type="line"/>
      <point x="209.0" y="78"/>
      <point x="166.0" y="132"/>
      <point x="166.0" y="212" type="curve" smooth="yes"/>
      <point x="166.0" y="507" type="line" smooth="yes"/>
      <point x="166.0" y="588"/>
      <point x="210.0" y="642"/>
      <point x="367.0" y="642" type="curve" smooth="yes"/>
      <point x="524.0" y="642"/>
      <point x="570.0" y="588"/>
      <point x="570.0" y="507" type="curve" smooth="yes"/>
      <point x="570.0" y="212" type="line" smooth="yes"/>
      <point x="570.0" y="132"/>
      <point x="525.0" y="78"/>
      <point x="372.0" y="77" type="curve"/>
      <point x="372.0" y="0" type="line"/>
    </contour>
    <contour>
      <point x="176.0" y="212" type="line" smooth="yes"/>
      <point x="176.0" y="137"/>
      <point x="218.0" y="87"/>
      <point x="367.0" y="87" type="curve" smooth="yes"/>
      <point x="516.0" y="87"/>
      <point x="560.0" y="137"/>
      <point x="560.0" y="212" type="curve" smooth="yes"/>
      <point x="560.0" y="507" type="line" smooth="yes"/>
      <point x="560.0" y="582"/>
      <point x="516.0" y="632"/>
      <point x="367.0" y="632" type="curve" smooth="yes"/>
      <point x="218.0" y="632"/>
      <point x="176.0" y="582"/>
      <point x="176.0" y="507" type="curve" smooth="yes"/>
    </contour>
  </outline>
</glyph>
<glyph name="Z" format="1">
  <advance width="660"/>
  <unicode hex="005A"/>
  <outline>
    <contour>
      <point x="578.0" y="0" type="line" smooth="yes"/>
      <point x="603.0" y="0"/>
      <point x="614.0" y="11"/>
      <point x="614.0" y="36" type="curve" smooth="yes"/>
      <point x="614.0" y="155" type="line" smooth="yes"/>
      <point x="614.0" y="180"/>
      <point x="603.0" y="191"/>
      <point x="578.0" y="191" type="curve" smooth="yes"/>
      <point x="339.0" y="191" type="line"/>
      <point x="571.0" y="472" type="line" smooth="yes"/>
      <point x="589.0" y="491"/>
      <point x="596.0" y="508"/>
      <point x="596.0" y="535" type="curve" smooth="yes"/>
      <point x="596.0" y="684" type="line" smooth="yes"/>
      <point x="596.0" y="709"/>
      <point x="585.0" y="720"/>
      <point x="560.0" y="720" type="curve" smooth="yes"/>
      <point x="100.0" y="720" type="line" smooth="yes"/>
      <point x="75.0" y="720"/>
      <point x="64.0" y="709"/>
      <point x="64.0" y="684" type="curve"/>
      <point x="64.0" y="563" type="line"/>
      <point x="64.0" y="538"/>
      <point x="75.0" y="527"/>
      <point x="100.0" y="527" type="curve" smooth="yes"/>
      <point x="314.0" y="527" type="line"/>
      <point x="71.0" y="232" type="line" smooth="yes"/>
      <point x="53.0" y="213"/>
      <point x="46.0" y="196"/>
      <point x="46.0" y="170" type="curve"/>
      <point x="46.0" y="36" type="line"/>
      <point x="46.0" y="11"/>
      <point x="57.0" y="0"/>
      <point x="82.0" y="0" type="curve" smooth="yes"/>
    </contour>
    <contour>
      <point x="473.0" y="544" type="curve" smooth="yes"/>
      <point x="180.0" y="168" type="line"/>
      <point x="170.0" y="156"/>
      <point x="166.0" y="150"/>
      <point x="166.0" y="137" type="curve" smooth="yes"/>
      <point x="166.0" y="123" type="line" smooth="yes"/>
      <point x="166.0" y="104"/>
      <point x="176.0" y="100"/>
      <point x="187.0" y="100" type="curve" smooth="yes"/>
      <point x="524.0" y="100" type="line"/>
      <point x="524.0" y="90" type="line"/>
      <point x="187.0" y="90" type="line" smooth="yes"/>
      <point x="165.0" y="90"/>
      <point x="156.0" y="100"/>
      <point x="156.0" y="123" type="curve" smooth="yes"/>
      <point x="156.0" y="139" type="line" smooth="yes"/>
      <point x="156.0" y="154"/>
      <point x="163.0" y="164"/>
      <point x="173.0" y="176" type="curve"/>
      <point x="466.0" y="552" type="line" smooth="yes"/>
      <point x="476.0" y="564"/>
      <point x="480.0" y="570"/>
      <point x="480.0" y="583" type="curve" smooth="yes"/>
      <point x="480.0" y="597" type="line" smooth="yes"/>
      <point x="480.0" y="616"/>
      <point x="470.0" y="620"/>
      <point x="459.0" y="620" type="curve" smooth="yes"/>
      <point x="154.0" y="620" type="line"/>
      <point x="154.0" y="630" type="line"/>
      <point x="459.0" y="630" type="line" smooth="yes"/>
      <point x="481.0" y="630"/>
      <point x="490.0" y="620"/>
      <point x="490.0" y="597" type="curve" smooth="yes"/>
      <point x="490.0" y="581" type="line" smooth="yes"/>
      <point x="490.0" y="566"/>
      <point x="483.0" y="556"/>
    </contour>
    <contour>
      <point x="330.0" y="747.0" type="move" name="top"/>
    </contour>
    <contour>
      <point x="330.0" y="0.0" type="move" name="bottom"/>
    </contour>
  </outline>
</glyph>
<glyph name="asciitilde" format="1">
  <advance width="734"/>
  <unicode hex="007E"/>
  <outline>
    <contour>
      <point x="367.0" y="277" type="line"/>
      <point x="390.0" y="274" type="line" smooth="yes"/>
      <point x="503.0" y="257"/>
      <point x="524.0" y="250"/>
      <point x="627.0" y="286" type="curve" smooth="yes"/>
      <point x="645.0" y="293"/>
      <point x="664.0" y="304"/>
      <point x="664.0" y="339" type="curve" smooth="yes"/>
      <point x="664.0" y="438" type="line" smooth="yes"/>
      <point x="664.0" y="468"/>
      <point x="647.0" y="479"/>
      <point x="612.0" y="469" type="curve" smooth="yes"/>
      <point x="529.0" y="444"/>
      <point x="523.0" y="440"/>
      <point x="398.0" y="458" type="curve" smooth="yes"/>
      <point x="367.0" y="462" type="line"/>
      <point x="343.0" y="465" type="line" smooth="yes"/>
      <point x="229.0" y="482"/>
      <point x="210.0" y="489"/>
      <point x="107.0" y="453" type="curve" smooth="yes"/>
      <point x="87.0" y="446"/>
      <point x="70.0" y="435"/>
      <point x="70.0" y="400" type="curve" smooth="yes"/>
      <point x="70.0" y="294" type="line" smooth="yes"/>
      <point x="70.0" y="271"/>
      <point x="87.0" y="260"/>
      <point x="121.0" y="269" type="curve"/>
      <point x="196.0" y="292"/>
      <point x="219.0" y="298"/>
      <point x="327.0" y="282" type="curve"/>
    </contour>
    <contour>
      <point x="160.0" y="368" type="curve"/>
      <point x="160.0" y="379" type="line"/>
      <point x="208.0" y="392"/>
      <point x="241.0" y="393"/>
      <point x="328.0" y="380" type="curve" smooth="yes"/>
      <point x="368.0" y="375" type="line"/>
      <point x="391.0" y="372" type="line" smooth="yes"/>
      <point x="481.0" y="358"/>
      <point x="513.0" y="351"/>
      <point x="574.0" y="368" type="curve"/>
      <point x="574.0" y="357" type="line"/>
      <point x="513.0" y="341"/>
      <point x="479.0" y="349"/>
      <point x="389.0" y="362" type="curve" smooth="yes"/>
      <point x="366.0" y="365" type="line"/>
      <point x="326.0" y="370" type="line" smooth="yes"/>
      <point x="240.0" y="383"/>
      <point x="209.0" y="381"/>
    </contour>
  </outline>
</glyph>
<glyph name="degree" format="1">
  <advance width="483"/>
  <unicode hex="00B0"/>
  <outline>
    <contour>
      <point x="438.0" y="425" type="curve"/>
      <point x="438.0" y="609" type="line" smooth="yes"/>
      <point x="438.0" y="678"/>
      <point x="400.0" y="725"/>
      <point x="242.0" y="725" type="curve" smooth="yes"/>
      <point x="84.0" y="725"/>
      <point x="45.0" y="678"/>
      <point x="45.0" y="609" type="curve" smooth="yes"/>
      <point x="45.0" y="425" type="line" smooth="yes"/>
      <point x="45.0" y="356"/>
      <point x="84.0" y="309"/>
      <point x="242.0" y="309" type="curve" smooth="yes"/>
      <point x="400.0" y="309"/>
      <point x="438.0" y="356"/>
    </contour>
    <contour>
      <point x="192.0" y="474" type="curve"/>
      <point x="192.0" y="559" type="line" smooth="yes"/>
      <point x="192.0" y="574"/>
      <point x="200.0" y="587"/>
      <point x="242.0" y="587" type="curve" smooth="yes"/>
      <point x="286.0" y="587"/>
      <point x="292.0" y="574"/>
      <point x="292.0" y="559" type="curve" smooth="yes"/>
      <point x="292.0" y="474" type="line" smooth="yes"/>
      <point x="292.0" y="458"/>
      <point x="284.0" y="447"/>
      <point x="242.0" y="447" type="curve" smooth="yes"/>
      <point x="200.0" y="447"/>
      <point x="192.0" y="458"/>
    </contour>
    <contour>
      <point x="370.0" y="581" type="curve" smooth="yes"/>
      <point x="370.0" y="452" type="line" smooth="yes"/>
      <point x="370.0" y="394"/>
      <point x="341.0" y="373"/>
      <point x="242.0" y="373" type="curve" smooth="yes"/>
      <point x="144.0" y="373"/>
      <point x="114.0" y="394"/>
      <point x="114.0" y="452" type="curve" smooth="yes"/>
      <point x="114.0" y="581" type="line" smooth="yes"/>
      <point x="114.0" y="639"/>
      <point x="144.0" y="661"/>
      <point x="242.0" y="661" type="curve" smooth="yes"/>
      <point x="341.0" y="661"/>
      <point x="370.0" y="639"/>
    </contour>
    <contour>
      <point x="242.0" y="383" type="curve" smooth="yes"/>
      <point x="331.0" y="383"/>
      <point x="360.0" y="400"/>
      <point x="360.0" y="452" type="curve" smooth="yes"/>
      <point x="360.0" y="581" type="line" smooth="yes"/>
      <point x="360.0" y="633"/>
      <point x="331.0" y="651"/>
      <point x="242.0" y="651" type="curve" smooth="yes"/>
      <point x="154.0" y="651"/>
      <point x="124.0" y="633"/>
      <point x="124.0" y="581" type="curve" smooth="yes"/>
      <point x="124.0" y="452" type="line" smooth="yes"/>
      <point x="124.0" y="400"/>
      <point x="154.0" y="383"/>
    </contour>
  </outline>
</glyph>
<glyph name="cedilla" format="1">
  <advance width="500"/>
  <unicode hex="00B8"/>
  <outline>
    <contour>
      <point x="264.0" y="-126" type="line"/>
      <point x="290.0" y="-126"/>
      <point x="303.0" y="-117"/>
      <point x="310.0" y="-96" type="curve" smooth="yes"/>
      <point x="373.0" y="81" type="line" smooth="yes"/>
      <point x="380.0" y="100"/>
      <point x="375.0" y="113"/>
      <point x="353.0" y="121" type="curve" smooth="yes"/>
      <point x="237.0" y="164" type="line" smooth="yes"/>
      <point x="213.0" y="173"/>
      <point x="201.0" y="166"/>
      <point x="193.0" y="144" type="curve" smooth="yes"/>
      <point x="108.0" y="-86" type="line" smooth="yes"/>
      <point x="99.0" y="-110"/>
      <point x="104.0" y="-126"/>
      <point x="138.0" y="-126" type="curve" smooth="yes"/>
    </contour>
    <contour>
      <point x="272.0" y="97" type="line"/>
      <point x="282.0" y="96" type="line"/>
      <point x="234.0" y="-36" type="line"/>
      <point x="224.0" y="-36" type="line"/>
    </contour>
    <contour>
      <point x="250.0" y="747.0" type="move" name="_top"/>
    </contour>
    <contour>
      <point x="250.0" y="0.0" type="move" name="_bottom"/>
    </contour>
  </outline>
</glyph>
<glyph name="Oslash" format="1">
  <advance width="737"/>
  <unicode hex="00D8"/>
  <outline>
    <contour>
      <point x="265.0" y="494" type="line" smooth="yes"/>
      <point x="265.0" y="526"/>
      <point x="279.0" y="550"/>
      <point x="369.0" y="550" type="curve" smooth="yes"/>
      <point x="373.0" y="550"/>
      <point x="377.0" y="550"/>
      <point x="381.0" y="550" type="curve"/>
      <point x="265.0" y="277" type="line"/>
    </contour>
    <contour>
      <point x="369.0" y="168" type="curve" smooth="yes"/>
      <point x="364.0" y="168"/>
      <point x="359.0" y="168"/>
      <point x="355.0" y="168" type="curve"/>
      <point x="473.0" y="446" type="line"/>
      <point x="473.0" y="225" type="line" smooth="yes"/>
      <point x="473.0" y="192"/>
      <point x="460.0" y="168"/>
    </contour>
    <contour>
      <point x="295.0" y="-34" type="curve"/>
      <point x="304.0" y="-13" type="line"/>
      <point x="324.0" y="-14"/>
      <point x="346.0" y="-15"/>
      <point x="369.0" y="-15" type="curve" smooth="yes"/>
      <point x="619.0" y="-15"/>
      <point x="679.0" y="67"/>
      <point x="679.0" y="189" type="curve"/>
      <point x="679.0" y="530" type="line" smooth="yes"/>
      <point x="679.0" y="598"/>
      <point x="661.0" y="653"/>
      <point x="602.0" y="689" type="curve"/>
      <point x="629.0" y="754" type="line"/>
      <point x="641.0" y="776"/>
      <point x="628.0" y="790"/>
      <point x="603.0" y="790" type="curve" smooth="yes"/>
      <point x="488.0" y="790" type="line" smooth="yes"/>
      <point x="463.0" y="790"/>
      <point x="454.0" y="776"/>
      <point x="442.0" y="754" type="curve"/>
      <point x="433.0" y="733" type="line"/>
      <point x="413.0" y="734"/>
      <point x="392.0" y="735"/>
      <point x="369.0" y="735" type="curve" smooth="yes"/>
      <point x="119.0" y="735"/>
      <point x="58.0" y="652"/>
      <point x="58.0" y="530" type="curve" smooth="yes"/>
      <point x="58.0" y="189" type="line" smooth="yes"/>
      <point x="58.0" y="122"/>
      <point x="77.0" y="67"/>
      <point x="135.0" y="31" type="curve"/>
      <point x="108.0" y="-34" type="line"/>
      <point x="96.0" y="-56"/>
      <point x="109.0" y="-70"/>
      <point x="134.0" y="-70" type="curve" smooth="yes"/>
      <point x="249.0" y="-70" type="line" smooth="yes"/>
      <point x="274.0" y="-70"/>
      <point x="283.0" y="-56"/>
    </contour>
    <contour>
      <point x="166.0" y="212" type="line" smooth="yes"/>
      <point x="166.0" y="160"/>
      <point x="186.0" y="119"/>
      <point x="253.0" y="100" type="curve"/>
      <point x="474.0" y="621" type="line"/>
      <point x="446.0" y="628"/>
      <point x="411.0" y="632"/>
      <point x="367.0" y="632" type="curve" smooth="yes"/>
      <point x="208.0" y="632"/>
      <point x="166.0" y="582"/>
      <point x="166.0" y="507" type="curve" smooth="yes"/>
    </contour>
    <contour>
      <point x="367.0" y="87" type="curve" smooth="yes"/>
      <point x="526.0" y="87"/>
      <point x="570.0" y="137"/>
      <point x="570.0" y="212" type="curve" smooth="yes"/>
      <point x="570.0" y="507" type="line" smooth="yes"/>
      <point x="570.0" y="559"/>
      <point x="549.0" y="599"/>
      <point x="483.0" y="618" type="curve"/>
      <point x="263.0" y="97" type="line"/>
      <point x="290.0" y="91"/>
      <point x="324.0" y="87"/>
    </contour>
    <contour>
      <point x="230.0" y="20" type="line"/>
      <point x="219.0" y="20" type="line"/>
      <point x="249.0" y="91" type="line"/>
      <point x="178.0" y="111"/>
      <point x="156.0" y="155"/>
      <point x="156.0" y="212" type="curve" smooth="yes"/>
      <point x="156.0" y="507" type="line" smooth="yes"/>
      <point x="156.0" y="588"/>
      <point x="200.0" y="642"/>
      <point x="367.0" y="642" type="curve" smooth="yes"/>
      <point x="412.0" y="642"/>
      <point x="449.0" y="638"/>
      <point x="478.0" y="631" type="curve"/>
      <point x="507.0" y="700" type="line"/>
      <point x="518.0" y="700" type="line"/>
      <point x="487.0" y="628" type="line"/>
      <point x="558.0" y="607"/>
      <point x="580.0" y="563"/>
      <point x="580.0" y="507" type="curve" smooth="yes"/>
      <point x="580.0" y="212" type="line" smooth="yes"/>
      <point x="580.0" y="131"/>
      <point x="534.0" y="77"/>
      <point x="367.0" y="77" type="curve" smooth="yes"/>
      <point x="323.0" y="77"/>
      <point x="287.0" y="81"/>
      <point x="259.0" y="88" type="curve"/>
    </contour>
  </outline>
</glyph>
<glyph name="divide" format="1">
  <advance width="734"/>
  <unicode hex="00F7"/>
  <outline>
    <contour>
      <point x="448.0" y="483" type="line" smooth="yes"/>
      <point x="473.0" y="483"/>
      <point x="484.0" y="494"/>
      <point x="484.0" y="519" type="curve" smooth="yes"/>
      <point x="484.0" y="642" type="line" smooth="yes"/>
      <point x="484.0" y="668"/>
      <point x="473.0" y="678"/>
      <point x="448.0" y="678" type="curve" smooth="yes"/>
      <point x="286.0" y="678" type="line" smooth="yes"/>
      <point x="261.0" y="678"/>
      <point x="250.0" y="668"/>
      <point x="250.0" y="642" type="curve"/>
      <point x="250.0" y="519" type="line"/>
      <point x="250.0" y="494"/>
      <point x="261.0" y="483"/>
      <point x="286.0" y="483" type="curve" smooth="yes"/>
    </contour>
    <contour>
      <point x="106.0" y="277" type="curve"/>
      <point x="628.0" y="277" type="line" smooth="yes"/>
      <point x="653.0" y="277"/>
      <point x="664.0" y="287"/>
      <point x="664.0" y="313" type="curve" smooth="yes"/>
      <point x="664.0" y="407" type="line" smooth="yes"/>
      <point x="664.0" y="433"/>
      <point x="653.0" y="443"/>
      <point x="628.0" y="443" type="curve" smooth="yes"/>
      <point x="106.0" y="443" type="line" smooth="yes"/>
      <point x="81.0" y="443"/>
      <point x="70.0" y="432"/>
      <point x="70.0" y="407" type="curve" smooth="yes"/>
      <point x="70.0" y="313" type="line" smooth="yes"/>
      <point x="70.0" y="287"/>
      <point x="81.0" y="277"/>
    </contour>
    <contour>
      <point x="448.0" y="42" type="line" smooth="yes"/>
      <point x="473.0" y="42"/>
      <point x="484.0" y="53"/>
      <point x="484.0" y="78" type="curve" smooth="yes"/>
      <point x="484.0" y="201" type="line" smooth="yes"/>
      <point x="484.0" y="227"/>
      <point x="473.0" y="237"/>
      <point x="448.0" y="237" type="curve" smooth="yes"/>
      <point x="286.0" y="237" type="line" smooth="yes"/>
      <point x="261.0" y="237"/>
      <point x="250.0" y="227"/>
      <point x="250.0" y="201" type="curve" smooth="yes"/>
      <point x="250.0" y="78" type="line" smooth="yes"/>
      <point x="250.0" y="53"/>
      <point x="261.0" y="42"/>
      <point x="286.0" y="42" type="curve" smooth="yes"/>
    </contour>
    <contour>
      <point x="362.0" y="558" type="line"/>
      <point x="362.0" y="603" type="line"/>
      <point x="372.0" y="603" type="line"/>
      <point x="372.0" y="558" type="line"/>
    </contour>
    <contour>
      <point x="160.0" y="355" type="line"/>
      <point x="160.0" y="365" type="line"/>
      <point x="574.0" y="365" type="line"/>
      <point x="574.0" y="355" type="line"/>
    </contour>
    <contour>
      <point x="362.0" y="117" type="line"/>
      <point x="362.0" y="162" type="line"/>
      <point x="372.0" y="162" type="line"/>
      <point x="372.0" y="117" type="line"/>
    </contour>
  </outline>
</glyph>
<glyph name="ringhalfleft" format="1">
  <advance width="312"/>
  <unicode hex="02BF"/>
  <outline>
    <contour>
      <point x="257.0" y="383" type="line" smooth="yes"/>
      <point x="273.0" y="383"/>
      <point x="279.0" y="389"/>
      <point x="279.0" y="405" type="curve" smooth="yes"/>
      <point x="279.0" y="480" type="line" smooth="yes"/>
      <point x="279.0" y="496"/>
      <point x="273.0" y="502"/>
      <point x="257.0" y="502" type="curve" smooth="yes"/>
      <point x="208.0" y="502" type="line" smooth="yes"/>
      <point x="189.0" y="502"/>
      <point x="180.0" y="509"/>
      <point x="180.0" y="525" type="curve" smooth="yes"/>
      <point x="180.0" y="576" type="line" smooth="yes"/>
      <point x="180.0" y="592"/>
      <point x="189.0" y="599"/>
      <point x="208.0" y="599" type="curve" smooth="yes"/>
      <point x="257.0" y="599" type="line" smooth="yes"/>
      <point x="273.0" y="599"/>
      <point x="279.0" y="607"/>
      <point x="279.0" y="621" type="curve" smooth="yes"/>
      <point x="279.0" y="698" type="line" smooth="yes"/>
      <point x="279.0" y="712"/>
      <point x="273.0" y="720"/>
      <point x="257.0" y="720" type="curve" smooth="yes"/>
      <point x="148.0" y="720" type="line" smooth="yes"/>
      <point x="70.0" y="720"/>
      <point x="33.0" y="689"/>
      <point x="33.0" y="624" type="curve" smooth="yes"/>
      <point x="33.0" y="478" type="line" smooth="yes"/>
      <point x="33.0" y="413"/>
      <point x="70.0" y="383"/>
      <point x="148.0" y="383" type="curve" smooth="yes"/>
    </contour>
    <contour>
      <point x="210.0" y="654" type="line"/>
      <point x="165.0" y="654" type="line" smooth="yes"/>
      <point x="135.0" y="654"/>
      <point x="123.0" y="634"/>
      <point x="123.0" y="607" type="curve" smooth="yes"/>
      <point x="123.0" y="495" type="line" smooth="yes"/>
      <point x="123.0" y="468"/>
      <point x="135.0" y="448"/>
      <point x="165.0" y="448" type="curve" smooth="yes"/>
      <point x="210.0" y="448" type="line"/>
      <point x="210.0" y="438" type="line"/>
      <point x="165.0" y="438" type="line" smooth="yes"/>
      <point x="132.0" y="438"/>
      <point x="113.0" y="460"/>
      <point x="113.0" y="495" type="curve" smooth="yes"/>
      <point x="113.0" y="607" type="line" smooth="yes"/>
      <point x="113.0" y="642"/>
      <point x="132.0" y="664"/>
      <point x="165.0" y="664" type="curve" smooth="yes"/>
      <point x="210.0" y="664" type="line"/>
    </contour>
  </outline>
</glyph>
<glyph name="verticallinemod" format="1">
  <advance width="356"/>
  <unicode hex="02C8"/>
  <outline>
    <contour>
      <point x="253.0" y="345" type="line" smooth="yes"/>
      <point x="288.0" y="345"/>
      <point x="295.0" y="351"/>
      <point x="295.0" y="386" type="curve" smooth="yes"/>
      <point x="295.0" y="679" type="line" smooth="yes"/>
      <point x="295.0" y="714"/>
      <point x="290.0" y="720"/>
      <point x="256.0" y="720" type="curve" smooth="yes"/>
      <point x="101.0" y="720" type="line" smooth="yes"/>
      <point x="66.0" y="720"/>
      <point x="61.0" y="714"/>
      <point x="61.0" y="679" type="curve" smooth="yes"/>
      <point x="61.0" y="386" type="line" smooth="yes"/>
      <point x="61.0" y="351"/>
      <point x="68.0" y="345"/>
      <point x="103.0" y="345" type="curve" smooth="yes"/>
    </contour>
    <contour>
      <point x="173.0" y="630" type="line"/>
      <point x="183.0" y="630" type="line"/>
      <point x="183.0" y="435" type="line"/>
      <point x="173.0" y="435" type="line"/>
    </contour>
  </outline>
</glyph>
<glyph name="quotedblright" format="1">
  <advance width="684"/>
  <unicode hex="201D"/>
  <outline>
    <contour>
      <point x="491.0" y="345" type="line" smooth="yes"/>
      <point x="581.0" y="345"/>
      <point x="639.0" y="394"/>
      <point x="639.0" y="496" type="curve" smooth="yes"/>
      <point x="639.0" y="684" type="line" smooth="yes"/>
      <point x="639.0" y="709"/>
      <point x="628.0" y="720"/>
      <point x="603.0" y="720" type="curve" smooth="yes"/>
      <point x="401.0" y="720" type="line" smooth="yes"/>
      <point x="376.0" y="720"/>
      <point x="365.0" y="709"/>
      <point x="365.0" y="684" type="curve" smooth="yes"/>
      <point x="365.0" y="536" type="line" smooth="yes"/>
      <point x="365.0" y="511"/>
      <point x="376.0" y="500"/>
      <point x="401.0" y="500" type="curve" smooth="yes"/>
      <point x="510.0" y="500" type="line"/>
      <point x="510.0" y="485" type="line" smooth="yes"/>
      <point x="510.0" y="467"/>
      <point x="501.0" y="457"/>
      <point x="483.0" y="457" type="curve" smooth="yes"/>
      <point x="414.0" y="457" type="line" smooth="yes"/>
      <point x="389.0" y="457"/>
      <point x="378.0" y="446"/>
      <point x="378.0" y="421" type="curve" smooth="yes"/>
      <point x="378.0" y="381" type="line" smooth="yes"/>
      <point x="378.0" y="355"/>
      <point x="389.0" y="345"/>
      <point x="414.0" y="345" type="curve" smooth="yes"/>
    </contour>
    <contour>
      <point x="171.0" y="345" type="line" smooth="yes"/>
      <point x="261.0" y="345"/>
      <point x="319.0" y="394"/>
      <point x="319.0" y="496" type="curve" smooth="yes"/>
      <point x="319.0" y="684" type="line" smooth="yes"/>
      <point x="319.0" y="709"/>
      <point x="308.0" y="720"/>
      <point x="283.0" y="720" type="curve" smooth="yes"/>
      <point x="81.0" y="720" type="line" smooth="yes"/>
      <point x="56.0" y="720"/>
      <point x="45.0" y="709"/>
      <point x="45.0" y="684" type="curve"/>
      <point x="45.0" y="536" type="line"/>
      <point x="45.0" y="511"/>
      <point x="56.0" y="500"/>
      <point x="81.0" y="500" type="curve" smooth="yes"/>
      <point x="190.0" y="500" type="line"/>
      <point x="190.0" y="485" type="line" smooth="yes"/>
      <point x="190.0" y="467"/>
      <point x="181.0" y="457"/>
      <point x="163.0" y="457" type="curve" smooth="yes"/>
      <point x="94.0" y="457" type="line" smooth="yes"/>
      <point x="69.0" y="457"/>
      <point x="58.0" y="446"/>
      <point x="58.0" y="421" type="curve"/>
      <point x="58.0" y="381" type="line"/>
      <point x="58.0" y="355"/>
      <point x="69.0" y="345"/>
      <point x="94.0" y="345" type="curve" smooth="yes"/>
    </contour>
    <contour>
      <point x="249.0" y="615" type="line"/>
      <point x="249.0" y="496" type="line" smooth="yes"/>
      <point x="249.0" y="435"/>
      <point x="215.0" y="405"/>
      <point x="161.0" y="405" type="curve" smooth="yes"/>
      <point x="115.0" y="405" type="line"/>
      <point x="115.0" y="415" type="line"/>
      <point x="161.0" y="415" type="line" smooth="yes"/>
      <point x="209.0" y="415"/>
      <point x="239.0" y="442"/>
      <point x="239.0" y="496" type="curve" smooth="yes"/>
      <point x="239.0" y="605" type="line"/>
      <point x="115.0" y="605" type="line"/>
      <point x="115.0" y="615" type="line"/>
    </contour>
    <contour>
      <point x="569.0" y="615" type="line"/>
      <point x="569.0" y="496" type="line" smooth="yes"/>
      <point x="569.0" y="435"/>
      <point x="535.0" y="405"/>
      <point x="481.0" y="405" type="curve" smooth="yes"/>
      <point x="435.0" y="405" type="line"/>
      <point x="435.0" y="415" type="line"/>
      <point x="481.0" y="415" type="line" smooth="yes"/>
      <point x="529.0" y="415"/>
      <point x="559.0" y="442"/>
      <point x="559.0" y="496" type="curve" smooth="yes"/>
      <point x="559.0" y="605" type="line"/>
      <point x="435.0" y="605" type="line"/>
      <point x="435.0" y="615" type="line"/>
    </contour>
  </outline>
</glyph>
<glyph name="bullet" format="1">
  <advance width="443"/>
  <unicode hex="2022"/>
  <outline>
    <contour>
      <point x="362.0" y="185" type="line" smooth="yes"/>
      <point x="387.0" y="185"/>
      <point x="398.0" y="196"/>
      <point x="398.0" y="221" type="curve" smooth="yes"/>
      <point x="398.0" y="503" type="line" smooth="yes"/>
      <point x="398.0" y="529"/>
      <point x="387.0" y="539"/>
      <point x="362.0" y="539" type="curve" smooth="yes"/>
      <point x="81.0" y="539" type="line" smooth="yes"/>
      <point x="56.0" y="539"/>
      <point x="45.0" y="529"/>
      <point x="45.0" y="503" type="curve" smooth="yes"/>
      <point x="45.0" y="221" type="line" smooth="yes"/>
      <point x="45.0" y="196"/>
      <point x="56.0" y="185"/>
      <point x="81.0" y="185" type="curve" smooth="yes"/>
    </contour>
    <contour>
      <point x="308.0" y="449" type="line"/>
      <point x="308.0" y="275" type="line"/>
      <point x="135.0" y="275" type="line"/>
      <point x="135.0" y="449" type="line"/>
    </contour>
    <contour>
      <point x="298.0" y="439" type="line"/>
      <point x="145.0" y="439" type="line"/>
      <point x="145.0" y="285" type="line"/>
      <point x="298.0" y="285" type="line"/>
    </contour>
  </outline>
</glyph>
<glyph name="ellipsis" format="1">
  <advance width="1110"/>
  <unicode hex="2026"/>
  <outline>
    <contour>
      <point x="1019.0" y="0" type="line" smooth="yes"/>
      <point x="1044.0" y="0"/>
      <point x="1055.0" y="11"/>
      <point x="1055.0" y="36" type="curve" smooth="yes"/>
      <point x="1055.0" y="239" type="line" smooth="yes"/>
      <point x="1055.0" y="265"/>
      <point x="1044.0" y="275"/>
      <point x="1019.0" y="275" type="curve" smooth="yes"/>
      <point x="817.0" y="275" type="line" smooth="yes"/>
      <point x="792.0" y="275"/>
      <point x="781.0" y="265"/>
      <point x="781.0" y="239" type="curve"/>
      <point x="781.0" y="36" type="line"/>
      <point x="781.0" y="11"/>
      <point x="792.0" y="0"/>
      <point x="817.0" y="0" type="curve" smooth="yes"/>
    </contour>
    <contour>
      <point x="656.0" y="0" type="line" smooth="yes"/>
      <point x="681.0" y="0"/>
      <point x="692.0" y="11"/>
      <point x="692.0" y="36" type="curve" smooth="yes"/>
      <point x="692.0" y="239" type="line" smooth="yes"/>
      <point x="692.0" y="265"/>
      <point x="681.0" y="275"/>
      <point x="656.0" y="275" type="curve" smooth="yes"/>
      <point x="454.0" y="275" type="line" smooth="yes"/>
      <point x="429.0" y="275"/>
      <point x="418.0" y="265"/>
      <point x="418.0" y="239" type="curve"/>
      <point x="418.0" y="36" type="line"/>
      <point x="418.0" y="11"/>
      <point x="429.0" y="0"/>
      <point x="454.0" y="0" type="curve" smooth="yes"/>
    </contour>
    <contour>
      <point x="293.0" y="0" type="line" smooth="yes"/>
      <point x="318.0" y="0"/>
      <point x="329.0" y="11"/>
      <point x="329.0" y="36" type="curve" smooth="yes"/>
      <point x="329.0" y="239" type="line" smooth="yes"/>
      <point x="329.0" y="265"/>
      <point x="318.0" y="275"/>
      <point x="293.0" y="275" type="curve" smooth="yes"/>
      <point x="91.0" y="275" type="line" smooth="yes"/>
      <point x="66.0" y="275"/>
      <point x="55.0" y="265"/>
      <point x="55.0" y="239" type="curve"/>
      <point x="55.0" y="36" type="line"/>
      <point x="55.0" y="11"/>
      <point x="66.0" y="0"/>
      <point x="91.0" y="0" type="curve" smooth="yes"/>
    </contour>
    <contour>
      <point x="187.0" y="90" type="line"/>
      <point x="187.0" y="185" type="line"/>
      <point x="197.0" y="185" type="line"/>
      <point x="197.0" y="90" type="line"/>
    </contour>
    <contour>
      <point x="550.0" y="90" type="line"/>
      <point x="550.0" y="185" type="line"/>
      <point x="560.0" y="185" type="line"/>
      <point x="560.0" y="90" type="line"/>
    </contour>
    <contour>
      <point x="913.0" y="90" type="line"/>
      <point x="913.0" y="185" type="line"/>
      <point x="923.0" y="185" type="line"/>
      <point x="923.0" y="90" type="line"/>
    </contour>
  </outline>
</glyph>
<glyph name="seven.sups" format="1">
  <advance width="477.0"/>
  <unicode hex="2077"/>
  <outline>
    <contour>
      <point x="399.0" y="720" type="curve"/>
      <point x="64.0" y="720" type="line" smooth="yes"/>
      <point x="46.0" y="720"/>
      <point x="38.0" y="712"/>
      <point x="38.0" y="694" type="curve" smooth="yes"/>
      <point x="38.0" y="607" type="line" smooth="yes"/>
      <point x="38.0" y="589"/>
      <point x="46.0" y="581"/>
      <point x="64.0" y="581" type="curve" smooth="yes"/>
      <point x="262.0" y="581" type="line"/>
      <point x="262.0" y="517" type="line"/>
      <point x="203.0" y="501" type="line" smooth="yes"/>
      <point x="126.0" y="478"/>
      <point x="91.0" y="450"/>
      <point x="91.0" y="358" type="curve" smooth="yes"/>
      <point x="91.0" y="228" type="line" smooth="yes"/>
      <point x="91.0" y="210"/>
      <point x="99.0" y="202"/>
      <point x="117.0" y="202" type="curve" smooth="yes"/>
      <point x="233.0" y="202" type="line" smooth="yes"/>
      <point x="251.0" y="202"/>
      <point x="259.0" y="210"/>
      <point x="259.0" y="228" type="curve" smooth="yes"/>
      <point x="259.0" y="354" type="line"/>
      <point x="313.0" y="370" type="line" smooth="yes"/>
      <point x="390.0" y="393"/>
      <point x="425.0" y="421"/>
      <point x="425.0" y="512" type="curve" smooth="yes"/>
      <point x="425.0" y="694" type="line" smooth="yes"/>
      <point x="425.0" y="712"/>
      <point x="417.0" y="720"/>
    </contour>
    <contour>
      <point x="170.0" y="255" type="line"/>
      <point x="170.0" y="378" type="line" smooth="yes"/>
      <point x="170.0" y="401"/>
      <point x="181.0" y="414"/>
      <point x="196.0" y="419" type="curve" smooth="yes"/>
      <point x="319.0" y="459" type="line" smooth="yes"/>
      <point x="333.0" y="464"/>
      <point x="340.0" y="475"/>
      <point x="340.0" y="493" type="curve" smooth="yes"/>
      <point x="340.0" y="646" type="line"/>
      <point x="103.0" y="646" type="line"/>
      <point x="103.0" y="654" type="line"/>
      <point x="348.0" y="654" type="line"/>
      <point x="348.0" y="493" type="line" smooth="yes"/>
      <point x="348.0" y="471"/>
      <point x="340.0" y="458"/>
      <point x="323.0" y="452" type="curve" smooth="yes"/>
      <point x="200.0" y="412" type="line" smooth="yes"/>
      <point x="187.0" y="408"/>
      <point x="179.0" y="396"/>
      <point x="179.0" y="378" type="curve" smooth="yes"/>
      <point x="179.0" y="255" type="line"/>
    </contour>
  </outline>
</glyph>
<glyph name="eight.sups" format="1">
  <advance width="538"/>
  <unicode hex="2078"/>
  <outline>
    <contour>
      <point x="491.0" y="386" type="line" smooth="yes"/>
      <point x="491.0" y="454"/>
      <point x="458.0" y="489"/>
      <point x="415.0" y="498" type="curve"/>
      <point x="446.0" y="512"/>
      <point x="457.0" y="539"/>
      <point x="457.0" y="576" type="curve" smooth="yes"/>
      <point x="457.0" y="617" type="line" smooth="yes"/>
      <point x="457.0" y="688"/>
      <point x="415.0" y="731"/>
      <point x="270.0" y="731" type="curve" smooth="yes"/>
      <point x="125.0" y="731"/>
      <point x="81.0" y="688"/>
      <point x="81.0" y="617" type="curve" smooth="yes"/>
      <point x="81.0" y="576" type="line" smooth="yes"/>
      <point x="81.0" y="539"/>
      <point x="91.0" y="512"/>
      <point x="123.0" y="498" type="curve"/>
      <point x="80.0" y="489"/>
      <point x="47.0" y="454"/>
      <point x="47.0" y="386" type="curve" smooth="yes"/>
      <point x="47.0" y="316" type="line" smooth="yes"/>
      <point x="47.0" y="242"/>
      <point x="96.0" y="191"/>
      <point x="269.0" y="191" type="curve" smooth="yes"/>
      <point x="443.0" y="191"/>
      <point x="491.0" y="242"/>
      <point x="491.0" y="316" type="curve" smooth="yes"/>
    </contour>
    <contour>
      <point x="224.0" y="548" type="curve"/>
      <point x="224.0" y="579" type="line" smooth="yes"/>
      <point x="224.0" y="594"/>
      <point x="229.0" y="605"/>
      <point x="269.0" y="605" type="curve" smooth="yes"/>
      <point x="310.0" y="605"/>
      <point x="314.0" y="594"/>
      <point x="314.0" y="579" type="curve" smooth="yes"/>
      <point x="314.0" y="548" type="line" smooth="yes"/>
      <point x="314.0" y="532"/>
      <point x="310.0" y="521"/>
      <point x="269.0" y="521" type="curve" smooth="yes"/>
      <point x="229.0" y="521"/>
      <point x="224.0" y="532"/>
    </contour>
    <contour>
      <point x="206.0" y="344" type="curve" smooth="yes"/>
      <point x="206.0" y="382" type="line" smooth="yes"/>
      <point x="206.0" y="396"/>
      <point x="217.0" y="408"/>
      <point x="269.0" y="408" type="curve" smooth="yes"/>
      <point x="322.0" y="408"/>
      <point x="332.0" y="396"/>
      <point x="332.0" y="382" type="curve" smooth="yes"/>
      <point x="332.0" y="344" type="line" smooth="yes"/>
      <point x="332.0" y="329"/>
      <point x="322.0" y="317"/>
      <point x="269.0" y="317" type="curve" smooth="yes"/>
      <point x="217.0" y="317"/>
      <point x="206.0" y="329"/>
    </contour>
    <contour>
      <point x="269.0" y="250" type="curve" smooth="yes"/>
      <point x="153.0" y="250"/>
      <point x="122.0" y="283"/>
      <point x="122.0" y="326" type="curve" smooth="yes"/>
      <point x="122.0" y="391" type="line" smooth="yes"/>
      <point x="122.0" y="428"/>
      <point x="144.0" y="457"/>
      <point x="217.0" y="466" type="curve"/>
      <point x="168.0" y="473"/>
      <point x="148.0" y="493"/>
      <point x="148.0" y="527" type="curve" smooth="yes"/>
      <point x="148.0" y="600" type="line" smooth="yes"/>
      <point x="148.0" y="643"/>
      <point x="184.0" y="667"/>
      <point x="269.0" y="667" type="curve" smooth="yes"/>
      <point x="354.0" y="667"/>
      <point x="389.0" y="644"/>
      <point x="389.0" y="595" type="curve" smooth="yes"/>
      <point x="389.0" y="527" type="line" smooth="yes"/>
      <point x="389.0" y="493"/>
      <point x="369.0" y="474"/>
      <point x="320.0" y="466" type="curve"/>
      <point x="394.0" y="458"/>
      <point x="415.0" y="429"/>
      <point x="415.0" y="392" type="curve" smooth="yes"/>
      <point x="415.0" y="326" type="line" smooth="yes"/>
      <point x="415.0" y="283"/>
      <point x="385.0" y="250"/>
    </contour>
    <contour>
      <point x="156.0" y="600" type="curve" smooth="yes"/>
      <point x="156.0" y="527" type="line" smooth="yes"/>
      <point x="156.0" y="485"/>
      <point x="192.0" y="470"/>
      <point x="269.0" y="470" type="curve" smooth="yes"/>
      <point x="345.0" y="470"/>
      <point x="381.0" y="485"/>
      <point x="381.0" y="527" type="curve" smooth="yes"/>
      <point x="381.0" y="595" type="line" smooth="yes"/>
      <point x="381.0" y="640"/>
      <point x="344.0" y="659"/>
      <point x="269.0" y="659" type="curve" smooth="yes"/>
      <point x="194.0" y="659"/>
      <point x="156.0" y="641"/>
    </contour>
    <contour>
      <point x="130.0" y="391" type="curve" smooth="yes"/>
      <point x="130.0" y="326" type="line" smooth="yes"/>
      <point x="130.0" y="285"/>
      <point x="165.0" y="258"/>
      <point x="269.0" y="258" type="curve" smooth="yes"/>
      <point x="373.0" y="258"/>
      <point x="407.0" y="285"/>
      <point x="407.0" y="326" type="curve" smooth="yes"/>
      <point x="407.0" y="392" type="line" smooth="yes"/>
      <point x="407.0" y="434"/>
      <point x="372.0" y="462"/>
      <point x="269.0" y="462" type="curve" smooth="yes"/>
      <point x="166.0" y="462"/>
      <point x="130.0" y="434"/>
    </contour>
  </outline>
</glyph>
<glyph name="nine.sups" format="1">
  <advance width="528"/>
  <unicode hex="2079"/>
  <outline>
    <contour>
      <point x="293.0" y="202" type="line" smooth="yes"/>
      <point x="429.0" y="202"/>
      <point x="470.0" y="262"/>
      <point x="470.0" y="350" type="curve" smooth="yes"/>
      <point x="470.0" y="586" type="line" smooth="yes"/>
      <point x="470.0" y="674"/>
      <point x="431.0" y="731"/>
      <point x="254.0" y="731" type="curve" smooth="yes"/>
      <point x="89.0" y="731"/>
      <point x="47.0" y="674"/>
      <point x="47.0" y="586" type="curve" smooth="yes"/>
      <point x="47.0" y="517" type="line" smooth="yes"/>
      <point x="47.0" y="431"/>
      <point x="86.0" y="387"/>
      <point x="216.0" y="387" type="curve" smooth="yes"/>
      <point x="254.0" y="387"/>
      <point x="284.0" y="391"/>
      <point x="307.0" y="398" type="curve"/>
      <point x="307.0" y="382" type="line" smooth="yes"/>
      <point x="307.0" y="347"/>
      <point x="297.0" y="339"/>
      <point x="262.0" y="339" type="curve" smooth="yes"/>
      <point x="127.0" y="339" type="line" smooth="yes"/>
      <point x="109.0" y="339"/>
      <point x="102.0" y="331"/>
      <point x="102.0" y="313" type="curve" smooth="yes"/>
      <point x="102.0" y="228" type="line" smooth="yes"/>
      <point x="102.0" y="210"/>
      <point x="109.0" y="202"/>
      <point x="127.0" y="202" type="curve" smooth="yes"/>
    </contour>
    <contour>
      <point x="307.0" y="532" type="line" smooth="yes"/>
      <point x="307.0" y="517"/>
      <point x="301.0" y="506"/>
      <point x="259.0" y="506" type="curve" smooth="yes"/>
      <point x="216.0" y="506"/>
      <point x="210.0" y="517"/>
      <point x="210.0" y="532" type="curve" smooth="yes"/>
      <point x="210.0" y="574" type="line" smooth="yes"/>
      <point x="210.0" y="589"/>
      <point x="216.0" y="601"/>
      <point x="259.0" y="601" type="curve" smooth="yes"/>
      <point x="301.0" y="601"/>
      <point x="307.0" y="589"/>
      <point x="307.0" y="574" type="curve" smooth="yes"/>
    </contour>
    <contour>
      <point x="164.0" y="267" type="line"/>
      <point x="164.0" y="275" type="line"/>
      <point x="294.0" y="275" type="line" smooth="yes"/>
      <point x="351.0" y="275"/>
      <point x="385.0" y="291"/>
      <point x="385.0" y="351" type="curve" smooth="yes"/>
      <point x="385.0" y="487" type="line"/>
      <point x="366.0" y="453"/>
      <point x="313.0" y="445"/>
      <point x="253.0" y="445" type="curve" smooth="yes"/>
      <point x="180.0" y="445"/>
      <point x="125.0" y="449"/>
      <point x="125.0" y="523" type="curve" smooth="yes"/>
      <point x="125.0" y="588" type="line" smooth="yes"/>
      <point x="125.0" y="659"/>
      <point x="180.0" y="671"/>
      <point x="255.0" y="671" type="curve" smooth="yes"/>
      <point x="333.0" y="671"/>
      <point x="393.0" y="661"/>
      <point x="393.0" y="588" type="curve" smooth="yes"/>
      <point x="393.0" y="351" type="line" smooth="yes"/>
      <point x="393.0" y="285"/>
      <point x="357.0" y="267"/>
      <point x="294.0" y="267" type="curve" smooth="yes"/>
    </contour>
    <contour>
      <point x="253.0" y="453" type="curve" smooth="yes"/>
      <point x="317.0" y="453"/>
      <point x="385.0" y="461"/>
      <point x="385.0" y="517" type="curve"/>
      <point x="385.0" y="588" type="line" smooth="yes"/>
      <point x="385.0" y="657"/>
      <point x="325.0" y="663"/>
      <point x="255.0" y="663" type="curve" smooth="yes"/>
      <point x="188.0" y="663"/>
      <point x="133.0" y="655"/>
      <point x="133.0" y="588" type="curve" smooth="yes"/>
      <point x="133.0" y="523" type="line" smooth="yes"/>
      <point x="133.0" y="453"/>
      <point x="188.0" y="453"/>
    </contour>
  </outline>
</glyph>
<glyph name="colonsign" format="1">
  <advance width="628"/>
  <unicode hex="20A1"/>
  <outline>
    <contour>
      <point x="351.0" y="-14" type="curve" smooth="yes"/>
      <point x="351.0" y="40" type="line"/>
      <point x="404.0" y="40" type="line"/>
      <point x="404.0" y="-14" type="line" smooth="yes"/>
      <point x="404.0" y="-39"/>
      <point x="415.0" y="-50"/>
      <point x="440.0" y="-50" type="curve" smooth="yes"/>
      <point x="465.0" y="-50" type="line" smooth="yes"/>
      <point x="490.0" y="-50"/>
      <point x="501.0" y="-39"/>
      <point x="501.0" y="-14" type="curve" smooth="yes"/>
      <point x="501.0" y="40" type="line"/>
      <point x="548.0" y="40" type="line" smooth="yes"/>
      <point x="573.0" y="40"/>
      <point x="584.0" y="51"/>
      <point x="584.0" y="76" type="curve" smooth="yes"/>
      <point x="584.0" y="195" type="line" smooth="yes"/>
      <point x="584.0" y="220"/>
      <point x="573.0" y="231"/>
      <point x="548.0" y="231" type="curve" smooth="yes"/>
      <point x="347.0" y="231" type="line" smooth="yes"/>
      <point x="295.0" y="231"/>
      <point x="286.0" y="251"/>
      <point x="286.0" y="279" type="curve" smooth="yes"/>
      <point x="286.0" y="437" type="line" smooth="yes"/>
      <point x="286.0" y="463"/>
      <point x="295.0" y="487"/>
      <point x="347.0" y="487" type="curve" smooth="yes"/>
      <point x="548.0" y="487" type="line" smooth="yes"/>
      <point x="573.0" y="487"/>
      <point x="584.0" y="498"/>
      <point x="584.0" y="523" type="curve" smooth="yes"/>
      <point x="584.0" y="644" type="line" smooth="yes"/>
      <point x="584.0" y="669"/>
      <point x="573.0" y="680"/>
      <point x="548.0" y="680" type="curve" smooth="yes"/>
      <point x="501.0" y="680" type="line"/>
      <point x="501.0" y="734" type="line" smooth="yes"/>
      <point x="501.0" y="759"/>
      <point x="490.0" y="770"/>
      <point x="465.0" y="770" type="curve" smooth="yes"/>
      <point x="440.0" y="770" type="line" smooth="yes"/>
      <point x="415.0" y="770"/>
      <point x="404.0" y="759"/>
      <point x="404.0" y="734" type="curve" smooth="yes"/>
      <point x="404.0" y="680" type="line"/>
      <point x="351.0" y="680" type="line"/>
      <point x="351.0" y="734" type="line" smooth="yes"/>
      <point x="351.0" y="759"/>
      <point x="340.0" y="770"/>
      <point x="315.0" y="770" type="curve" smooth="yes"/>
      <point x="290.0" y="770" type="line" smooth="yes"/>
      <point x="265.0" y="770"/>
      <point x="254.0" y="759"/>
      <point x="254.0" y="734" type="curve" smooth="yes"/>
      <point x="254.0" y="678" type="line"/>
      <point x="105.0" y="664"/>
      <point x="58.0" y="585"/>
      <point x="58.0" y="475" type="curve" smooth="yes"/>
      <point x="58.0" y="244" type="line" smooth="yes"/>
      <point x="58.0" y="134"/>
      <point x="105.0" y="56"/>
      <point x="254.0" y="42" type="curve"/>
      <point x="254.0" y="-14" type="line" smooth="yes"/>
      <point x="254.0" y="-39"/>
      <point x="265.0" y="-50"/>
      <point x="290.0" y="-50" type="curve" smooth="yes"/>
      <point x="315.0" y="-50" type="line" smooth="yes"/>
      <point x="340.0" y="-50"/>
      <point x="351.0" y="-39"/>
    </contour>
    <contour>
      <point x="307.0" y="15" type="line"/>
      <point x="297.0" y="15" type="line"/>
      <point x="297.0" y="132" type="line"/>
      <point x="191.0" y="137"/>
      <point x="166.0" y="174"/>
      <point x="166.0" y="260" type="curve" smooth="yes"/>
      <point x="166.0" y="457" type="line" smooth="yes"/>
      <point x="166.0" y="544"/>
      <point x="193.0" y="582"/>
      <point x="297.0" y="587" type="curve"/>
      <point x="297.0" y="704" type="line"/>
      <point x="307.0" y="704" type="line"/>
      <point x="307.0" y="588" type="line"/>
      <point x="313.0" y="588"/>
      <point x="319.0" y="588"/>
      <point x="326.0" y="588" type="curve" smooth="yes"/>
      <point x="447.0" y="588" type="line"/>
      <point x="447.0" y="704" type="line"/>
      <point x="457.0" y="704" type="line"/>
      <point x="457.0" y="588" type="line"/>
      <point x="493.0" y="588" type="line"/>
      <point x="493.0" y="578" type="line"/>
      <point x="326.0" y="578" type="line" smooth="yes"/>
      <point x="208.0" y="578"/>
      <point x="176.0" y="546"/>
      <point x="176.0" y="457" type="curve" smooth="yes"/>
      <point x="176.0" y="260" type="line" smooth="yes"/>
      <point x="176.0" y="173"/>
      <point x="206.0" y="141"/>
      <point x="326.0" y="141" type="curve" smooth="yes"/>
      <point x="493.0" y="141" type="line"/>
      <point x="493.0" y="131" type="line"/>
      <point x="457.0" y="131" type="line"/>
      <point x="457.0" y="15" type="line"/>
      <point x="447.0" y="15" type="line"/>
      <point x="447.0" y="131" type="line"/>
      <point x="326.0" y="131" type="line" smooth="yes"/>
      <point x="319.0" y="131"/>
      <point x="313.0" y="131"/>
      <point x="307.0" y="131" type="curve"/>
    </contour>
  </outline>
</glyph>
<glyph name="naira" format="1">
  <advance width="753"/>
  <unicode hex="20A6"/>
  <outline>
    <contour>
      <point x="291.0" y="36" type="curve" smooth="yes"/>
      <point x="291.0" y="366" type="line"/>
      <point x="462.0" y="159" type="line"/>
      <point x="462.0" y="36" type="line" smooth="yes"/>
      <point x="462.0" y="11"/>
      <point x="473.0" y="0"/>
      <point x="498.0" y="0" type="curve" smooth="yes"/>
      <point x="648.0" y="0" type="line" smooth="yes"/>
      <point x="673.0" y="0"/>
      <point x="684.0" y="11"/>
      <point x="684.0" y="36" type="curve" smooth="yes"/>
      <point x="684.0" y="235" type="line"/>
      <point x="697.0" y="235" type="line" smooth="yes"/>
      <point x="722.0" y="235"/>
      <point x="733.0" y="245"/>
      <point x="733.0" y="271" type="curve" smooth="yes"/>
      <point x="733.0" y="298" type="line" smooth="yes"/>
      <point x="733.0" y="324"/>
      <point x="722.0" y="334"/>
      <point x="697.0" y="334" type="curve" smooth="yes"/>
      <point x="684.0" y="334" type="line"/>
      <point x="684.0" y="375" type="line"/>
      <point x="697.0" y="375" type="line" smooth="yes"/>
      <point x="722.0" y="375"/>
      <point x="733.0" y="385"/>
      <point x="733.0" y="411" type="curve" smooth="yes"/>
      <point x="733.0" y="438" type="line" smooth="yes"/>
      <point x="733.0" y="464"/>
      <point x="722.0" y="474"/>
      <point x="697.0" y="474" type="curve" smooth="yes"/>
      <point x="684.0" y="474" type="line"/>
      <point x="684.0" y="684" type="line" smooth="yes"/>
      <point x="684.0" y="709"/>
      <point x="673.0" y="720"/>
      <point x="648.0" y="720" type="curve" smooth="yes"/>
      <point x="498.0" y="720" type="line" smooth="yes"/>
      <point x="473.0" y="720"/>
      <point x="462.0" y="709"/>
      <point x="462.0" y="684" type="curve" smooth="yes"/>
      <point x="462.0" y="471" type="line"/>
      <point x="268.0" y="693" type="line" smooth="yes"/>
      <point x="251.0" y="713"/>
      <point x="235.0" y="720"/>
      <point x="209.0" y="720" type="curve" smooth="yes"/>
      <point x="105.0" y="720" type="line" smooth="yes"/>
      <point x="80.0" y="720"/>
      <point x="69.0" y="709"/>
      <point x="69.0" y="684" type="curve" smooth="yes"/>
      <point x="69.0" y="474" type="line"/>
      <point x="56.0" y="474" type="line" smooth="yes"/>
      <point x="31.0" y="474"/>
      <point x="20.0" y="463"/>
      <point x="20.0" y="438" type="curve" smooth="yes"/>
      <point x="20.0" y="411" type="line" smooth="yes"/>
      <point x="20.0" y="385"/>
      <point x="31.0" y="375"/>
      <point x="56.0" y="375" type="curve"/>
      <point x="69.0" y="375" type="line"/>
      <point x="69.0" y="334" type="line"/>
      <point x="56.0" y="334" type="line" smooth="yes"/>
      <point x="31.0" y="334"/>
      <point x="20.0" y="323"/>
      <point x="20.0" y="298" type="curve" smooth="yes"/>
      <point x="20.0" y="271" type="line" smooth="yes"/>
      <point x="20.0" y="245"/>
      <point x="31.0" y="235"/>
      <point x="56.0" y="235" type="curve"/>
      <point x="69.0" y="235" type="line"/>
      <point x="69.0" y="36" type="line" smooth="yes"/>
      <point x="69.0" y="11"/>
      <point x="80.0" y="0"/>
      <point x="105.0" y="0" type="curve" smooth="yes"/>
      <point x="255.0" y="0" type="line" smooth="yes"/>
      <point x="280.0" y="0"/>
      <point x="291.0" y="11"/>
    </contour>
    <contour>
      <point x="174.0" y="289" type="line"/>
      <point x="174.0" y="419" type="line"/>
      <point x="116.0" y="419" type="line"/>
      <point x="116.0" y="429" type="line"/>
      <point x="174.0" y="429" type="line"/>
      <point x="174.0" y="619" type="line" smooth="yes"/>
      <point x="174.0" y="627"/>
      <point x="180.0" y="631"/>
      <point x="186.0" y="631" type="curve" smooth="yes"/>
      <point x="192.0" y="631"/>
      <point x="194.0" y="629"/>
      <point x="201.0" y="622" type="curve"/>
      <point x="569.0" y="208" type="line"/>
      <point x="569.0" y="630" type="line"/>
      <point x="579.0" y="630" type="line"/>
      <point x="579.0" y="429" type="line"/>
      <point x="637.0" y="429" type="line"/>
      <point x="637.0" y="419" type="line"/>
      <point x="579.0" y="419" type="line"/>
      <point x="579.0" y="289" type="line"/>
      <point x="637.0" y="289" type="line"/>
      <point x="637.0" y="279" type="line"/>
      <point x="579.0" y="279" type="line"/>
      <point x="579.0" y="90" type="line"/>
      <point x="569.0" y="90" type="line"/>
      <point x="569.0" y="193" type="line"/>
      <point x="191.0" y="617" type="line" smooth="yes"/>
      <point x="189.0" y="619"/>
      <point x="188.0" y="620"/>
      <point x="186.0" y="620" type="curve" smooth="yes"/>
      <point x="184.0" y="620"/>
      <point x="184.0" y="618"/>
      <point x="184.0" y="617" type="curve" smooth="yes"/>
      <point x="184.0" y="90" type="line"/>
      <point x="174.0" y="90" type="line"/>
      <point x="174.0" y="279" type="line"/>
      <point x="116.0" y="279" type="line"/>
      <point x="116.0" y="289" type="line"/>
    </contour>
  </outline>
</glyph>
<glyph name="Euro" format="1">
  <advance width="648"/>
  <unicode hex="20AC"/>
  <outline>
    <contour>
      <point x="604.0" y="36" type="curve" smooth="yes"/>
      <point x="604.0" y="145" type="line" smooth="yes"/>
      <point x="604.0" y="170"/>
      <point x="593.0" y="181"/>
      <point x="568.0" y="181" type="curve" smooth="yes"/>
      <point x="357.0" y="181" type="line" smooth="yes"/>
      <point x="312.0" y="181"/>
      <point x="299.0" y="196"/>
      <point x="296.0" y="219" type="curve"/>
      <point x="476.0" y="219" type="line" smooth="yes"/>
      <point x="493.0" y="219"/>
      <point x="500.0" y="223"/>
      <point x="500.0" y="242" type="curve" smooth="yes"/>
      <point x="500.0" y="314" type="line" smooth="yes"/>
      <point x="500.0" y="333"/>
      <point x="493.0" y="338"/>
      <point x="476.0" y="338" type="curve"/>
      <point x="296.0" y="338" type="line"/>
      <point x="296.0" y="379" type="line"/>
      <point x="476.0" y="379" type="line" smooth="yes"/>
      <point x="493.0" y="379"/>
      <point x="500.0" y="383"/>
      <point x="500.0" y="402" type="curve" smooth="yes"/>
      <point x="500.0" y="474" type="line" smooth="yes"/>
      <point x="500.0" y="493"/>
      <point x="493.0" y="498"/>
      <point x="476.0" y="498" type="curve" smooth="yes"/>
      <point x="297.0" y="498" type="line"/>
      <point x="300.0" y="520"/>
      <point x="313.0" y="537"/>
      <point x="357.0" y="537" type="curve" smooth="yes"/>
      <point x="568.0" y="537" type="line" smooth="yes"/>
      <point x="593.0" y="537"/>
      <point x="604.0" y="548"/>
      <point x="604.0" y="573" type="curve" smooth="yes"/>
      <point x="604.0" y="684" type="line" smooth="yes"/>
      <point x="604.0" y="709"/>
      <point x="593.0" y="720"/>
      <point x="568.0" y="720" type="curve" smooth="yes"/>
      <point x="324.0" y="720" type="line" smooth="yes"/>
      <point x="135.0" y="720"/>
      <point x="78.0" y="637"/>
      <point x="78.0" y="515" type="curve" smooth="yes"/>
      <point x="78.0" y="498" type="line"/>
      <point x="64.0" y="498" type="line" smooth="yes"/>
      <point x="47.0" y="498"/>
      <point x="40.0" y="493"/>
      <point x="40.0" y="474" type="curve" smooth="yes"/>
      <point x="40.0" y="402" type="line" smooth="yes"/>
      <point x="40.0" y="383"/>
      <point x="47.0" y="379"/>
      <point x="64.0" y="379" type="curve"/>
      <point x="78.0" y="379" type="line"/>
      <point x="78.0" y="338" type="line"/>
      <point x="64.0" y="338" type="line" smooth="yes"/>
      <point x="47.0" y="338"/>
      <point x="40.0" y="333"/>
      <point x="40.0" y="314" type="curve" smooth="yes"/>
      <point x="40.0" y="242" type="line" smooth="yes"/>
      <point x="40.0" y="223"/>
      <point x="47.0" y="219"/>
      <point x="64.0" y="219" type="curve"/>
      <point x="78.0" y="219" type="line"/>
      <point x="78.0" y="204" type="line" smooth="yes"/>
      <point x="78.0" y="83"/>
      <point x="135.0" y="0"/>
      <point x="324.0" y="0" type="curve" smooth="yes"/>
      <point x="568.0" y="0" type="line" smooth="yes"/>
      <point x="593.0" y="0"/>
      <point x="604.0" y="11"/>
    </contour>
    <contour>
      <point x="342.0" y="90" type="line" smooth="yes"/>
      <point x="212.0" y="90"/>
      <point x="182.0" y="126"/>
      <point x="182.0" y="219" type="curve" smooth="yes"/>
      <point x="182.0" y="273" type="line"/>
      <point x="110.0" y="273" type="line"/>
      <point x="110.0" y="283" type="line"/>
      <point x="182.0" y="283" type="line"/>
      <point x="182.0" y="433" type="line"/>
      <point x="110.0" y="433" type="line"/>
      <point x="110.0" y="443" type="line"/>
      <point x="182.0" y="443" type="line"/>
      <point x="182.0" y="499" type="line" smooth="yes"/>
      <point x="182.0" y="594"/>
      <point x="214.0" y="630"/>
      <point x="342.0" y="630" type="curve" smooth="yes"/>
      <point x="514.0" y="630" type="line"/>
      <point x="514.0" y="620" type="line"/>
      <point x="342.0" y="620" type="line" smooth="yes"/>
      <point x="224.0" y="620"/>
      <point x="192.0" y="588"/>
      <point x="192.0" y="499" type="curve" smooth="yes"/>
      <point x="192.0" y="443" type="line"/>
      <point x="430.0" y="443" type="line"/>
      <point x="430.0" y="433" type="line"/>
      <point x="192.0" y="433" type="line"/>
      <point x="192.0" y="283" type="line"/>
      <point x="430.0" y="283" type="line"/>
      <point x="430.0" y="273" type="line"/>
      <point x="192.0" y="273" type="line"/>
      <point x="192.0" y="219" type="line" smooth="yes"/>
      <point x="192.0" y="132"/>
      <point x="222.0" y="100"/>
      <point x="342.0" y="100" type="curve" smooth="yes"/>
      <point x="514.0" y="100" type="line"/>
      <point x="514.0" y="90" type="line"/>
    </contour>
  </outline>
</glyph>
<glyph name="peso" format="1">
  <advance width="712.0"/>
  <unicode hex="20B1"/>
  <outline>
    <contour>
      <point x="294.0" y="533" type="line"/>
      <point x="384.0" y="533" type="line" smooth="yes"/>
      <point x="423.0" y="533"/>
      <point x="431.0" y="510"/>
      <point x="431.0" y="484" type="curve" smooth="yes"/>
      <point x="431.0" y="431" type="line" smooth="yes"/>
      <point x="431.0" y="405"/>
      <point x="423.0" y="382"/>
      <point x="384.0" y="382" type="curve" smooth="yes"/>
      <point x="294.0" y="382" type="line"/>
    </contour>
    <contour>
      <point x="296.0" y="36" type="curve" smooth="yes"/>
      <point x="296.0" y="202" type="line"/>
      <point x="411.0" y="202" type="line" smooth="yes"/>
      <point x="552.0" y="202"/>
      <point x="616.0" y="250"/>
      <point x="638.0" y="325" type="curve"/>
      <point x="664.0" y="325" type="line" smooth="yes"/>
      <point x="689.0" y="325"/>
      <point x="700.0" y="335"/>
      <point x="700.0" y="361" type="curve" smooth="yes"/>
      <point x="700.0" y="388" type="line" smooth="yes"/>
      <point x="700.0" y="414"/>
      <point x="689.0" y="424"/>
      <point x="664.0" y="424" type="curve" smooth="yes"/>
      <point x="647.0" y="424" type="line"/>
      <point x="647.0" y="465" type="line"/>
      <point x="664.0" y="465" type="line" smooth="yes"/>
      <point x="689.0" y="465"/>
      <point x="700.0" y="475"/>
      <point x="700.0" y="501" type="curve" smooth="yes"/>
      <point x="700.0" y="528" type="line" smooth="yes"/>
      <point x="700.0" y="554"/>
      <point x="689.0" y="564"/>
      <point x="664.0" y="564" type="curve" smooth="yes"/>
      <point x="645.0" y="564" type="line"/>
      <point x="633.0" y="658"/>
      <point x="572.0" y="720"/>
      <point x="411.0" y="720" type="curve" smooth="yes"/>
      <point x="105.0" y="720" type="line" smooth="yes"/>
      <point x="80.0" y="720"/>
      <point x="69.0" y="709"/>
      <point x="69.0" y="684" type="curve" smooth="yes"/>
      <point x="69.0" y="564" type="line"/>
      <point x="56.0" y="564" type="line" smooth="yes"/>
      <point x="31.0" y="564"/>
      <point x="20.0" y="553"/>
      <point x="20.0" y="528" type="curve" smooth="yes"/>
      <point x="20.0" y="501" type="line" smooth="yes"/>
      <point x="20.0" y="475"/>
      <point x="31.0" y="465"/>
      <point x="56.0" y="465" type="curve"/>
      <point x="69.0" y="465" type="line"/>
      <point x="69.0" y="424" type="line"/>
      <point x="56.0" y="424" type="line" smooth="yes"/>
      <point x="31.0" y="424"/>
      <point x="20.0" y="413"/>
      <point x="20.0" y="388" type="curve" smooth="yes"/>
      <point x="20.0" y="361" type="line" smooth="yes"/>
      <point x="20.0" y="335"/>
      <point x="31.0" y="325"/>
      <point x="56.0" y="325" type="curve"/>
      <point x="69.0" y="325" type="line"/>
      <point x="69.0" y="36" type="line" smooth="yes"/>
      <point x="69.0" y="11"/>
      <point x="80.0" y="0"/>
      <point x="105.0" y="0" type="curve" smooth="yes"/>
      <point x="260.0" y="0" type="line" smooth="yes"/>
      <point x="285.0" y="0"/>
      <point x="296.0" y="11"/>
    </contour>
    <contour>
      <point x="191.0" y="297" type="line"/>
      <point x="397.0" y="297" type="line" smooth="yes"/>
      <point x="515.0" y="297"/>
      <point x="537.0" y="348"/>
      <point x="537.0" y="420" type="curve" smooth="yes"/>
      <point x="537.0" y="494" type="line" smooth="yes"/>
      <point x="537.0" y="566"/>
      <point x="515.0" y="620"/>
      <point x="397.0" y="620" type="curve" smooth="yes"/>
      <point x="191.0" y="620" type="line"/>
    </contour>
    <contour>
      <point x="181.0" y="379" type="line"/>
      <point x="181.0" y="509" type="line"/>
      <point x="123.0" y="509" type="line"/>
      <point x="123.0" y="519" type="line"/>
      <point x="181.0" y="519" type="line"/>
      <point x="181.0" y="630" type="line"/>
      <point x="397.0" y="630" type="line" smooth="yes"/>
      <point x="509.0" y="630"/>
      <point x="540.0" y="584"/>
      <point x="546.0" y="519" type="curve"/>
      <point x="605.0" y="519" type="line"/>
      <point x="605.0" y="509" type="line"/>
      <point x="547.0" y="509" type="line"/>
      <point x="547.0" y="504"/>
      <point x="547.0" y="499"/>
      <point x="547.0" y="494" type="curve" smooth="yes"/>
      <point x="547.0" y="420" type="line" smooth="yes"/>
      <point x="547.0" y="405"/>
      <point x="546.0" y="392"/>
      <point x="544.0" y="379" type="curve"/>
      <point x="605.0" y="379" type="line"/>
      <point x="605.0" y="369" type="line"/>
      <point x="542.0" y="369" type="line"/>
      <point x="530.0" y="319"/>
      <point x="493.0" y="287"/>
      <point x="397.0" y="287" type="curve" smooth="yes"/>
      <point x="191.0" y="287" type="line"/>
      <point x="191.0" y="90" type="line"/>
      <point x="181.0" y="90" type="line"/>
      <point x="181.0" y="369" type="line"/>
      <point x="123.0" y="369" type="line"/>
      <point x="123.0" y="379" type="line"/>
    </contour>
  </outline>
</glyph>
<glyph name="trademark" format="1">
  <advance width="903"/>
  <unicode hex="2122"/>
  <outline>
    <contour>
      <point x="244.0" y="287" type="line"/>
      <point x="262.0" y="287"/>
      <point x="271.0" y="296"/>
      <point x="271.0" y="313" type="curve"/>
      <point x="271.0" y="597" type="line"/>
      <point x="352.0" y="597" type="line"/>
      <point x="370.0" y="597"/>
      <point x="379.0" y="606"/>
      <point x="379.0" y="623" type="curve"/>
      <point x="379.0" y="694" type="line"/>
      <point x="379.0" y="712"/>
      <point x="370.0" y="720"/>
      <point x="352.0" y="720" type="curve"/>
      <point x="42.0" y="720" type="line"/>
      <point x="23.0" y="720"/>
      <point x="16.0" y="712"/>
      <point x="16.0" y="694" type="curve"/>
      <point x="16.0" y="623" type="line"/>
      <point x="16.0" y="606"/>
      <point x="23.0" y="597"/>
      <point x="42.0" y="597" type="curve"/>
      <point x="124.0" y="597" type="line"/>
      <point x="124.0" y="313" type="line"/>
      <point x="124.0" y="296"/>
      <point x="131.0" y="287"/>
      <point x="149.0" y="287" type="curve"/>
    </contour>
    <contour>
      <point x="541.0" y="287" type="line"/>
      <point x="558.0" y="287"/>
      <point x="567.0" y="296"/>
      <point x="567.0" y="313" type="curve"/>
      <point x="567.0" y="503" type="line"/>
      <point x="593.0" y="454" type="line"/>
      <point x="600.0" y="439"/>
      <point x="611.0" y="432"/>
      <point x="627.0" y="432" type="curve"/>
      <point x="646.0" y="432" type="line"/>
      <point x="662.0" y="432"/>
      <point x="673.0" y="439"/>
      <point x="681.0" y="454" type="curve"/>
      <point x="707.0" y="503" type="line"/>
      <point x="707.0" y="313" type="line"/>
      <point x="707.0" y="296"/>
      <point x="714.0" y="287"/>
      <point x="733.0" y="287" type="curve"/>
      <point x="828.0" y="287" type="line"/>
      <point x="845.0" y="287"/>
      <point x="854.0" y="296"/>
      <point x="854.0" y="313" type="curve"/>
      <point x="854.0" y="694" type="line"/>
      <point x="854.0" y="712"/>
      <point x="845.0" y="720"/>
      <point x="828.0" y="720" type="curve"/>
      <point x="733.0" y="720" type="line"/>
      <point x="718.0" y="720"/>
      <point x="709.0" y="714"/>
      <point x="701.0" y="700" type="curve" smooth="yes"/>
      <point x="686.0" y="670"/>
      <point x="665.0" y="634"/>
      <point x="649.0" y="604" type="curve" smooth="yes"/>
      <point x="647.0" y="601"/>
      <point x="644.0" y="597"/>
      <point x="643.0" y="597" type="curve"/>
      <point x="638.0" y="597" type="line"/>
      <point x="635.0" y="597"/>
      <point x="634.0" y="599"/>
      <point x="631.0" y="604" type="curve" smooth="yes"/>
      <point x="613.0" y="634"/>
      <point x="595.0" y="669"/>
      <point x="578.0" y="700" type="curve" smooth="yes"/>
      <point x="570.0" y="713"/>
      <point x="561.0" y="720"/>
      <point x="546.0" y="720" type="curve"/>
      <point x="452.0" y="720" type="line"/>
      <point x="435.0" y="720"/>
      <point x="426.0" y="712"/>
      <point x="426.0" y="694" type="curve"/>
      <point x="426.0" y="313" type="line"/>
      <point x="426.0" y="296"/>
      <point x="435.0" y="287"/>
      <point x="452.0" y="287" type="curve"/>
    </contour>
    <contour>
      <point x="193.0" y="349" type="line"/>
      <point x="193.0" y="653" type="line"/>
      <point x="58.0" y="653" type="line"/>
      <point x="58.0" y="663" type="line"/>
      <point x="341.0" y="663" type="line"/>
      <point x="341.0" y="653" type="line"/>
      <point x="203.0" y="653" type="line"/>
      <point x="203.0" y="349" type="line"/>
    </contour>
    <contour>
      <point x="501.0" y="349" type="line"/>
      <point x="491.0" y="349" type="line"/>
      <point x="491.0" y="644" type="line" smooth="yes"/>
      <point x="491.0" y="656"/>
      <point x="500.0" y="663"/>
      <point x="509.0" y="663" type="curve" smooth="yes"/>
      <point x="516.0" y="663" type="line" smooth="yes"/>
      <point x="523.0" y="663"/>
      <point x="531.0" y="661"/>
      <point x="537.0" y="652" type="curve" smooth="yes"/>
      <point x="629.0" y="523" type="line" smooth="yes"/>
      <point x="632.0" y="519"/>
      <point x="634.0" y="517"/>
      <point x="637.0" y="517" type="curve" smooth="yes"/>
      <point x="639.0" y="517" type="line" smooth="yes"/>
      <point x="644.0" y="517"/>
      <point x="645.0" y="521"/>
      <point x="648.0" y="524" type="curve"/>
      <point x="739.0" y="652" type="line" smooth="yes"/>
      <point x="745.0" y="661"/>
      <point x="753.0" y="663"/>
      <point x="760.0" y="663" type="curve" smooth="yes"/>
      <point x="767.0" y="663" type="line" smooth="yes"/>
      <point x="777.0" y="663"/>
      <point x="785.0" y="656"/>
      <point x="785.0" y="644" type="curve" smooth="yes"/>
      <point x="785.0" y="349" type="line"/>
      <point x="775.0" y="349" type="line"/>
      <point x="775.0" y="644" type="line" smooth="yes"/>
      <point x="775.0" y="650"/>
      <point x="772.0" y="653"/>
      <point x="767.0" y="653" type="curve" smooth="yes"/>
      <point x="760.0" y="653" type="line" smooth="yes"/>
      <point x="755.0" y="653"/>
      <point x="751.0" y="651"/>
      <point x="747.0" y="646" type="curve" smooth="yes"/>
      <point x="656.0" y="518" type="line"/>
      <point x="651.0" y="511"/>
      <point x="648.0" y="507"/>
      <point x="639.0" y="507" type="curve" smooth="yes"/>
      <point x="637.0" y="507" type="line" smooth="yes"/>
      <point x="630.0" y="507"/>
      <point x="626.0" y="509"/>
      <point x="621.0" y="517" type="curve" smooth="yes"/>
      <point x="529.0" y="646" type="line" smooth="yes"/>
      <point x="525.0" y="651"/>
      <point x="521.0" y="653"/>
      <point x="516.0" y="653" type="curve" smooth="yes"/>
      <point x="509.0" y="653" type="line" smooth="yes"/>
      <point x="505.0" y="653"/>
      <point x="501.0" y="650"/>
      <point x="501.0" y="644" type="curve" smooth="yes"/>
    </contour>
  </outline>
</glyph>
<glyph name="arrowdown" format="1">
  <advance width="1000"/>
  <unicode hex="2193"/>
  <outline>
    <contour>
      <point x="401.0" y="650" type="curve" smooth="yes"/>
      <point x="412.0" y="470" type="line"/>
      <point x="240.0" y="470" type="line" smooth="yes"/>
      <point x="218.0" y="470"/>
      <point x="205.0" y="439"/>
      <point x="220.0" y="417" type="curve" smooth="yes"/>
      <point x="454.0" y="70" type="line" smooth="yes"/>
      <point x="466.0" y="51"/>
      <point x="479.0" y="39"/>
      <point x="500.0" y="39" type="curve"/>
      <point x="522.0" y="39"/>
      <point x="535.0" y="51"/>
      <point x="547.0" y="70" type="curve" smooth="yes"/>
      <point x="781.0" y="417" type="line" smooth="yes"/>
      <point x="796.0" y="439"/>
      <point x="784.0" y="470"/>
      <point x="761.0" y="470" type="curve" smooth="yes"/>
      <point x="589.0" y="470" type="line"/>
      <point x="600.0" y="650" type="line" smooth="yes"/>
      <point x="601.0" y="672"/>
      <point x="589.0" y="681"/>
      <point x="567.0" y="681" type="curve" smooth="yes"/>
      <point x="434.0" y="681" type="line" smooth="yes"/>
      <point x="412.0" y="681"/>
      <point x="400.0" y="672"/>
    </contour>
    <contour>
      <point x="501.0" y="171" type="line"/>
      <point x="363.0" y="375" type="line"/>
      <point x="496.0" y="375" type="line"/>
      <point x="496.0" y="591" type="line"/>
      <point x="506.0" y="591" type="line"/>
      <point x="506.0" y="375" type="line"/>
      <point x="638.0" y="375" type="line"/>
    </contour>
    <contour>
      <point x="620.0" y="365" type="line"/>
      <point x="381.0" y="365" type="line"/>
      <point x="501.0" y="189" type="line"/>
    </contour>
  </outline>
</glyph>
<glyph name="arrowupleft" format="1">
  <advance width="1000"/>
  <unicode hex="2196"/>
  <outline>
    <contour>
      <point x="657.0" y="109" type="curve" smooth="yes"/>
      <point x="751.0" y="204" type="line" smooth="yes"/>
      <point x="767.0" y="218"/>
      <point x="769.0" y="234"/>
      <point x="752.0" y="249" type="curve" smooth="yes"/>
      <point x="618.0" y="367" type="line"/>
      <point x="739.0" y="489" type="line" smooth="yes"/>
      <point x="755.0" y="505"/>
      <point x="741.0" y="536"/>
      <point x="715.0" y="542" type="curve" smooth="yes"/>
      <point x="305.0" y="621" type="line" smooth="yes"/>
      <point x="283.0" y="626"/>
      <point x="265.0" y="626"/>
      <point x="249.0" y="610" type="curve"/>
      <point x="234.0" y="595"/>
      <point x="234.0" y="577"/>
      <point x="239.0" y="555" type="curve" smooth="yes"/>
      <point x="318.0" y="145" type="line" smooth="yes"/>
      <point x="324.0" y="119"/>
      <point x="355.0" y="105"/>
      <point x="371.0" y="121" type="curve" smooth="yes"/>
      <point x="493.0" y="242" type="line"/>
      <point x="611.0" y="108" type="line" smooth="yes"/>
      <point x="627.0" y="91"/>
      <point x="642.0" y="93"/>
    </contour>
    <contour>
      <point x="637.0" y="216" type="line"/>
      <point x="484.0" y="369" type="line"/>
      <point x="390.0" y="275" type="line"/>
      <point x="343.0" y="517" type="line"/>
      <point x="584.0" y="469" type="line"/>
      <point x="491.0" y="376" type="line"/>
      <point x="644.0" y="223" type="line"/>
    </contour>
    <contour>
      <point x="396.0" y="295" type="line"/>
      <point x="564.0" y="463" type="line"/>
      <point x="356.0" y="504" type="line"/>
    </contour>
  </outline>
</glyph>
<glyph name="arrowdownleft" format="1">
  <advance width="1000"/>
  <unicode hex="2199"/>
  <outline>
    <contour>
      <point x="751.0" y="518" type="curve" smooth="yes"/>
      <point x="656.0" y="611" type="line" smooth="yes"/>
      <point x="642.0" y="627"/>
      <point x="626.0" y="629"/>
      <point x="611.0" y="612" type="curve" smooth="yes"/>
      <point x="493.0" y="478" type="line"/>
      <point x="371.0" y="599" type="line" smooth="yes"/>
      <point x="355.0" y="615"/>
      <point x="324.0" y="602"/>
      <point x="318.0" y="575" type="curve" smooth="yes"/>
      <point x="239.0" y="165" type="line" smooth="yes"/>
      <point x="234.0" y="143"/>
      <point x="234.0" y="125"/>
      <point x="250.0" y="109" type="curve"/>
      <point x="265.0" y="94"/>
      <point x="283.0" y="94"/>
      <point x="305.0" y="99" type="curve" smooth="yes"/>
      <point x="715.0" y="178" type="line" smooth="yes"/>
      <point x="741.0" y="184"/>
      <point x="755.0" y="215"/>
      <point x="739.0" y="231" type="curve" smooth="yes"/>
      <point x="618.0" y="353" type="line"/>
      <point x="752.0" y="471" type="line" smooth="yes"/>
      <point x="769.0" y="487"/>
      <point x="767.0" y="502"/>
    </contour>
    <contour>
      <point x="352.0" y="205" type="line"/>
      <point x="399.0" y="447" type="line"/>
      <point x="493.0" y="353" type="line"/>
      <point x="646.0" y="506" type="line"/>
      <point x="653.0" y="499" type="line"/>
      <point x="500.0" y="346" type="line"/>
      <point x="593.0" y="253" type="line"/>
    </contour>
    <contour>
      <point x="365.0" y="218" type="line"/>
      <point x="573.0" y="259" type="line"/>
      <point x="405.0" y="427" type="line"/>
    </contour>
  </outline>
</glyph>
<glyph name="uni21AA" format="1">
  <advance width="1000"/>
  <unicode hex="21AA"/>
  <outline>
    <contour>
      <point x="509.0" y="-34" type="curve" smooth="yes"/>
      <point x="833.0" y="184" type="line" smooth="yes"/>
      <point x="851.0" y="194"/>
      <point x="863.0" y="206"/>
      <point x="863.0" y="226" type="curve"/>
      <point x="863.0" y="246"/>
      <point x="851.0" y="258"/>
      <point x="833.0" y="269" type="curve" smooth="yes"/>
      <point x="509.0" y="487" type="line" smooth="yes"/>
      <point x="487.0" y="501"/>
      <point x="455.0" y="488"/>
      <point x="457.0" y="468" type="curve" smooth="yes"/>
      <point x="498.0" y="309" type="line"/>
      <point x="412.0" y="309" type="line" smooth="yes"/>
      <point x="367.0" y="309"/>
      <point x="345.0" y="326"/>
      <point x="345.0" y="370" type="curve" smooth="yes"/>
      <point x="345.0" y="533" type="line" smooth="yes"/>
      <point x="345.0" y="577"/>
      <point x="367.0" y="594"/>
      <point x="412.0" y="594" type="curve" smooth="yes"/>
      <point x="735.0" y="594" type="line" smooth="yes"/>
      <point x="755.0" y="594"/>
      <point x="765.0" y="601"/>
      <point x="765.0" y="624" type="curve" smooth="yes"/>
      <point x="765.0" y="729" type="line" smooth="yes"/>
      <point x="765.0" y="750"/>
      <point x="755.0" y="760"/>
      <point x="735.0" y="760" type="curve" smooth="yes"/>
      <point x="396.0" y="760" type="line" smooth="yes"/>
      <point x="228.0" y="760"/>
      <point x="178.0" y="689"/>
      <point x="178.0" y="582" type="curve" smooth="yes"/>
      <point x="178.0" y="321" type="line" smooth="yes"/>
      <point x="178.0" y="214"/>
      <point x="228.0" y="143"/>
      <point x="396.0" y="143" type="curve" smooth="yes"/>
      <point x="498.0" y="143" type="line"/>
      <point x="457.0" y="-15" type="line" smooth="yes"/>
      <point x="455.0" y="-35"/>
      <point x="487.0" y="-49"/>
    </contour>
    <contour>
      <point x="590.0" y="136" type="line"/>
      <point x="590.0" y="221" type="line"/>
      <point x="392.0" y="221" type="line" smooth="yes"/>
      <point x="310.0" y="221"/>
      <point x="257.0" y="267"/>
      <point x="257.0" y="345" type="curve" smooth="yes"/>
      <point x="257.0" y="552" type="line" smooth="yes"/>
      <point x="257.0" y="630"/>
      <point x="308.0" y="682"/>
      <point x="400.0" y="682" type="curve" smooth="yes"/>
      <point x="675.0" y="682" type="line"/>
      <point x="675.0" y="672" type="line"/>
      <point x="400.0" y="672" type="line" smooth="yes"/>
      <point x="316.0" y="672"/>
      <point x="267.0" y="624"/>
      <point x="267.0" y="552" type="curve" smooth="yes"/>
      <point x="267.0" y="345" type="line" smooth="yes"/>
      <point x="267.0" y="273"/>
      <point x="316.0" y="231"/>
      <point x="392.0" y="231" type="curve" smooth="yes"/>
      <point x="590.0" y="231" type="line"/>
      <point x="590.0" y="318" type="line"/>
      <point x="726.0" y="227" type="line"/>
    </contour>
    <contour>
      <point x="600.0" y="154" type="line"/>
      <point x="708.0" y="227" type="line"/>
      <point x="600.0" y="300" type="line"/>
    </contour>
  </outline>
</glyph>
<glyph name="radical" format="1">
  <advance width="741"/>
  <unicode hex="221A"/>
  <outline>
    <contour>
      <point x="65.0" y="298" type="curve"/>
      <point x="128.0" y="298" type="line"/>
      <point x="229.0" y="33" type="line"/>
      <point x="240.0" y="9"/>
      <point x="253.0" y="0"/>
      <point x="279.0" y="0" type="curve" smooth="yes"/>
      <point x="500.0" y="0" type="line" smooth="yes"/>
      <point x="526.0" y="0"/>
      <point x="540.0" y="9"/>
      <point x="551.0" y="33" type="curve"/>
      <point x="729.0" y="774" type="line" smooth="yes"/>
      <point x="736.0" y="798"/>
      <point x="724.0" y="810"/>
      <point x="699.0" y="810" type="curve" smooth="yes"/>
      <point x="559.0" y="810" type="line" smooth="yes"/>
      <point x="534.0" y="810"/>
      <point x="523.0" y="798"/>
      <point x="517.0" y="774" type="curve" smooth="yes"/>
      <point x="404.0" y="258" type="line" smooth="yes"/>
      <point x="401.0" y="244"/>
      <point x="396.0" y="241"/>
      <point x="384.0" y="241" type="curve" smooth="yes"/>
      <point x="379.0" y="241" type="line" smooth="yes"/>
      <point x="367.0" y="241"/>
      <point x="364.0" y="245"/>
      <point x="359.0" y="258" type="curve" smooth="yes"/>
      <point x="289.0" y="461" type="line" smooth="yes"/>
      <point x="280.0" y="484"/>
      <point x="272.0" y="497"/>
      <point x="247.0" y="497" type="curve" smooth="yes"/>
      <point x="65.0" y="497" type="line" smooth="yes"/>
      <point x="40.0" y="497"/>
      <point x="29.0" y="486"/>
      <point x="29.0" y="461" type="curve" smooth="yes"/>
      <point x="29.0" y="334" type="line" smooth="yes"/>
      <point x="29.0" y="308"/>
      <point x="40.0" y="298"/>
    </contour>
    <contour>
      <point x="119.0" y="392" type="line"/>
      <point x="119.0" y="402" type="line"/>
      <point x="188.0" y="402" type="line" smooth="yes"/>
      <point x="202.0" y="402"/>
      <point x="207.0" y="398"/>
      <point x="212.0" y="385" type="curve" smooth="yes"/>
      <point x="311.0" y="111" type="line" smooth="yes"/>
      <point x="314.0" y="101"/>
      <point x="318.0" y="95"/>
      <point x="329.0" y="95" type="curve" smooth="yes"/>
      <point x="444.0" y="95" type="line" smooth="yes"/>
      <point x="454.0" y="95"/>
      <point x="461.0" y="98"/>
      <point x="464.0" y="111" type="curve" smooth="yes"/>
      <point x="606.0" y="720" type="line"/>
      <point x="616.0" y="720" type="line"/>
      <point x="474.0" y="109" type="line" smooth="yes"/>
      <point x="470.0" y="90"/>
      <point x="458.0" y="85"/>
      <point x="444.0" y="85" type="curve" smooth="yes"/>
      <point x="329.0" y="85" type="line" smooth="yes"/>
      <point x="312.0" y="85"/>
      <point x="306.0" y="93"/>
      <point x="301.0" y="107" type="curve" smooth="yes"/>
      <point x="202.0" y="381" type="line" smooth="yes"/>
      <point x="199.0" y="390"/>
      <point x="196.0" y="392"/>
      <point x="188.0" y="392" type="curve" smooth="yes"/>
    </contour>
  </outline>
</glyph>
<glyph name="blackleftpointingtriangle" format="1">
  <advance width="1000"/>
  <unicode hex="25C0"/>
  <outline>
    <contour>
      <point x="726.0" y="114" type="curve"/>
      <point x="726.0" y="615" type="line"/>
      <point x="726.0" y="638"/>
      <point x="695.0" y="649"/>
      <point x="673.0" y="635" type="curve" smooth="yes"/>
      <point x="306.0" y="411" type="line" smooth="yes"/>
      <point x="287.0" y="399"/>
      <point x="275.0" y="386"/>
      <point x="275.0" y="364" type="curve"/>
      <point x="275.0" y="343"/>
      <point x="287.0" y="330"/>
      <point x="306.0" y="318" type="curve" smooth="yes"/>
      <point x="673.0" y="94" type="line" smooth="yes"/>
      <point x="695.0" y="80"/>
      <point x="726.0" y="92"/>
    </contour>
    <contour>
      <point x="469.0" y="365" type="line"/>
      <point x="619.0" y="454" type="line"/>
      <point x="619.0" y="276" type="line"/>
    </contour>
    <contour>
      <point x="609.0" y="294" type="line"/>
      <point x="609.0" y="436" type="line"/>
      <point x="489.0" y="365" type="line"/>
    </contour>
  </outline>
</glyph>
<glyph name="lozenge" format="1">
  <advance width="731"/>
  <unicode hex="25CA"/>
  <outline>
    <contour>
      <point x="250.0" y="720" type="line" smooth="yes"/>
      <point x="224.0" y="720"/>
      <point x="210.0" y="711"/>
      <point x="199.0" y="687" type="curve" smooth="yes"/>
      <point x="83.0" y="429" type="line"/>
      <point x="71.0" y="402"/>
      <point x="69.0" y="392"/>
      <point x="69.0" y="371" type="curve" smooth="yes"/>
      <point x="69.0" y="348" type="line" smooth="yes"/>
      <point x="69.0" y="327"/>
      <point x="71.0" y="317"/>
      <point x="83.0" y="290" type="curve"/>
      <point x="199.0" y="33" type="line" smooth="yes"/>
      <point x="210.0" y="9"/>
      <point x="223.0" y="0"/>
      <point x="249.0" y="0" type="curve" smooth="yes"/>
      <point x="480.0" y="0" type="line" smooth="yes"/>
      <point x="506.0" y="0"/>
      <point x="520.0" y="9"/>
      <point x="531.0" y="33" type="curve" smooth="yes"/>
      <point x="647.0" y="290" type="line" smooth="yes"/>
      <point x="659.0" y="317"/>
      <point x="661.0" y="327"/>
      <point x="661.0" y="348" type="curve" smooth="yes"/>
      <point x="661.0" y="371" type="line" smooth="yes"/>
      <point x="661.0" y="392"/>
      <point x="659.0" y="402"/>
      <point x="647.0" y="429" type="curve" smooth="yes"/>
      <point x="531.0" y="687" type="line" smooth="yes"/>
      <point x="520.0" y="711"/>
      <point x="507.0" y="720"/>
      <point x="481.0" y="720" type="curve" smooth="yes"/>
    </contour>
    <contour>
      <point x="445.0" y="359" type="line"/>
      <point x="387.0" y="220" type="line" smooth="yes"/>
      <point x="381.0" y="207"/>
      <point x="379.0" y="203"/>
      <point x="367.0" y="203" type="curve" smooth="yes"/>
      <point x="362.0" y="203" type="line" smooth="yes"/>
      <point x="350.0" y="203"/>
      <point x="348.0" y="207"/>
      <point x="342.0" y="220" type="curve" smooth="yes"/>
      <point x="284.0" y="361" type="line"/>
      <point x="342.0" y="500" type="line" smooth="yes"/>
      <point x="348.0" y="513"/>
      <point x="350.0" y="517"/>
      <point x="362.0" y="517" type="curve" smooth="yes"/>
      <point x="367.0" y="517" type="line" smooth="yes"/>
      <point x="379.0" y="517"/>
      <point x="381.0" y="513"/>
      <point x="387.0" y="500" type="curve" smooth="yes"/>
    </contour>
    <contour>
      <point x="268.0" y="599" type="line" smooth="yes"/>
      <point x="276.0" y="616"/>
      <point x="286.0" y="623"/>
      <point x="305.0" y="623" type="curve" smooth="yes"/>
      <point x="425.0" y="623" type="line" smooth="yes"/>
      <point x="443.0" y="623"/>
      <point x="453.0" y="616"/>
      <point x="461.0" y="599" type="curve" smooth="yes"/>
      <point x="549.0" y="405" type="line" smooth="yes"/>
      <point x="557.0" y="387"/>
      <point x="558.0" y="381"/>
      <point x="558.0" y="367" type="curve" smooth="yes"/>
      <point x="558.0" y="353" type="line" smooth="yes"/>
      <point x="558.0" y="338"/>
      <point x="557.0" y="332"/>
      <point x="549.0" y="314" type="curve" smooth="yes"/>
      <point x="462.0" y="121" type="line" smooth="yes"/>
      <point x="454.0" y="104"/>
      <point x="444.0" y="97"/>
      <point x="425.0" y="97" type="curve" smooth="yes"/>
      <point x="304.0" y="97" type="line" smooth="yes"/>
      <point x="286.0" y="97"/>
      <point x="276.0" y="104"/>
      <point x="268.0" y="121" type="curve" smooth="yes"/>
      <point x="181.0" y="314" type="line" smooth="yes"/>
      <point x="173.0" y="332"/>
      <point x="172.0" y="338"/>
      <point x="172.0" y="353" type="curve" smooth="yes"/>
      <point x="172.0" y="367" type="line" smooth="yes"/>
      <point x="172.0" y="381"/>
      <point x="173.0" y="387"/>
      <point x="181.0" y="405" type="curve" smooth="yes"/>
    </contour>
    <contour>
      <point x="425.0" y="613" type="curve" smooth="yes"/>
      <point x="305.0" y="613" type="line" smooth="yes"/>
      <point x="290.0" y="613"/>
      <point x="284.0" y="608"/>
      <point x="278.0" y="595" type="curve" smooth="yes"/>
      <point x="191.0" y="401" type="line" smooth="yes"/>
      <point x="183.0" y="385"/>
      <point x="182.0" y="379"/>
      <point x="182.0" y="367" type="curve" smooth="yes"/>
      <point x="182.0" y="353" type="line" smooth="yes"/>
      <point x="182.0" y="340"/>
      <point x="183.0" y="334"/>
      <point x="191.0" y="318" type="curve" smooth="yes"/>
      <point x="278.0" y="125" type="line" smooth="yes"/>
      <point x="284.0" y="112"/>
      <point x="290.0" y="107"/>
      <point x="304.0" y="107" type="curve" smooth="yes"/>
      <point x="425.0" y="107" type="line" smooth="yes"/>
      <point x="440.0" y="107"/>
      <point x="446.0" y="112"/>
      <point x="452.0" y="125" type="curve" smooth="yes"/>
      <point x="539.0" y="318" type="line" smooth="yes"/>
      <point x="547.0" y="334"/>
      <point x="548.0" y="340"/>
      <point x="548.0" y="353" type="curve" smooth="yes"/>
      <point x="548.0" y="367" type="line" smooth="yes"/>
      <point x="548.0" y="379"/>
      <point x="547.0" y="385"/>
      <point x="539.0" y="401" type="curve" smooth="yes"/>
      <point x="451.0" y="595" type="line" smooth="yes"/>
      <point x="445.0" y="608"/>
      <point x="439.0" y="613"/>
    </contour>
  </outline>
</glyph>
<glyph name="uni25DE" format="1">
  <advance width="1000.0"/>
  <unicode hex="25DE"/>
  <outline>
    <contour>
      <point x="-40.0" y="-144" type="line" smooth="yes"/>
      <point x="-40.0" y="-169"/>
      <point x="-29.0" y="-180"/>
      <point x="-4.0" y="-180" type="curve" smooth="yes"/>
      <point x="129.0" y="-180" type="line" smooth="yes"/>
      <point x="739.0" y="-180"/>
      <point x="1040.0" y="121"/>
      <point x="1040.0" y="731" type="curve" smooth="yes"/>
      <point x="1040.0" y="864" type="line" smooth="yes"/>
      <point x="1040.0" y="889"/>
      <point x="1029.0" y="900"/>
      <point x="1004.0" y="900" type="curve" smooth="yes"/>
      <point x="-10.0" y="900" type="line" smooth="yes"/>
      <point x="-27.0" y="900"/>
      <point x="-40.0" y="887"/>
      <point x="-40.0" y="870" type="curve" smooth="yes"/>
    </contour>
    <contour>
      <point x="-20.0" y="-160" type="line"/>
      <point x="-20.0" y="880" type="line"/>
      <point x="1020.0" y="880" type="line"/>
      <point x="1020.0" y="731" type="line" smooth="yes"/>
      <point x="1020.0" y="135"/>
      <point x="725.0" y="-160"/>
      <point x="129.0" y="-160" type="curve" smooth="yes"/>
    </contour>
    <contour>
      <point x="129.0" y="-150" type="line" smooth="yes"/>
      <point x="719.0" y="-150"/>
      <point x="1010.0" y="141"/>
      <point x="1010.0" y="731" type="curve"/>
      <point x="1010.0" y="870" type="line"/>
      <point x="-10.0" y="870" type="line"/>
      <point x="-10.0" y="-150" type="line"/>
    </contour>
  </outline>
</glyph>
<glyph name="uni2B24" format="1">
  <advance width="1280"/>
  <unicode hex="2B24"/>
  <outline>
    <contour>
      <point x="70.0" y="350" type="curve" smooth="yes"/>
      <point x="70.0" y="15"/>
      <point x="305.0" y="-220"/>
      <point x="640.0" y="-220" type="curve"/>
      <point x="975.0" y="-220"/>
      <point x="1210.0" y="15"/>
      <point x="1210.0" y="350" type="curve" smooth="yes"/>
      <point x="1210.0" y="685"/>
      <point x="975.0" y="920"/>
      <point x="640.0" y="920" type="curve"/>
      <point x="305.0" y="920"/>
      <point x="70.0" y="685"/>
    </contour>
    <contour>
      <point x="90.0" y="350" type="curve" smooth="yes"/>
      <point x="90.0" y="673"/>
      <point x="317.0" y="900"/>
      <point x="640.0" y="900" type="curve" smooth="yes"/>
      <point x="963.0" y="900"/>
      <point x="1190.0" y="673"/>
      <point x="1190.0" y="350" type="curve" smooth="yes"/>
      <point x="1190.0" y="27"/>
      <point x="963.0" y="-200"/>
      <point x="640.0" y="-200" type="curve" smooth="yes"/>
      <point x="317.0" y="-200"/>
      <point x="90.0" y="27"/>
    </contour>
    <contour>
      <point x="1180.0" y="350" type="curve" smooth="yes"/>
      <point x="1180.0" y="667"/>
      <point x="957.0" y="890"/>
      <point x="640.0" y="890" type="curve" smooth="yes"/>
      <point x="323.0" y="890"/>
      <point x="100.0" y="667"/>
      <point x="100.0" y="350" type="curve" smooth="yes"/>
      <point x="100.0" y="33"/>
      <point x="323.0" y="-190"/>
      <point x="640.0" y="-190" type="curve" smooth="yes"/>
      <point x="957.0" y="-190"/>
      <point x="1180.0" y="33"/>
    </contour>
  </outline>
</glyph>
<glyph name="percent.v" format="1">
  <advance width="1000"/>
  <unicode hex="FF05"/>
  <outline>
    <contour>
      <point x="654.0" y="-5" type="curve" smooth="yes"/>
      <point x="803.0" y="-5"/>
      <point x="821.0" y="43"/>
      <point x="821.0" y="114" type="curve"/>
      <point x="821.0" y="254" type="line" smooth="yes"/>
      <point x="821.0" y="325"/>
      <point x="789.0" y="373"/>
      <point x="654.0" y="373" type="curve" smooth="yes"/>
      <point x="627.0" y="373"/>
      <point x="603.0" y="371"/>
      <point x="584.0" y="367" type="curve"/>
      <point x="795.0" y="684" type="line" smooth="yes"/>
      <point x="809.0" y="705"/>
      <point x="799.0" y="720"/>
      <point x="774.0" y="720" type="curve" smooth="yes"/>
      <point x="689.0" y="720" type="line" smooth="yes"/>
      <point x="664.0" y="720"/>
      <point x="652.0" y="705"/>
      <point x="638.0" y="684" type="curve" smooth="yes"/>
      <point x="514.0" y="498" type="line"/>
      <point x="514.0" y="606" type="line" smooth="yes"/>
      <point x="514.0" y="677"/>
      <point x="482.0" y="725"/>
      <point x="347.0" y="725" type="curve" smooth="yes"/>
      <point x="212.0" y="725"/>
      <point x="178.0" y="677"/>
      <point x="178.0" y="606" type="curve" smooth="yes"/>
      <point x="178.0" y="466" type="line" smooth="yes"/>
      <point x="178.0" y="395"/>
      <point x="212.0" y="347"/>
      <point x="347.0" y="347" type="curve" smooth="yes"/>
      <point x="374.0" y="347"/>
      <point x="398.0" y="349"/>
      <point x="417.0" y="353" type="curve"/>
      <point x="206.0" y="36" type="line" smooth="yes"/>
      <point x="192.0" y="15"/>
      <point x="202.0" y="0"/>
      <point x="227.0" y="0" type="curve" smooth="yes"/>
      <point x="312.0" y="0" type="line" smooth="yes"/>
      <point x="337.0" y="0"/>
      <point x="349.0" y="15"/>
      <point x="363.0" y="36" type="curve" smooth="yes"/>
      <point x="485.0" y="219" type="line"/>
      <point x="485.0" y="114" type="line" smooth="yes"/>
      <point x="485.0" y="43"/>
      <point x="519.0" y="-5"/>
    </contour>
    <contour>
      <point x="323.0" y="497" type="curve"/>
      <point x="323.0" y="575" type="line" smooth="yes"/>
      <point x="323.0" y="583"/>
      <point x="326.0" y="592"/>
      <point x="347.0" y="592" type="curve" smooth="yes"/>
      <point x="367.0" y="592"/>
      <point x="370.0" y="583"/>
      <point x="370.0" y="575" type="curve" smooth="yes"/>
      <point x="370.0" y="497" type="line" smooth="yes"/>
      <point x="370.0" y="487"/>
      <point x="367.0" y="479"/>
      <point x="347.0" y="479" type="curve" smooth="yes"/>
      <point x="327.0" y="479"/>
      <point x="323.0" y="487"/>
    </contour>
    <contour>
      <point x="630.0" y="145" type="curve"/>
      <point x="630.0" y="223" type="line" smooth="yes"/>
      <point x="630.0" y="231"/>
      <point x="633.0" y="240"/>
      <point x="654.0" y="240" type="curve" smooth="yes"/>
      <point x="674.0" y="240"/>
      <point x="677.0" y="231"/>
      <point x="677.0" y="223" type="curve" smooth="yes"/>
      <point x="677.0" y="145" type="line" smooth="yes"/>
      <point x="677.0" y="135"/>
      <point x="674.0" y="127"/>
      <point x="654.0" y="127" type="curve" smooth="yes"/>
      <point x="634.0" y="127"/>
      <point x="630.0" y="135"/>
    </contour>
    <contour>
      <point x="447.0" y="584" type="curve" smooth="yes"/>
      <point x="447.0" y="487" type="line" smooth="yes"/>
      <point x="447.0" y="429"/>
      <point x="419.0" y="408"/>
      <point x="347.0" y="408" type="curve" smooth="yes"/>
      <point x="276.0" y="408"/>
      <point x="246.0" y="429"/>
      <point x="246.0" y="487" type="curve" smooth="yes"/>
      <point x="246.0" y="584" type="line" smooth="yes"/>
      <point x="246.0" y="642"/>
      <point x="276.0" y="664"/>
      <point x="347.0" y="664" type="curve" smooth="yes"/>
      <point x="419.0" y="664"/>
      <point x="447.0" y="642"/>
    </contour>
    <contour>
      <point x="347.0" y="418" type="curve" smooth="yes"/>
      <point x="409.0" y="418"/>
      <point x="437.0" y="435"/>
      <point x="437.0" y="487" type="curve" smooth="yes"/>
      <point x="437.0" y="584" type="line" smooth="yes"/>
      <point x="437.0" y="636"/>
      <point x="409.0" y="654"/>
      <point x="347.0" y="654" type="curve" smooth="yes"/>
      <point x="286.0" y="654"/>
      <point x="256.0" y="636"/>
      <point x="256.0" y="584" type="curve" smooth="yes"/>
      <point x="256.0" y="487" type="line" smooth="yes"/>
      <point x="256.0" y="435"/>
      <point x="286.0" y="418"/>
    </contour>
    <contour>
      <point x="326.0" y="90" type="line"/>
      <point x="314.0" y="90" type="line"/>
      <point x="675.0" y="630" type="line"/>
      <point x="687.0" y="630" type="line"/>
    </contour>
    <contour>
      <point x="754.0" y="232" type="curve" smooth="yes"/>
      <point x="754.0" y="135" type="line" smooth="yes"/>
      <point x="754.0" y="77"/>
      <point x="726.0" y="56"/>
      <point x="654.0" y="56" type="curve" smooth="yes"/>
      <point x="583.0" y="56"/>
      <point x="553.0" y="77"/>
      <point x="553.0" y="135" type="curve" smooth="yes"/>
      <point x="553.0" y="232" type="line" smooth="yes"/>
      <point x="553.0" y="290"/>
      <point x="583.0" y="312"/>
      <point x="654.0" y="312" type="curve" smooth="yes"/>
      <point x="726.0" y="312"/>
      <point x="754.0" y="290"/>
    </contour>
    <contour>
      <point x="654.0" y="66" type="curve" smooth="yes"/>
      <point x="716.0" y="66"/>
      <point x="744.0" y="83"/>
      <point x="744.0" y="135" type="curve" smooth="yes"/>
      <point x="744.0" y="232" type="line" smooth="yes"/>
      <point x="744.0" y="284"/>
      <point x="716.0" y="302"/>
      <point x="654.0" y="302" type="curve" smooth="yes"/>
      <point x="593.0" y="302"/>
      <point x="563.0" y="284"/>
      <point x="563.0" y="232" type="curve" smooth="yes"/>
      <point x="563.0" y="135" type="line" smooth="yes"/>
      <point x="563.0" y="83"/>
      <point x="593.0" y="66"/>
    </contour>
  </outline>
</glyph>
<glyph name="four.v" format="1">
  <advance width="1000"/>
  <unicode hex="FF14"/>
  <outline>
    <contour>
      <point x="574.0" y="167" type="line"/>
      <point x="574.0" y="36" type="line" smooth="yes"/>
      <point x="574.0" y="11"/>
      <point x="585.0" y="0"/>
      <point x="610.0" y="0" type="curve" smooth="yes"/>
      <point x="764.0" y="0" type="line" smooth="yes"/>
      <point x="789.0" y="0"/>
      <point x="800.0" y="11"/>
      <point x="800.0" y="36" type="curve" smooth="yes"/>
      <point x="800.0" y="684" type="line" smooth="yes"/>
      <point x="800.0" y="709"/>
      <point x="789.0" y="720"/>
      <point x="764.0" y="720" type="curve" smooth="yes"/>
      <point x="610.0" y="720" type="line" smooth="yes"/>
      <point x="585.0" y="720"/>
      <point x="574.0" y="709"/>
      <point x="574.0" y="684" type="curve" smooth="yes"/>
      <point x="574.0" y="376" type="line"/>
      <point x="458.0" y="376" type="line" smooth="yes"/>
      <point x="439.0" y="376"/>
      <point x="427.0" y="389"/>
      <point x="427.0" y="410" type="curve" smooth="yes"/>
      <point x="427.0" y="684" type="line" smooth="yes"/>
      <point x="427.0" y="709"/>
      <point x="416.0" y="720"/>
      <point x="391.0" y="720" type="curve" smooth="yes"/>
      <point x="236.0" y="720" type="line" smooth="yes"/>
      <point x="211.0" y="720"/>
      <point x="200.0" y="709"/>
      <point x="200.0" y="684" type="curve" smooth="yes"/>
      <point x="200.0" y="333" type="line" smooth="yes"/>
      <point x="200.0" y="219"/>
      <point x="252.0" y="167"/>
      <point x="382.0" y="167" type="curve" smooth="yes"/>
    </contour>
    <contour>
      <point x="682.0" y="90" type="line"/>
      <point x="682.0" y="267" type="line"/>
      <point x="420.0" y="267" type="line" smooth="yes"/>
      <point x="343.0" y="267"/>
      <point x="309.0" y="302"/>
      <point x="309.0" y="372" type="curve" smooth="yes"/>
      <point x="309.0" y="630" type="line"/>
      <point x="319.0" y="630" type="line"/>
      <point x="319.0" y="372" type="line" smooth="yes"/>
      <point x="319.0" y="308"/>
      <point x="351.0" y="277"/>
      <point x="420.0" y="277" type="curve" smooth="yes"/>
      <point x="682.0" y="277" type="line"/>
      <point x="682.0" y="630" type="line"/>
      <point x="692.0" y="630" type="line"/>
      <point x="692.0" y="90" type="line"/>
    </contour>
  </outline>
</glyph>
<glyph name="H.v" format="1">
  <advance width="1000"/>
  <unicode hex="FF28"/>
  <outline>
    <contour>
      <point x="391.0" y="0" type="line" smooth="yes"/>
      <point x="416.0" y="0"/>
      <point x="427.0" y="11"/>
      <point x="427.0" y="36" type="curve" smooth="yes"/>
      <point x="427.0" y="258" type="line"/>
      <point x="573.0" y="258" type="line"/>
      <point x="573.0" y="36" type="line" smooth="yes"/>
      <point x="573.0" y="11"/>
      <point x="584.0" y="0"/>
      <point x="609.0" y="0" type="curve" smooth="yes"/>
      <point x="764.0" y="0" type="line" smooth="yes"/>
      <point x="789.0" y="0"/>
      <point x="800.0" y="11"/>
      <point x="800.0" y="36" type="curve" smooth="yes"/>
      <point x="800.0" y="684" type="line" smooth="yes"/>
      <point x="800.0" y="709"/>
      <point x="789.0" y="720"/>
      <point x="764.0" y="720" type="curve" smooth="yes"/>
      <point x="609.0" y="720" type="line" smooth="yes"/>
      <point x="584.0" y="720"/>
      <point x="573.0" y="709"/>
      <point x="573.0" y="684" type="curve" smooth="yes"/>
      <point x="573.0" y="467" type="line"/>
      <point x="427.0" y="467" type="line"/>
      <point x="427.0" y="684" type="line" smooth="yes"/>
      <point x="427.0" y="709"/>
      <point x="416.0" y="720"/>
      <point x="391.0" y="720" type="curve" smooth="yes"/>
      <point x="236.0" y="720" type="line" smooth="yes"/>
      <point x="211.0" y="720"/>
      <point x="200.0" y="709"/>
      <point x="200.0" y="684" type="curve" smooth="yes"/>
      <point x="200.0" y="36" type="line" smooth="yes"/>
      <point x="200.0" y="11"/>
      <point x="211.0" y="0"/>
      <point x="236.0" y="0" type="curve" smooth="yes"/>
    </contour>
    <contour>
      <point x="309.0" y="90" type="line"/>
      <point x="309.0" y="630" type="line"/>
      <point x="319.0" y="630" type="line"/>
      <point x="319.0" y="365" type="line"/>
      <point x="681.0" y="365" type="line"/>
      <point x="681.0" y="630" type="line"/>
      <point x="691.0" y="630" type="line"/>
      <point x="691.0" y="90" type="line"/>
      <point x="681.0" y="90" type="line"/>
      <point x="681.0" y="355" type="line"/>
      <point x="319.0" y="355" type="line"/>
      <point x="319.0" y="90" type="line"/>
    </contour>
  </outline>
</glyph>
<glyph name="V.v" format="1">
  <advance width="1000"/>
  <unicode hex="FF36"/>
  <outline>
    <contour>
      <point x="627.0" y="0" type="line" smooth="yes"/>
      <point x="657.0" y="0"/>
      <point x="671.0" y="8"/>
      <point x="681.0" y="33" type="curve" smooth="yes"/>
      <point x="779.0" y="278" type="line" smooth="yes"/>
      <point x="803.0" y="338"/>
      <point x="801.0" y="357"/>
      <point x="801.0" y="420" type="curve" smooth="yes"/>
      <point x="801.0" y="684" type="line" smooth="yes"/>
      <point x="801.0" y="709"/>
      <point x="791.0" y="720"/>
      <point x="765.0" y="720" type="curve" smooth="yes"/>
      <point x="616.0" y="720" type="line" smooth="yes"/>
      <point x="591.0" y="720"/>
      <point x="580.0" y="709"/>
      <point x="580.0" y="684" type="curve" smooth="yes"/>
      <point x="580.0" y="409" type="line" smooth="yes"/>
      <point x="580.0" y="395"/>
      <point x="578.0" y="383"/>
      <point x="572.0" y="368" type="curve" smooth="yes"/>
      <point x="529.0" y="227" type="line" smooth="yes"/>
      <point x="524.0" y="214"/>
      <point x="521.0" y="210"/>
      <point x="510.0" y="210" type="curve" smooth="yes"/>
      <point x="495.0" y="210" type="line" smooth="yes"/>
      <point x="484.0" y="210"/>
      <point x="481.0" y="214"/>
      <point x="476.0" y="227" type="curve" smooth="yes"/>
      <point x="433.0" y="367" type="line" smooth="yes"/>
      <point x="427.0" y="382"/>
      <point x="425.0" y="394"/>
      <point x="425.0" y="408" type="curve" smooth="yes"/>
      <point x="425.0" y="684" type="line" smooth="yes"/>
      <point x="425.0" y="709"/>
      <point x="411.0" y="720"/>
      <point x="386.0" y="720" type="curve" smooth="yes"/>
      <point x="235.0" y="720" type="line" smooth="yes"/>
      <point x="210.0" y="720"/>
      <point x="199.0" y="709"/>
      <point x="199.0" y="684" type="curve" smooth="yes"/>
      <point x="199.0" y="420" type="line" smooth="yes"/>
      <point x="199.0" y="357"/>
      <point x="207.0" y="338"/>
      <point x="231.0" y="278" type="curve" smooth="yes"/>
      <point x="319.0" y="33" type="line" smooth="yes"/>
      <point x="329.0" y="8"/>
      <point x="344.0" y="0"/>
      <point x="374.0" y="0" type="curve" smooth="yes"/>
    </contour>
    <contour>
      <point x="304.0" y="417" type="curve" smooth="yes"/>
      <point x="304.0" y="630" type="line"/>
      <point x="314.0" y="630" type="line"/>
      <point x="314.0" y="417" type="line"/>
      <point x="314.0" y="381"/>
      <point x="320.0" y="351"/>
      <point x="330.0" y="324" type="curve"/>
      <point x="399.0" y="161" type="line"/>
      <point x="414.0" y="126"/>
      <point x="425.0" y="100"/>
      <point x="462.0" y="100" type="curve" smooth="yes"/>
      <point x="539.0" y="100" type="line" smooth="yes"/>
      <point x="579.0" y="100"/>
      <point x="590.0" y="126"/>
      <point x="603.0" y="160" type="curve"/>
      <point x="667.0" y="324" type="line"/>
      <point x="677.0" y="351"/>
      <point x="683.0" y="381"/>
      <point x="683.0" y="417" type="curve"/>
      <point x="683.0" y="630" type="line"/>
      <point x="693.0" y="630" type="line"/>
      <point x="693.0" y="417" type="line" smooth="yes"/>
      <point x="693.0" y="380"/>
      <point x="687.0" y="349"/>
      <point x="676.0" y="320" type="curve"/>
      <point x="612.0" y="156" type="line" smooth="yes"/>
      <point x="597.0" y="119"/>
      <point x="585.0" y="90"/>
      <point x="539.0" y="90" type="curve" smooth="yes"/>
      <point x="462.0" y="90" type="line" smooth="yes"/>
      <point x="418.0" y="90"/>
      <point x="406.0" y="118"/>
      <point x="390.0" y="157" type="curve" smooth="yes"/>
      <point x="321.0" y="320" type="line" smooth="yes"/>
      <point x="310.0" y="349"/>
      <point x="304.0" y="380"/>
    </contour>
  </outline>
</glyph>
<glyph name="X.v" format="1">
  <advance width="1000"/>
  <unicode hex="FF38"/>
  <outline>
    <contour>
      <point x="424.0" y="36" type="curve" smooth="yes"/>
      <point x="424.0" y="135" type="line" smooth="yes"/>
      <point x="424.0" y="149"/>
      <point x="425.0" y="163"/>
      <point x="433.0" y="177" type="curve" smooth="yes"/>
      <point x="470.0" y="240" type="line" smooth="yes"/>
      <point x="477.0" y="252"/>
      <point x="483.0" y="257"/>
      <point x="494.0" y="257" type="curve" smooth="yes"/>
      <point x="508.0" y="257" type="line" smooth="yes"/>
      <point x="519.0" y="257"/>
      <point x="525.0" y="253"/>
      <point x="532.0" y="240" type="curve" smooth="yes"/>
      <point x="567.0" y="177" type="line" smooth="yes"/>
      <point x="575.0" y="162"/>
      <point x="576.0" y="149"/>
      <point x="576.0" y="135" type="curve" smooth="yes"/>
      <point x="576.0" y="36" type="line" smooth="yes"/>
      <point x="576.0" y="11"/>
      <point x="587.0" y="0"/>
      <point x="612.0" y="0" type="curve" smooth="yes"/>
      <point x="764.0" y="0" type="line" smooth="yes"/>
      <point x="789.0" y="0"/>
      <point x="800.0" y="11"/>
      <point x="800.0" y="36" type="curve" smooth="yes"/>
      <point x="800.0" y="143" type="line" smooth="yes"/>
      <point x="800.0" y="205"/>
      <point x="788.0" y="223"/>
      <point x="762.0" y="266" type="curve" smooth="yes"/>
      <point x="696.0" y="374" type="line"/>
      <point x="762.0" y="484" type="line" smooth="yes"/>
      <point x="788.0" y="527"/>
      <point x="800.0" y="545"/>
      <point x="800.0" y="607" type="curve" smooth="yes"/>
      <point x="800.0" y="684" type="line" smooth="yes"/>
      <point x="800.0" y="709"/>
      <point x="789.0" y="720"/>
      <point x="764.0" y="720" type="curve" smooth="yes"/>
      <point x="612.0" y="720" type="line" smooth="yes"/>
      <point x="587.0" y="720"/>
      <point x="576.0" y="709"/>
      <point x="576.0" y="684" type="curve" smooth="yes"/>
      <point x="576.0" y="615" type="line" smooth="yes"/>
      <point x="576.0" y="601"/>
      <point x="575.0" y="587"/>
      <point x="567.0" y="573" type="curve" smooth="yes"/>
      <point x="531.0" y="510" type="line" smooth="yes"/>
      <point x="524.0" y="498"/>
      <point x="518.0" y="493"/>
      <point x="507.0" y="493" type="curve" smooth="yes"/>
      <point x="495.0" y="493" type="line" smooth="yes"/>
      <point x="484.0" y="493"/>
      <point x="477.0" y="499"/>
      <point x="471.0" y="510" type="curve" smooth="yes"/>
      <point x="435.0" y="573" type="line" smooth="yes"/>
      <point x="427.0" y="586"/>
      <point x="426.0" y="601"/>
      <point x="426.0" y="615" type="curve" smooth="yes"/>
      <point x="426.0" y="684" type="line" smooth="yes"/>
      <point x="426.0" y="709"/>
      <point x="415.0" y="720"/>
      <point x="390.0" y="720" type="curve" smooth="yes"/>
      <point x="236.0" y="720" type="line" smooth="yes"/>
      <point x="211.0" y="720"/>
      <point x="200.0" y="709"/>
      <point x="200.0" y="684" type="curve" smooth="yes"/>
      <point x="200.0" y="607" type="line" smooth="yes"/>
      <point x="200.0" y="545"/>
      <point x="212.0" y="527"/>
      <point x="238.0" y="484" type="curve" smooth="yes"/>
      <point x="304.0" y="375" type="line"/>
      <point x="238.0" y="266" type="line" smooth="yes"/>
      <point x="212.0" y="223"/>
      <point x="200.0" y="205"/>
      <point x="200.0" y="143" type="curve" smooth="yes"/>
      <point x="200.0" y="36" type="line" smooth="yes"/>
      <point x="200.0" y="11"/>
      <point x="211.0" y="0"/>
      <point x="236.0" y="0" type="curve" smooth="yes"/>
      <point x="388.0" y="0" type="line" smooth="yes"/>
      <point x="413.0" y="0"/>
      <point x="424.0" y="11"/>
    </contour>
    <contour>
      <point x="317.0" y="135" type="curve" smooth="yes"/>
      <point x="317.0" y="90" type="line"/>
      <point x="307.0" y="90" type="line"/>
      <point x="307.0" y="135" type="line" smooth="yes"/>
      <point x="307.0" y="164"/>
      <point x="307.0" y="190"/>
      <point x="322.0" y="212" type="curve" smooth="yes"/>
      <point x="409.0" y="342" type="line" smooth="yes"/>
      <point x="421.0" y="360"/>
      <point x="432.0" y="370"/>
      <point x="446.0" y="375" type="curve"/>
      <point x="434.0" y="380"/>
      <point x="423.0" y="390"/>
      <point x="410.0" y="408" type="curve" smooth="yes"/>
      <point x="322.0" y="538" type="line" smooth="yes"/>
      <point x="308.0" y="559"/>
      <point x="307.0" y="586"/>
      <point x="307.0" y="615" type="curve" smooth="yes"/>
      <point x="307.0" y="630" type="line"/>
      <point x="317.0" y="630" type="line"/>
      <point x="317.0" y="615" type="line" smooth="yes"/>
      <point x="317.0" y="587"/>
      <point x="318.0" y="561"/>
      <point x="331.0" y="542" type="curve" smooth="yes"/>
      <point x="419.0" y="412" type="line" smooth="yes"/>
      <point x="435.0" y="388"/>
      <point x="453.0" y="380"/>
      <point x="471.0" y="380" type="curve" smooth="yes"/>
      <point x="532.0" y="380" type="line" smooth="yes"/>
      <point x="552.0" y="380"/>
      <point x="570.0" y="389"/>
      <point x="585.0" y="412" type="curve" smooth="yes"/>
      <point x="670.0" y="542" type="line" smooth="yes"/>
      <point x="683.0" y="561"/>
      <point x="684.0" y="587"/>
      <point x="684.0" y="615" type="curve" smooth="yes"/>
      <point x="684.0" y="630" type="line"/>
      <point x="694.0" y="630" type="line"/>
      <point x="694.0" y="615" type="line" smooth="yes"/>
      <point x="694.0" y="586"/>
      <point x="694.0" y="560"/>
      <point x="679.0" y="538" type="curve" smooth="yes"/>
      <point x="594.0" y="408" type="line" smooth="yes"/>
      <point x="582.0" y="391"/>
      <point x="571.0" y="380"/>
      <point x="557.0" y="375" type="curve"/>
      <point x="571.0" y="370"/>
      <point x="582.0" y="360"/>
      <point x="594.0" y="342" type="curve" smooth="yes"/>
      <point x="678.0" y="212" type="line" smooth="yes"/>
      <point x="692.0" y="191"/>
      <point x="694.0" y="164"/>
      <point x="694.0" y="135" type="curve" smooth="yes"/>
      <point x="694.0" y="90" type="line"/>
      <point x="684.0" y="90" type="line"/>
      <point x="684.0" y="135" type="line" smooth="yes"/>
      <point x="684.0" y="163"/>
      <point x="681.0" y="189"/>
      <point x="669.0" y="208" type="curve" smooth="yes"/>
      <point x="585.0" y="338" type="line" smooth="yes"/>
      <point x="570.0" y="361"/>
      <point x="551.0" y="370"/>
      <point x="532.0" y="370" type="curve" smooth="yes"/>
      <point x="471.0" y="370" type="line" smooth="yes"/>
      <point x="451.0" y="370"/>
      <point x="434.0" y="361"/>
      <point x="418.0" y="338" type="curve" smooth="yes"/>
      <point x="331.0" y="208" type="line" smooth="yes"/>
      <point x="318.0" y="189"/>
      <point x="317.0" y="163"/>
    </contour>
    <contour>
      <point x="508.0" y="747.0" type="move" name="top"/>
    </contour>
    <contour>
      <point x="508.0" y="0.0" type="move" name="bottom"/>
    </contour>
  </outline>
</glyph>
<glyph name="Y.v" format="1">
  <advance width="1000"/>
  <unicode hex="FF39"/>
  <outline>
    <contour>
      <point x="581.0" y="0" type="line" smooth="yes"/>
      <point x="606.0" y="0"/>
      <point x="617.0" y="11"/>
      <point x="617.0" y="36" type="curve" smooth="yes"/>
      <point x="617.0" y="164" type="line"/>
      <point x="763.0" y="369" type="line" smooth="yes"/>
      <point x="793.0" y="410"/>
      <point x="801.0" y="440"/>
      <point x="801.0" y="492" type="curve" smooth="yes"/>
      <point x="801.0" y="684" type="line" smooth="yes"/>
      <point x="801.0" y="709"/>
      <point x="790.0" y="720"/>
      <point x="765.0" y="720" type="curve" smooth="yes"/>
      <point x="616.0" y="720" type="line" smooth="yes"/>
      <point x="591.0" y="720"/>
      <point x="580.0" y="709"/>
      <point x="580.0" y="684" type="curve" smooth="yes"/>
      <point x="580.0" y="520" type="line" smooth="yes"/>
      <point x="580.0" y="506"/>
      <point x="580.0" y="492"/>
      <point x="571.0" y="478" type="curve" smooth="yes"/>
      <point x="531.0" y="406" type="line" smooth="yes"/>
      <point x="524.0" y="394"/>
      <point x="518.0" y="389"/>
      <point x="507.0" y="389" type="curve"/>
      <point x="497.0" y="389" type="line" smooth="yes"/>
      <point x="486.0" y="389"/>
      <point x="480.0" y="394"/>
      <point x="473.0" y="406" type="curve" smooth="yes"/>
      <point x="434.0" y="478" type="line" smooth="yes"/>
      <point x="425.0" y="492"/>
      <point x="425.0" y="506"/>
      <point x="425.0" y="520" type="curve" smooth="yes"/>
      <point x="425.0" y="684" type="line" smooth="yes"/>
      <point x="425.0" y="709"/>
      <point x="414.0" y="720"/>
      <point x="389.0" y="720" type="curve" smooth="yes"/>
      <point x="235.0" y="720" type="line" smooth="yes"/>
      <point x="210.0" y="720"/>
      <point x="199.0" y="709"/>
      <point x="199.0" y="684" type="curve" smooth="yes"/>
      <point x="199.0" y="492" type="line" smooth="yes"/>
      <point x="199.0" y="440"/>
      <point x="206.0" y="410"/>
      <point x="237.0" y="369" type="curve" smooth="yes"/>
      <point x="383.0" y="165" type="line"/>
      <point x="383.0" y="36" type="line" smooth="yes"/>
      <point x="383.0" y="11"/>
      <point x="393.0" y="0"/>
      <point x="419.0" y="0" type="curve" smooth="yes"/>
    </contour>
    <contour>
      <point x="495.0" y="90" type="line"/>
      <point x="495.0" y="266" type="line"/>
      <point x="482.0" y="266" type="line" smooth="yes"/>
      <point x="453.0" y="266"/>
      <point x="430.0" y="277"/>
      <point x="409.0" y="308" type="curve" smooth="yes"/>
      <point x="322.0" y="438" type="line" smooth="yes"/>
      <point x="308.0" y="459"/>
      <point x="307.0" y="486"/>
      <point x="307.0" y="515" type="curve" smooth="yes"/>
      <point x="307.0" y="630" type="line"/>
      <point x="317.0" y="630" type="line"/>
      <point x="317.0" y="515" type="line" smooth="yes"/>
      <point x="317.0" y="487"/>
      <point x="318.0" y="462"/>
      <point x="331.0" y="442" type="curve"/>
      <point x="418.0" y="312" type="line"/>
      <point x="436.0" y="285"/>
      <point x="459.0" y="276"/>
      <point x="482.0" y="276" type="curve" smooth="yes"/>
      <point x="516.0" y="276" type="line" smooth="yes"/>
      <point x="541.0" y="276"/>
      <point x="563.0" y="285"/>
      <point x="581.0" y="312" type="curve" smooth="yes"/>
      <point x="671.0" y="442" type="line" smooth="yes"/>
      <point x="684.0" y="461"/>
      <point x="685.0" y="487"/>
      <point x="685.0" y="515" type="curve" smooth="yes"/>
      <point x="685.0" y="630" type="line"/>
      <point x="695.0" y="630" type="line"/>
      <point x="695.0" y="515" type="line" smooth="yes"/>
      <point x="695.0" y="486"/>
      <point x="694.0" y="459"/>
      <point x="680.0" y="438" type="curve" smooth="yes"/>
      <point x="590.0" y="308" type="line" smooth="yes"/>
      <point x="569.0" y="278"/>
      <point x="547.0" y="266"/>
      <point x="516.0" y="266" type="curve" smooth="yes"/>
      <point x="505.0" y="266" type="line"/>
      <point x="505.0" y="90" type="line"/>
    </contour>
    <contour>
      <point x="352.0" y="747.0" type="move" name="top"/>
    </contour>
    <contour>
      <point x="352.0" y="747.0" type="move" name="top"/>
    </contour>
    <contour>
      <point x="352.0" y="0.0" type="move" name="bottom"/>
    </contour>
    <contour>
      <point x="352.0" y="0.0" type="move" name="bottom"/>
    </contour>
  </outline>
</glyph>
<glyph name="Aring.v" format="1">
  <advance width="1000"/>
  <outline>
    <contour>
      <point x="560.0" y="724" type="line" smooth="yes"/>
      <point x="560.0" y="695"/>
      <point x="551.0" y="681"/>
      <point x="501.0" y="681" type="curve" smooth="yes"/>
      <point x="452.0" y="681"/>
      <point x="444.0" y="695"/>
      <point x="444.0" y="724" type="curve" smooth="yes"/>
      <point x="444.0" y="759" type="line" smooth="yes"/>
      <point x="444.0" y="785"/>
      <point x="452.0" y="799"/>
      <point x="501.0" y="799" type="curve" smooth="yes"/>
      <point x="551.0" y="799"/>
      <point x="560.0" y="785"/>
      <point x="560.0" y="759" type="curve" smooth="yes"/>
    </contour>
    <contour>
      <point x="469.0" y="474" type="line" smooth="yes"/>
      <point x="474.0" y="487"/>
      <point x="477.0" y="491"/>
      <point x="488.0" y="491" type="curve" smooth="yes"/>
      <point x="505.0" y="491" type="line" smooth="yes"/>
      <point x="516.0" y="491"/>
      <point x="519.0" y="487"/>
      <point x="524.0" y="474" type="curve" smooth="yes"/>
      <point x="566.0" y="338" type="line"/>
      <point x="426.0" y="338" type="line"/>
    </contour>
    <contour>
      <point x="417.0" y="36" type="curve" smooth="yes"/>
      <point x="417.0" y="156" type="line"/>
      <point x="575.0" y="156" type="line"/>
      <point x="575.0" y="36" type="line" smooth="yes"/>
      <point x="575.0" y="11"/>
      <point x="586.0" y="0"/>
      <point x="611.0" y="0" type="curve" smooth="yes"/>
      <point x="765.0" y="0" type="line" smooth="yes"/>
      <point x="791.0" y="0"/>
      <point x="801.0" y="11"/>
      <point x="801.0" y="36" type="curve" smooth="yes"/>
      <point x="801.0" y="270" type="line" smooth="yes"/>
      <point x="801.0" y="329"/>
      <point x="791.0" y="370"/>
      <point x="772.0" y="420" type="curve"/>
      <point x="712.0" y="593" type="line"/>
      <point x="704.0" y="614"/>
      <point x="694.0" y="625"/>
      <point x="677.0" y="630" type="curve"/>
      <point x="707.0" y="655"/>
      <point x="717.0" y="690"/>
      <point x="717.0" y="731" type="curve" smooth="yes"/>
      <point x="717.0" y="789" type="line" smooth="yes"/>
      <point x="717.0" y="874"/>
      <point x="674.0" y="932"/>
      <point x="500.0" y="932" type="curve" smooth="yes"/>
      <point x="326.0" y="932"/>
      <point x="283.0" y="874"/>
      <point x="283.0" y="789" type="curve" smooth="yes"/>
      <point x="283.0" y="731" type="line" smooth="yes"/>
      <point x="283.0" y="690"/>
      <point x="293.0" y="655"/>
      <point x="323.0" y="630" type="curve"/>
      <point x="307.0" y="625"/>
      <point x="297.0" y="613"/>
      <point x="288.0" y="593" type="curve"/>
      <point x="228.0" y="420" type="line" smooth="yes"/>
      <point x="209.0" y="370"/>
      <point x="199.0" y="329"/>
      <point x="199.0" y="270" type="curve" smooth="yes"/>
      <point x="199.0" y="36" type="line" smooth="yes"/>
      <point x="199.0" y="11"/>
      <point x="210.0" y="0"/>
      <point x="235.0" y="0" type="curve" smooth="yes"/>
      <point x="381.0" y="0" type="line" smooth="yes"/>
      <point x="406.0" y="0"/>
      <point x="417.0" y="11"/>
    </contour>
    <contour>
      <point x="358.0" y="731" type="curve" smooth="yes"/>
      <point x="358.0" y="770" type="line" smooth="yes"/>
      <point x="358.0" y="830"/>
      <point x="380.0" y="871"/>
      <point x="499.0" y="871" type="curve" smooth="yes"/>
      <point x="618.0" y="871"/>
      <point x="642.0" y="829"/>
      <point x="642.0" y="770" type="curve" smooth="yes"/>
      <point x="642.0" y="731" type="line" smooth="yes"/>
      <point x="642.0" y="671"/>
      <point x="618.0" y="631"/>
      <point x="499.0" y="631" type="curve" smooth="yes"/>
      <point x="380.0" y="631"/>
      <point x="358.0" y="671"/>
    </contour>
    <contour>
      <point x="499.0" y="861" type="curve" smooth="yes"/>
      <point x="392.0" y="861"/>
      <point x="368.0" y="826"/>
      <point x="368.0" y="770" type="curve" smooth="yes"/>
      <point x="368.0" y="731" type="line" smooth="yes"/>
      <point x="368.0" y="675"/>
      <point x="392.0" y="641"/>
      <point x="499.0" y="641" type="curve" smooth="yes"/>
      <point x="606.0" y="641"/>
      <point x="632.0" y="675"/>
      <point x="632.0" y="731" type="curve" smooth="yes"/>
      <point x="632.0" y="770" type="line" smooth="yes"/>
      <point x="632.0" y="825"/>
      <point x="606.0" y="861"/>
    </contour>
    <contour>
      <point x="314.0" y="303" type="curve"/>
      <point x="314.0" y="272" type="line"/>
      <point x="683.0" y="272" type="line"/>
      <point x="683.0" y="303" type="line"/>
      <point x="683.0" y="339"/>
      <point x="677.0" y="369"/>
      <point x="667.0" y="396" type="curve"/>
      <point x="598.0" y="539" type="line"/>
      <point x="583.0" y="574"/>
      <point x="572.0" y="600"/>
      <point x="535.0" y="600" type="curve" smooth="yes"/>
      <point x="458.0" y="600" type="line" smooth="yes"/>
      <point x="418.0" y="600"/>
      <point x="407.0" y="574"/>
      <point x="394.0" y="540" type="curve"/>
      <point x="330.0" y="396" type="line"/>
      <point x="320.0" y="369"/>
      <point x="314.0" y="339"/>
    </contour>
    <contour>
      <point x="683.0" y="90" type="line"/>
      <point x="683.0" y="262" type="line"/>
      <point x="314.0" y="262" type="line"/>
      <point x="314.0" y="90" type="line"/>
      <point x="304.0" y="90" type="line"/>
      <point x="304.0" y="303" type="line" smooth="yes"/>
      <point x="304.0" y="340"/>
      <point x="310.0" y="371"/>
      <point x="321.0" y="400" type="curve"/>
      <point x="385.0" y="544" type="line" smooth="yes"/>
      <point x="401.0" y="580"/>
      <point x="412.0" y="610"/>
      <point x="458.0" y="610" type="curve" smooth="yes"/>
      <point x="535.0" y="610" type="line" smooth="yes"/>
      <point x="579.0" y="610"/>
      <point x="589.0" y="580"/>
      <point x="607.0" y="543" type="curve" smooth="yes"/>
      <point x="676.0" y="400" type="line" smooth="yes"/>
      <point x="689.0" y="372"/>
      <point x="693.0" y="340"/>
      <point x="693.0" y="303" type="curve" smooth="yes"/>
      <point x="693.0" y="90" type="line"/>
    </contour>
  </outline>
</glyph>
<glyph name="I.s_v" format="1">
  <advance width="1000"/>
  <outline>
    <contour>
      <point x="245.0" y="0" type="curve" smooth="yes"/>
      <point x="755.0" y="0" type="line" smooth="yes"/>
      <point x="780.0" y="0"/>
      <point x="791.0" y="11"/>
      <point x="791.0" y="36" type="curve" smooth="yes"/>
      <point x="791.0" y="155" type="line" smooth="yes"/>
      <point x="791.0" y="180"/>
      <point x="780.0" y="191"/>
      <point x="755.0" y="191" type="curve" smooth="yes"/>
      <point x="621.0" y="191" type="line"/>
      <point x="621.0" y="487" type="line"/>
      <point x="755.0" y="487" type="line" smooth="yes"/>
      <point x="780.0" y="487"/>
      <point x="791.0" y="498"/>
      <point x="791.0" y="523" type="curve" smooth="yes"/>
      <point x="791.0" y="644" type="line" smooth="yes"/>
      <point x="791.0" y="669"/>
      <point x="780.0" y="680"/>
      <point x="755.0" y="680" type="curve" smooth="yes"/>
      <point x="245.0" y="680" type="line" smooth="yes"/>
      <point x="220.0" y="680"/>
      <point x="209.0" y="669"/>
      <point x="209.0" y="644" type="curve" smooth="yes"/>
      <point x="209.0" y="523" type="line" smooth="yes"/>
      <point x="209.0" y="498"/>
      <point x="220.0" y="487"/>
      <point x="245.0" y="487" type="curve" smooth="yes"/>
      <point x="379.0" y="487" type="line"/>
      <point x="379.0" y="191" type="line"/>
      <point x="245.0" y="191" type="line" smooth="yes"/>
      <point x="220.0" y="191"/>
      <point x="209.0" y="180"/>
      <point x="209.0" y="155" type="curve" smooth="yes"/>
      <point x="209.0" y="36" type="line" smooth="yes"/>
      <point x="209.0" y="11"/>
      <point x="220.0" y="0"/>
    </contour>
    <contour>
      <point x="701.0" y="90" type="line"/>
      <point x="299.0" y="90" type="line"/>
      <point x="299.0" y="100" type="line"/>
      <point x="495.0" y="100" type="line"/>
      <point x="495.0" y="580" type="line"/>
      <point x="299.0" y="580" type="line"/>
      <point x="299.0" y="590" type="line"/>
      <point x="701.0" y="590" type="line"/>
      <point x="701.0" y="580" type="line"/>
      <point x="505.0" y="580" type="line"/>
      <point x="505.0" y="100" type="line"/>
      <point x="701.0" y="100" type="line"/>
    </contour>
  </outline>
</glyph>
<glyph name="J.s_v" format="1">
  <advance width="1000"/>
  <outline>
    <contour>
      <point x="800.0" y="189" type="curve" smooth="yes"/>
      <point x="800.0" y="644" type="line" smooth="yes"/>
      <point x="800.0" y="669"/>
      <point x="789.0" y="680"/>
      <point x="764.0" y="680" type="curve" smooth="yes"/>
      <point x="607.0" y="680" type="line" smooth="yes"/>
      <point x="582.0" y="680"/>
      <point x="571.0" y="669"/>
      <point x="571.0" y="644" type="curve" smooth="yes"/>
      <point x="571.0" y="229" type="line" smooth="yes"/>
      <point x="571.0" y="202"/>
      <point x="562.0" y="182"/>
      <point x="495.0" y="182" type="curve" smooth="yes"/>
      <point x="424.0" y="182"/>
      <point x="417.0" y="202"/>
      <point x="417.0" y="229" type="curve" smooth="yes"/>
      <point x="417.0" y="351" type="line" smooth="yes"/>
      <point x="417.0" y="377"/>
      <point x="406.0" y="387"/>
      <point x="381.0" y="387" type="curve" smooth="yes"/>
      <point x="236.0" y="387" type="line" smooth="yes"/>
      <point x="211.0" y="387"/>
      <point x="200.0" y="377"/>
      <point x="200.0" y="351" type="curve" smooth="yes"/>
      <point x="200.0" y="189" type="line" smooth="yes"/>
      <point x="200.0" y="67"/>
      <point x="256.0" y="-15"/>
      <point x="497.0" y="-15" type="curve" smooth="yes"/>
      <point x="740.0" y="-15"/>
      <point x="800.0" y="67"/>
    </contour>
    <contour>
      <point x="680.0" y="590" type="line"/>
      <point x="690.0" y="590" type="line"/>
      <point x="690.0" y="213" type="line" smooth="yes"/>
      <point x="690.0" y="134"/>
      <point x="649.0" y="78"/>
      <point x="501.0" y="78" type="curve" smooth="yes"/>
      <point x="343.0" y="78"/>
      <point x="304.0" y="133"/>
      <point x="304.0" y="213" type="curve" smooth="yes"/>
      <point x="304.0" y="297" type="line"/>
      <point x="314.0" y="297" type="line"/>
      <point x="314.0" y="213" type="line" smooth="yes"/>
      <point x="314.0" y="137"/>
      <point x="356.0" y="88"/>
      <point x="501.0" y="88" type="curve" smooth="yes"/>
      <point x="639.0" y="88"/>
      <point x="680.0" y="138"/>
      <point x="680.0" y="213" type="curve" smooth="yes"/>
    </contour>
  </outline>
</glyph>
<glyph name="Lslash.v" format="1">
  <advance width="1000"/>
  <outline>
    <contour>
      <point x="142.0" y="426" type="curve" smooth="yes"/>
      <point x="142.0" y="319" type="line" smooth="yes"/>
      <point x="142.0" y="293"/>
      <point x="153.0" y="279"/>
      <point x="178.0" y="283" type="curve" smooth="yes"/>
      <point x="486.0" y="333" type="line" smooth="yes"/>
      <point x="511.0" y="337"/>
      <point x="522.0" y="343"/>
      <point x="522.0" y="369" type="curve" smooth="yes"/>
      <point x="522.0" y="476" type="line" smooth="yes"/>
      <point x="522.0" y="502"/>
      <point x="511.0" y="516"/>
      <point x="486.0" y="512" type="curve" smooth="yes"/>
      <point x="178.0" y="462" type="line" smooth="yes"/>
      <point x="153.0" y="458"/>
      <point x="142.0" y="451"/>
    </contour>
    <contour>
      <point x="234.0" y="375" type="line"/>
      <point x="234.0" y="385" type="line"/>
      <point x="434.0" y="418" type="line"/>
      <point x="434.0" y="408" type="line"/>
    </contour>
    <component base="L.v"/>
  </outline>
</glyph>
<glyph name="N.salt" format="1">
  <advance width="746"/>
  <outline>
    <contour>
      <point x="64.0" y="531" type="curve" smooth="yes"/>
      <point x="64.0" y="36" type="line" smooth="yes"/>
      <point x="64.0" y="11"/>
      <point x="75.0" y="0"/>
      <point x="100.0" y="0" type="curve" smooth="yes"/>
      <point x="252.0" y="0" type="line" smooth="yes"/>
      <point x="278.0" y="0"/>
      <point x="288.0" y="11"/>
      <point x="288.0" y="36" type="curve" smooth="yes"/>
      <point x="288.0" y="492" type="line" smooth="yes"/>
      <point x="288.0" y="519"/>
      <point x="300.0" y="539"/>
      <point x="371.0" y="539" type="curve" smooth="yes"/>
      <point x="441.0" y="539"/>
      <point x="453.0" y="519"/>
      <point x="453.0" y="492" type="curve" smooth="yes"/>
      <point x="453.0" y="36" type="line" smooth="yes"/>
      <point x="453.0" y="11"/>
      <point x="464.0" y="0"/>
      <point x="489.0" y="0" type="curve" smooth="yes"/>
      <point x="646.0" y="0" type="line" smooth="yes"/>
      <point x="671.0" y="0"/>
      <point x="682.0" y="11"/>
      <point x="682.0" y="36" type="curve"/>
      <point x="682.0" y="531" type="line" smooth="yes"/>
      <point x="682.0" y="653"/>
      <point x="621.0" y="735"/>
      <point x="373.0" y="735" type="curve" smooth="yes"/>
      <point x="125.0" y="735"/>
      <point x="64.0" y="653"/>
    </contour>
    <contour>
      <point x="572.0" y="90" type="line"/>
      <point x="562.0" y="90" type="line"/>
      <point x="562.0" y="507" type="line" smooth="yes"/>
      <point x="562.0" y="582"/>
      <point x="521.0" y="632"/>
      <point x="372.0" y="632" type="curve" smooth="yes"/>
      <point x="223.0" y="632"/>
      <point x="181.0" y="582"/>
      <point x="181.0" y="507" type="curve" smooth="yes"/>
      <point x="181.0" y="90" type="line"/>
      <point x="171.0" y="90" type="line"/>
      <point x="171.0" y="507" type="line" smooth="yes"/>
      <point x="171.0" y="588"/>
      <point x="215.0" y="642"/>
      <point x="372.0" y="642" type="curve" smooth="yes"/>
      <point x="529.0" y="642"/>
      <point x="572.0" y="588"/>
      <point x="572.0" y="507" type="curve" smooth="yes"/>
    </contour>
    <contour>
      <point x="373.0" y="747.0" type="move" name="top"/>
    </contour>
    <contour>
      <point x="373.0" y="0.0" type="move" name="bottom"/>
    </contour>
  </outline>
</glyph>
<glyph name="R.s_v" format="1">
  <advance width="1000"/>
  <outline>
    <contour>
      <point x="426.0" y="500" type="line"/>
      <point x="490.0" y="500" type="line" smooth="yes"/>
      <point x="525.0" y="500"/>
      <point x="534.0" y="480"/>
      <point x="534.0" y="453" type="curve" smooth="yes"/>
      <point x="534.0" y="429" type="line" smooth="yes"/>
      <point x="534.0" y="402"/>
      <point x="525.0" y="382"/>
      <point x="490.0" y="382" type="curve" smooth="yes"/>
      <point x="426.0" y="382" type="line"/>
    </contour>
    <contour>
      <point x="390.0" y="0" type="line" smooth="yes"/>
      <point x="415.0" y="0"/>
      <point x="426.0" y="11"/>
      <point x="426.0" y="36" type="curve" smooth="yes"/>
      <point x="426.0" y="202" type="line"/>
      <point x="545.0" y="202" type="line" smooth="yes"/>
      <point x="573.0" y="202"/>
      <point x="583.0" y="189"/>
      <point x="583.0" y="159" type="curve" smooth="yes"/>
      <point x="583.0" y="36" type="line" smooth="yes"/>
      <point x="583.0" y="11"/>
      <point x="594.0" y="0"/>
      <point x="619.0" y="0" type="curve" smooth="yes"/>
      <point x="774.0" y="0" type="line" smooth="yes"/>
      <point x="799.0" y="0"/>
      <point x="810.0" y="11"/>
      <point x="810.0" y="36" type="curve" smooth="yes"/>
      <point x="810.0" y="218" type="line" smooth="yes"/>
      <point x="810.0" y="302"/>
      <point x="760.0" y="355"/>
      <point x="699.0" y="363" type="curve"/>
      <point x="741.0" y="381"/>
      <point x="755.0" y="421"/>
      <point x="755.0" y="477" type="curve" smooth="yes"/>
      <point x="755.0" y="513" type="line" smooth="yes"/>
      <point x="755.0" y="612"/>
      <point x="708.0" y="680"/>
      <point x="558.0" y="680" type="curve" smooth="yes"/>
      <point x="236.0" y="680" type="line" smooth="yes"/>
      <point x="211.0" y="680"/>
      <point x="200.0" y="669"/>
      <point x="200.0" y="644" type="curve" smooth="yes"/>
      <point x="200.0" y="36" type="line" smooth="yes"/>
      <point x="200.0" y="11"/>
      <point x="211.0" y="0"/>
      <point x="236.0" y="0" type="curve" smooth="yes"/>
    </contour>
    <contour>
      <point x="536.0" y="580" type="curve" smooth="yes"/>
      <point x="318.0" y="580" type="line"/>
      <point x="318.0" y="311" type="line"/>
      <point x="536.0" y="311" type="line" smooth="yes"/>
      <point x="619.0" y="311"/>
      <point x="640.0" y="352"/>
      <point x="640.0" y="426" type="curve" smooth="yes"/>
      <point x="640.0" y="476" type="line" smooth="yes"/>
      <point x="640.0" y="538"/>
      <point x="607.0" y="580"/>
    </contour>
    <contour>
      <point x="318.0" y="90" type="line"/>
      <point x="308.0" y="90" type="line"/>
      <point x="308.0" y="590" type="line"/>
      <point x="536.0" y="590" type="line" smooth="yes"/>
      <point x="614.0" y="590"/>
      <point x="650.0" y="542"/>
      <point x="650.0" y="476" type="curve" smooth="yes"/>
      <point x="650.0" y="427" type="line" smooth="yes"/>
      <point x="650.0" y="366"/>
      <point x="638.0" y="326"/>
      <point x="590.0" y="311" type="curve"/>
      <point x="601.0" y="311" type="line" smooth="yes"/>
      <point x="683.0" y="311"/>
      <point x="701.0" y="274"/>
      <point x="701.0" y="204" type="curve" smooth="yes"/>
      <point x="701.0" y="90" type="line"/>
      <point x="691.0" y="90" type="line"/>
      <point x="691.0" y="204" type="line" smooth="yes"/>
      <point x="691.0" y="270"/>
      <point x="677.0" y="302"/>
      <point x="601.0" y="302" type="curve" smooth="yes"/>
      <point x="318.0" y="302" type="line"/>
    </contour>
  </outline>
</glyph>
<glyph name="Y.salt" format="1">
  <advance width="706"/>
  <outline>
    <contour>
      <point x="434.0" y="0" type="line" smooth="yes"/>
      <point x="459.0" y="0"/>
      <point x="470.0" y="11"/>
      <point x="470.0" y="36" type="curve"/>
      <point x="470.0" y="206" type="line"/>
      <point x="619.0" y="230"/>
      <point x="659.0" y="303"/>
      <point x="659.0" y="402" type="curve" smooth="yes"/>
      <point x="659.0" y="683" type="line" smooth="yes"/>
      <point x="659.0" y="708"/>
      <point x="648.0" y="719"/>
      <point x="623.0" y="719" type="curve" smooth="yes"/>
      <point x="469.0" y="719" type="line" smooth="yes"/>
      <point x="444.0" y="719"/>
      <point x="433.0" y="708"/>
      <point x="433.0" y="683" type="curve" smooth="yes"/>
      <point x="433.0" y="443" type="line" smooth="yes"/>
      <point x="433.0" y="416"/>
      <point x="421.0" y="396"/>
      <point x="353.0" y="396" type="curve" smooth="yes"/>
      <point x="286.0" y="396"/>
      <point x="274.0" y="416"/>
      <point x="274.0" y="443" type="curve" smooth="yes"/>
      <point x="274.0" y="683" type="line" smooth="yes"/>
      <point x="274.0" y="708"/>
      <point x="263.0" y="719"/>
      <point x="238.0" y="719" type="curve" smooth="yes"/>
      <point x="83.0" y="719" type="line" smooth="yes"/>
      <point x="58.0" y="719"/>
      <point x="47.0" y="708"/>
      <point x="47.0" y="683" type="curve"/>
      <point x="47.0" y="402" type="line" smooth="yes"/>
      <point x="47.0" y="303"/>
      <point x="87.0" y="230"/>
      <point x="236.0" y="206" type="curve"/>
      <point x="236.0" y="36" type="line" smooth="yes"/>
      <point x="236.0" y="11"/>
      <point x="247.0" y="0"/>
      <point x="272.0" y="0" type="curve" smooth="yes"/>
    </contour>
    <contour>
      <point x="358.0" y="90" type="line"/>
      <point x="348.0" y="90" type="line"/>
      <point x="348.0" y="292" type="line"/>
      <point x="195.0" y="293"/>
      <point x="153.0" y="347"/>
      <point x="153.0" y="427" type="curve" smooth="yes"/>
      <point x="153.0" y="630" type="line"/>
      <point x="163.0" y="630" type="line"/>
      <point x="163.0" y="427" type="line" smooth="yes"/>
      <point x="163.0" y="352"/>
      <point x="204.0" y="302"/>
      <point x="353.0" y="302" type="curve" smooth="yes"/>
      <point x="502.0" y="302"/>
      <point x="544.0" y="352"/>
      <point x="544.0" y="427" type="curve" smooth="yes"/>
      <point x="544.0" y="630" type="line"/>
      <point x="554.0" y="630" type="line"/>
      <point x="554.0" y="427" type="line" smooth="yes"/>
      <point x="554.0" y="346"/>
      <point x="510.0" y="292"/>
      <point x="358.0" y="292" type="curve"/>
    </contour>
    <contour>
      <point x="353.0" y="747.0" type="move" name="top"/>
    </contour>
    <contour>
      <point x="353.0" y="0.0" type="move" name="bottom"/>
    </contour>
  </outline>
</glyph>
<glyph name="arrowright.chevron" format="1">
  <advance width="1330"/>
  <outline>
    <contour>
      <point x="699.0" y="-319" type="line" smooth="yes"/>
      <point x="699.0" y="-350"/>
      <point x="749.0" y="-365"/>
      <point x="779.0" y="-329" type="curve" smooth="yes"/>
      <point x="1295.0" y="301" type="line" smooth="yes"/>
      <point x="1332.0" y="347"/>
      <point x="1332.0" y="375"/>
      <point x="1295.0" y="421" type="curve" smooth="yes"/>
      <point x="779.0" y="1051" type="line" smooth="yes"/>
      <point x="743.0" y="1095"/>
      <point x="699.0" y="1081"/>
      <point x="699.0" y="1041" type="curve" smooth="yes"/>
      <point x="699.0" y="900" type="line"/>
      <point x="38.0" y="900" type="line" smooth="yes"/>
      <point x="13.0" y="900"/>
      <point x="-6.0" y="884"/>
      <point x="4.0" y="860" type="curve" smooth="yes"/>
      <point x="202.0" y="360" type="line"/>
      <point x="4.0" y="-140" type="line" smooth="yes"/>
      <point x="-6.0" y="-164"/>
      <point x="13.0" y="-180"/>
      <point x="38.0" y="-180" type="curve" smooth="yes"/>
      <point x="699.0" y="-180" type="line"/>
    </contour>
    <contour>
      <point x="737.0" y="-330" type="curve" smooth="yes"/>
      <point x="727.0" y="-330"/>
      <point x="719.0" y="-322"/>
      <point x="719.0" y="-312" type="curve" smooth="yes"/>
      <point x="719.0" y="-160" type="line"/>
      <point x="17.0" y="-160" type="line"/>
      <point x="223.0" y="360" type="line"/>
      <point x="17.0" y="880" type="line"/>
      <point x="719.0" y="880" type="line"/>
      <point x="719.0" y="1040" type="line"/>
      <point x="719.0" y="1050"/>
      <point x="726.0" y="1058"/>
      <point x="735.0" y="1058" type="curve" smooth="yes"/>
      <point x="744.0" y="1058"/>
      <point x="754.0" y="1052"/>
      <point x="763.0" y="1039" type="curve"/>
      <point x="1280.0" y="408" type="line" smooth="yes"/>
      <point x="1294.0" y="390"/>
      <point x="1303.0" y="376"/>
      <point x="1303.0" y="361" type="curve" smooth="yes"/>
      <point x="1303.0" y="346"/>
      <point x="1294.0" y="332"/>
      <point x="1279.0" y="313" type="curve" smooth="yes"/>
      <point x="764.0" y="-316" type="line" smooth="yes"/>
      <point x="756.0" y="-326"/>
      <point x="746.0" y="-330"/>
    </contour>
    <contour>
      <point x="737.0" y="-320" type="curve" smooth="yes"/>
      <point x="744.0" y="-320"/>
      <point x="750.0" y="-316"/>
      <point x="756.0" y="-310" type="curve" smooth="yes"/>
      <point x="1271.0" y="319" type="line" smooth="yes"/>
      <point x="1284.0" y="336"/>
      <point x="1293.0" y="348"/>
      <point x="1293.0" y="361" type="curve" smooth="yes"/>
      <point x="1293.0" y="374"/>
      <point x="1284.0" y="386"/>
      <point x="1272.0" y="402" type="curve" smooth="yes"/>
      <point x="755.0" y="1033" type="line"/>
      <point x="748.0" y="1042"/>
      <point x="742.0" y="1048"/>
      <point x="735.0" y="1048" type="curve" smooth="yes"/>
      <point x="732.0" y="1048"/>
      <point x="729.0" y="1044"/>
      <point x="729.0" y="1040" type="curve" smooth="yes"/>
      <point x="729.0" y="870" type="line"/>
      <point x="32.0" y="870" type="line"/>
      <point x="234.0" y="360" type="line"/>
      <point x="32.0" y="-150" type="line"/>
      <point x="729.0" y="-150" type="line"/>
      <point x="729.0" y="-312" type="line"/>
      <point x="729.0" y="-316"/>
      <point x="733.0" y="-320"/>
    </contour>
  </outline>
</glyph>
<glyph name="emdash.v" format="1">
  <advance width="1000"/>
  <outline>
    <contour>
      <point x="603.0" y="-101" type="curve"/>
      <point x="603.0" y="821" type="line" smooth="yes"/>
      <point x="603.0" y="846"/>
      <point x="593.0" y="857"/>
      <point x="567.0" y="857" type="curve" smooth="yes"/>
      <point x="433.0" y="857" type="line" smooth="yes"/>
      <point x="407.0" y="857"/>
      <point x="397.0" y="846"/>
      <point x="397.0" y="821" type="curve" smooth="yes"/>
      <point x="397.0" y="-101" type="line" smooth="yes"/>
      <point x="397.0" y="-126"/>
      <point x="408.0" y="-137"/>
      <point x="433.0" y="-137" type="curve" smooth="yes"/>
      <point x="567.0" y="-137" type="line" smooth="yes"/>
      <point x="593.0" y="-137"/>
      <point x="603.0" y="-126"/>
    </contour>
    <contour>
      <point x="506.0" y="-47" type="line"/>
      <point x="496.0" y="-47" type="line"/>
      <point x="496.0" y="767" type="line"/>
      <point x="506.0" y="767" type="line"/>
    </contour>
  </outline>
</glyph>
<glyph name="guillemotright.v" format="1">
  <advance width="1000"/>
  <outline>
    <contour>
      <point x="308.0" y="501" type="line"/>
      <point x="332.0" y="418"/>
      <point x="364.0" y="374"/>
      <point x="463.0" y="374" type="curve" smooth="yes"/>
      <point x="537.0" y="374" type="line" smooth="yes"/>
      <point x="636.0" y="374"/>
      <point x="668.0" y="417"/>
      <point x="692.0" y="501" type="curve"/>
      <point x="741.0" y="670" type="line"/>
      <point x="749.0" y="694"/>
      <point x="736.0" y="706"/>
      <point x="710.0" y="706" type="curve" smooth="yes"/>
      <point x="596.0" y="706" type="line" smooth="yes"/>
      <point x="570.0" y="706"/>
      <point x="556.0" y="693"/>
      <point x="547.0" y="670" type="curve"/>
      <point x="519.0" y="575" type="line" smooth="yes"/>
      <point x="515.0" y="562"/>
      <point x="512.0" y="558"/>
      <point x="500.0" y="558" type="curve" smooth="yes"/>
      <point x="488.0" y="558"/>
      <point x="485.0" y="561"/>
      <point x="481.0" y="575" type="curve" smooth="yes"/>
      <point x="454.0" y="670" type="line" smooth="yes"/>
      <point x="447.0" y="694"/>
      <point x="431.0" y="706"/>
      <point x="405.0" y="706" type="curve" smooth="yes"/>
      <point x="291.0" y="706" type="line" smooth="yes"/>
      <point x="265.0" y="706"/>
      <point x="253.0" y="694"/>
      <point x="260.0" y="670" type="curve" smooth="yes"/>
    </contour>
    <contour>
      <point x="257.0" y="310" type="curve" smooth="yes"/>
      <point x="308.0" y="131" type="line" smooth="yes"/>
      <point x="332.0" y="48"/>
      <point x="364.0" y="4"/>
      <point x="463.0" y="4" type="curve" smooth="yes"/>
      <point x="537.0" y="4" type="line" smooth="yes"/>
      <point x="636.0" y="4"/>
      <point x="668.0" y="48"/>
      <point x="692.0" y="131" type="curve" smooth="yes"/>
      <point x="744.0" y="310" type="line" smooth="yes"/>
      <point x="751.0" y="334"/>
      <point x="739.0" y="346"/>
      <point x="713.0" y="346" type="curve" smooth="yes"/>
      <point x="596.0" y="346" type="line" smooth="yes"/>
      <point x="570.0" y="346"/>
      <point x="556.0" y="333"/>
      <point x="547.0" y="310" type="curve"/>
      <point x="519.0" y="215" type="line"/>
      <point x="514.0" y="202"/>
      <point x="512.0" y="198"/>
      <point x="500.0" y="198" type="curve" smooth="yes"/>
      <point x="488.0" y="198"/>
      <point x="486.0" y="201"/>
      <point x="481.0" y="215" type="curve"/>
      <point x="454.0" y="310" type="line" smooth="yes"/>
      <point x="447.0" y="334"/>
      <point x="431.0" y="346"/>
      <point x="405.0" y="346" type="curve" smooth="yes"/>
      <point x="288.0" y="346" type="line" smooth="yes"/>
      <point x="262.0" y="346"/>
      <point x="250.0" y="334"/>
    </contour>
    <contour>
      <point x="629.0" y="626" type="line"/>
      <point x="639.0" y="626" type="line"/>
      <point x="609.0" y="527" type="line" smooth="yes"/>
      <point x="598.0" y="490"/>
      <point x="585.0" y="465"/>
      <point x="538.0" y="465" type="curve" smooth="yes"/>
      <point x="464.0" y="465" type="line" smooth="yes"/>
      <point x="417.0" y="465"/>
      <point x="403.0" y="490"/>
      <point x="393.0" y="526" type="curve" smooth="yes"/>
      <point x="364.0" y="626" type="line"/>
      <point x="374.0" y="626" type="line"/>
      <point x="403.0" y="528" type="line" smooth="yes"/>
      <point x="411.0" y="498"/>
      <point x="423.0" y="475"/>
      <point x="464.0" y="475" type="curve" smooth="yes"/>
      <point x="538.0" y="475" type="line" smooth="yes"/>
      <point x="579.0" y="475"/>
      <point x="590.0" y="498"/>
      <point x="599.0" y="529" type="curve" smooth="yes"/>
    </contour>
    <contour>
      <point x="364.0" y="256" type="line"/>
      <point x="374.0" y="256" type="line"/>
      <point x="403.0" y="158" type="line" smooth="yes"/>
      <point x="412.0" y="128"/>
      <point x="423.0" y="105"/>
      <point x="464.0" y="105" type="curve" smooth="yes"/>
      <point x="538.0" y="105" type="line" smooth="yes"/>
      <point x="579.0" y="105"/>
      <point x="589.0" y="128"/>
      <point x="599.0" y="159" type="curve" smooth="yes"/>
      <point x="629.0" y="256" type="line"/>
      <point x="639.0" y="256" type="line"/>
      <point x="609.0" y="157" type="line" smooth="yes"/>
      <point x="598.0" y="120"/>
      <point x="585.0" y="95"/>
      <point x="538.0" y="95" type="curve" smooth="yes"/>
      <point x="464.0" y="95" type="line" smooth="yes"/>
      <point x="417.0" y="95"/>
      <point x="403.0" y="120"/>
      <point x="393.0" y="156" type="curve" smooth="yes"/>
    </contour>
  </outline>
</glyph>
<glyph name="indexdown" format="1">
  <advance width="1000"/>
  <outline>
    <contour>
      <point x="755.0" y="701" type="line" smooth="yes"/>
      <point x="755.0" y="712"/>
      <point x="748.0" y="719"/>
      <point x="736.0" y="719" type="curve" smooth="yes"/>
      <point x="264.0" y="719" type="line" smooth="yes"/>
      <point x="251.0" y="719"/>
      <point x="245.0" y="712"/>
      <point x="245.0" y="701" type="curve"/>
      <point x="245.0" y="606" type="line"/>
      <point x="245.0" y="595"/>
      <point x="251.0" y="588"/>
      <point x="264.0" y="588" type="curve" smooth="yes"/>
      <point x="736.0" y="588" type="line" smooth="yes"/>
      <point x="748.0" y="588"/>
      <point x="755.0" y="595"/>
      <point x="755.0" y="606" type="curve"/>
    </contour>
    <contour>
      <point x="684.0" y="542" type="curve" smooth="yes"/>
      <point x="665.0" y="577" type="line"/>
      <point x="323.0" y="577" type="line"/>
      <point x="285.0" y="381" type="line" smooth="yes"/>
      <point x="283.0" y="367"/>
      <point x="283.0" y="345"/>
      <point x="284.0" y="326" type="curve" smooth="yes"/>
      <point x="305.0" y="25" type="line" smooth="yes"/>
      <point x="306.0" y="14"/>
      <point x="312.0" y="2"/>
      <point x="327.0" y="2" type="curve" smooth="yes"/>
      <point x="377.0" y="2" type="line" smooth="yes"/>
      <point x="391.0" y="2"/>
      <point x="397.0" y="13"/>
      <point x="397.0" y="28" type="curve" smooth="yes"/>
      <point x="397.0" y="304" type="line"/>
      <point x="408.0" y="304" type="line" smooth="yes"/>
      <point x="408.0" y="210" type="line" smooth="yes"/>
      <point x="408.0" y="198"/>
      <point x="413.0" y="191"/>
      <point x="424.0" y="191" type="curve" smooth="yes"/>
      <point x="469.0" y="191" type="line" smooth="yes"/>
      <point x="482.0" y="191"/>
      <point x="487.0" y="201"/>
      <point x="488.0" y="216" type="curve" smooth="yes"/>
      <point x="496.0" y="321" type="line"/>
      <point x="506.0" y="321" type="line" smooth="yes"/>
      <point x="500.0" y="234" type="line" smooth="yes"/>
      <point x="499.0" y="223"/>
      <point x="507.0" y="215"/>
      <point x="520.0" y="215" type="curve" smooth="yes"/>
      <point x="566.0" y="215" type="line" smooth="yes"/>
      <point x="580.0" y="215"/>
      <point x="585.0" y="226"/>
      <point x="586.0" y="240" type="curve" smooth="yes"/>
      <point x="593.0" y="340" type="line"/>
      <point x="604.0" y="340" type="line" smooth="yes"/>
      <point x="598.0" y="254" type="line" smooth="yes"/>
      <point x="597.0" y="243"/>
      <point x="606.0" y="237"/>
      <point x="616.0" y="237" type="curve" smooth="yes"/>
      <point x="665.0" y="237" type="line" smooth="yes"/>
      <point x="675.0" y="237"/>
      <point x="684.0" y="250"/>
      <point x="684.0" y="260" type="curve" smooth="yes"/>
      <point x="694.0" y="500" type="line" smooth="yes"/>
      <point x="694.0" y="517"/>
      <point x="689.0" y="533"/>
    </contour>
  </outline>
</glyph>
<glyph name="indexdownright.outline" format="1">
  <advance width="1000"/>
  <outline>
    <contour>
      <point x="168.0" y="258" type="curve"/>
      <point x="145.0" y="281" type="line" smooth="yes"/>
      <point x="138.0" y="289"/>
      <point x="138.0" y="299"/>
      <point x="146.0" y="308" type="curve" smooth="yes"/>
      <point x="465.0" y="627" type="line" smooth="yes"/>
      <point x="474.0" y="635"/>
      <point x="483.0" y="634"/>
      <point x="491.0" y="627" type="curve"/>
      <point x="514.0" y="605" type="line"/>
      <point x="521.0" y="596"/>
      <point x="522.0" y="587"/>
      <point x="514.0" y="578" type="curve" smooth="yes"/>
      <point x="193.0" y="259" type="line" smooth="yes"/>
      <point x="186.0" y="251"/>
      <point x="176.0" y="251"/>
    </contour>
    <contour>
      <point x="465.0" y="62" type="curve" smooth="yes"/>
      <point x="293.0" y="219" type="line" smooth="yes"/>
      <point x="281.0" y="232"/>
      <point x="273.0" y="247"/>
      <point x="271.0" y="256" type="curve" smooth="yes"/>
      <point x="260.0" y="295" type="line"/>
      <point x="486.0" y="522" type="line"/>
      <point x="652.0" y="409" type="line" smooth="yes"/>
      <point x="663.0" y="401"/>
      <point x="679.0" y="386"/>
      <point x="691.0" y="372" type="curve" smooth="yes"/>
      <point x="884.0" y="149" type="line" smooth="yes"/>
      <point x="891.0" y="141"/>
      <point x="894.0" y="130"/>
      <point x="883.0" y="120" type="curve" smooth="yes"/>
      <point x="862.0" y="99" type="line" smooth="yes"/>
      <point x="853.0" y="89"/>
      <point x="842.0" y="90"/>
      <point x="832.0" y="101" type="curve" smooth="yes"/>
      <point x="642.0" y="291" type="line"/>
      <point x="627.0" y="276" type="line" smooth="yes"/>
      <point x="689.0" y="214" type="line"/>
      <point x="688.0" y="214" type="line"/>
      <point x="697.0" y="207"/>
      <point x="695.0" y="199"/>
      <point x="688.0" y="191" type="curve" smooth="yes"/>
      <point x="664.0" y="168" type="line" smooth="yes"/>
      <point x="654.0" y="158"/>
      <point x="645.0" y="159"/>
      <point x="634.0" y="169" type="curve" smooth="yes"/>
      <point x="560.0" y="233" type="line"/>
      <point x="545.0" y="218" type="line" smooth="yes"/>
      <point x="607.0" y="165" type="line"/>
      <point x="613.0" y="158"/>
      <point x="612.0" y="150"/>
      <point x="603.0" y="141" type="curve" smooth="yes"/>
      <point x="578.0" y="115" type="line" smooth="yes"/>
      <point x="568.0" y="106"/>
      <point x="559.0" y="107"/>
      <point x="548.0" y="117" type="curve" smooth="yes"/>
      <point x="478.0" y="177" type="line"/>
      <point x="462.0" y="163" type="line" smooth="yes"/>
      <point x="525.0" y="110" type="line"/>
      <point x="523.0" y="111" type="line"/>
      <point x="530.0" y="104"/>
      <point x="526.0" y="95"/>
      <point x="520.0" y="89" type="curve" smooth="yes"/>
      <point x="493.0" y="62" type="line" smooth="yes"/>
      <point x="485.0" y="54"/>
      <point x="473.0" y="54"/>
    </contour>
    <contour>
      <point x="507.0" y="46" type="curve" smooth="yes"/>
      <point x="536.0" y="74" type="line"/>
      <point x="540.0" y="79"/>
      <point x="545.0" y="86"/>
      <point x="546.0" y="94" type="curve"/>
      <point x="562.0" y="83"/>
      <point x="578.0" y="86"/>
      <point x="592.0" y="101" type="curve" smooth="yes"/>
      <point x="620.0" y="128" type="line"/>
      <point x="625.0" y="133"/>
      <point x="628.0" y="140"/>
      <point x="629.0" y="147" type="curve"/>
      <point x="647.0" y="134"/>
      <point x="664.0" y="137"/>
      <point x="679.0" y="153" type="curve" smooth="yes"/>
      <point x="704.0" y="178" type="line" smooth="yes"/>
      <point x="708.0" y="182"/>
      <point x="711.0" y="186"/>
      <point x="712.0" y="191" type="curve"/>
      <point x="817.0" y="86" type="line" smooth="yes"/>
      <point x="838.0" y="65"/>
      <point x="858.0" y="65"/>
      <point x="877.0" y="84" type="curve" smooth="yes"/>
      <point x="898.0" y="105" type="line" smooth="yes"/>
      <point x="917.0" y="124"/>
      <point x="918.0" y="144"/>
      <point x="901.0" y="163" type="curve" smooth="yes"/>
      <point x="708.0" y="385" type="line" smooth="yes"/>
      <point x="693.0" y="401"/>
      <point x="676.0" y="418"/>
      <point x="663.0" y="427" type="curve" smooth="yes"/>
      <point x="502.0" y="537" type="line"/>
      <point x="529.0" y="565" type="line" smooth="yes"/>
      <point x="546.0" y="582"/>
      <point x="546.0" y="602"/>
      <point x="528.0" y="619" type="curve" smooth="yes"/>
      <point x="476.0" y="672" type="line" smooth="yes"/>
      <point x="458.0" y="690"/>
      <point x="440.0" y="691"/>
      <point x="420.0" y="671" type="curve" smooth="yes"/>
      <point x="101.0" y="352" type="line" smooth="yes"/>
      <point x="82.0" y="333"/>
      <point x="82.0" y="314"/>
      <point x="100.0" y="296" type="curve" smooth="yes"/>
      <point x="154.0" y="243" type="line" smooth="yes"/>
      <point x="171.0" y="226"/>
      <point x="191.0" y="227"/>
      <point x="207.0" y="242" type="curve" smooth="yes"/>
      <point x="242.0" y="277" type="line"/>
      <point x="250.0" y="250" type="line" smooth="yes"/>
      <point x="254.0" y="239"/>
      <point x="263.0" y="219"/>
      <point x="278.0" y="204" type="curve" smooth="yes"/>
      <point x="450.0" y="46" type="line" smooth="yes"/>
      <point x="466.0" y="31"/>
      <point x="491.0" y="30"/>
    </contour>
  </outline>
</glyph>
<glyph name="indexupleft.outline" format="1">
  <advance width="1000"/>
  <outline>
    <contour>
      <point x="492.0" y="-39" type="curve" smooth="yes"/>
      <point x="811.0" y="280" type="line" smooth="yes"/>
      <point x="831.0" y="300"/>
      <point x="830.0" y="318"/>
      <point x="812.0" y="336" type="curve" smooth="yes"/>
      <point x="759.0" y="388" type="line" smooth="yes"/>
      <point x="741.0" y="406"/>
      <point x="722.0" y="406"/>
      <point x="705.0" y="389" type="curve" smooth="yes"/>
      <point x="677.0" y="362" type="line"/>
      <point x="567.0" y="523" type="line" smooth="yes"/>
      <point x="558.0" y="536"/>
      <point x="541.0" y="553"/>
      <point x="525.0" y="568" type="curve" smooth="yes"/>
      <point x="303.0" y="761" type="line" smooth="yes"/>
      <point x="284.0" y="778"/>
      <point x="264.0" y="777"/>
      <point x="245.0" y="758" type="curve" smooth="yes"/>
      <point x="224.0" y="737" type="line" smooth="yes"/>
      <point x="205.0" y="718"/>
      <point x="205.0" y="698"/>
      <point x="226.0" y="677" type="curve" smooth="yes"/>
      <point x="331.0" y="572" type="line"/>
      <point x="326.0" y="571"/>
      <point x="322.0" y="568"/>
      <point x="318.0" y="564" type="curve" smooth="yes"/>
      <point x="293.0" y="539" type="line" smooth="yes"/>
      <point x="277.0" y="524"/>
      <point x="274.0" y="507"/>
      <point x="287.0" y="489" type="curve"/>
      <point x="280.0" y="488"/>
      <point x="273.0" y="485"/>
      <point x="268.0" y="480" type="curve"/>
      <point x="241.0" y="452" type="line" smooth="yes"/>
      <point x="225.0" y="438"/>
      <point x="223.0" y="422"/>
      <point x="234.0" y="406" type="curve"/>
      <point x="226.0" y="405"/>
      <point x="219.0" y="401"/>
      <point x="214.0" y="396" type="curve"/>
      <point x="186.0" y="367" type="line" smooth="yes"/>
      <point x="170.0" y="351"/>
      <point x="171.0" y="326"/>
      <point x="186.0" y="310" type="curve" smooth="yes"/>
      <point x="344.0" y="138" type="line" smooth="yes"/>
      <point x="359.0" y="123"/>
      <point x="379.0" y="114"/>
      <point x="390.0" y="110" type="curve" smooth="yes"/>
      <point x="417.0" y="102" type="line"/>
      <point x="382.0" y="67" type="line" smooth="yes"/>
      <point x="367.0" y="51"/>
      <point x="366.0" y="31"/>
      <point x="383.0" y="14" type="curve" smooth="yes"/>
      <point x="436.0" y="-40" type="line" smooth="yes"/>
      <point x="454.0" y="-58"/>
      <point x="473.0" y="-58"/>
    </contour>
    <contour>
      <point x="435.0" y="120" type="line"/>
      <point x="396.0" y="131" type="line" smooth="yes"/>
      <point x="387.0" y="133"/>
      <point x="372.0" y="141"/>
      <point x="359.0" y="153" type="curve" smooth="yes"/>
      <point x="202.0" y="325" type="line" smooth="yes"/>
      <point x="194.0" y="333"/>
      <point x="194.0" y="345"/>
      <point x="202.0" y="353" type="curve" smooth="yes"/>
      <point x="229.0" y="380" type="line" smooth="yes"/>
      <point x="235.0" y="386"/>
      <point x="244.0" y="390"/>
      <point x="251.0" y="383" type="curve"/>
      <point x="250.0" y="385" type="line"/>
      <point x="303.0" y="322" type="line" smooth="yes"/>
      <point x="317.0" y="338" type="line"/>
      <point x="257.0" y="408" type="line" smooth="yes"/>
      <point x="247.0" y="419"/>
      <point x="246.0" y="428"/>
      <point x="255.0" y="438" type="curve" smooth="yes"/>
      <point x="281.0" y="463" type="line" smooth="yes"/>
      <point x="289.0" y="471"/>
      <point x="296.0" y="473"/>
      <point x="305.0" y="467" type="curve"/>
      <point x="358.0" y="405" type="line" smooth="yes"/>
      <point x="373.0" y="420" type="line"/>
      <point x="309.0" y="494" type="line" smooth="yes"/>
      <point x="299.0" y="505"/>
      <point x="298.0" y="514"/>
      <point x="308.0" y="524" type="curve" smooth="yes"/>
      <point x="331.0" y="548" type="line" smooth="yes"/>
      <point x="339.0" y="555"/>
      <point x="347.0" y="557"/>
      <point x="354.0" y="548" type="curve"/>
      <point x="354.0" y="549" type="line"/>
      <point x="416.0" y="487" type="line" smooth="yes"/>
      <point x="431.0" y="502" type="line"/>
      <point x="241.0" y="692" type="line" smooth="yes"/>
      <point x="230.0" y="702"/>
      <point x="229.0" y="713"/>
      <point x="239.0" y="722" type="curve" smooth="yes"/>
      <point x="260.0" y="743" type="line" smooth="yes"/>
      <point x="270.0" y="754"/>
      <point x="281.0" y="751"/>
      <point x="289.0" y="744" type="curve" smooth="yes"/>
      <point x="512.0" y="551" type="line" smooth="yes"/>
      <point x="526.0" y="539"/>
      <point x="541.0" y="523"/>
      <point x="549.0" y="512" type="curve" smooth="yes"/>
      <point x="662.0" y="346" type="line"/>
    </contour>
    <contour>
      <point x="399.0" y="53" type="curve" smooth="yes"/>
      <point x="718.0" y="374" type="line" smooth="yes"/>
      <point x="727.0" y="382"/>
      <point x="736.0" y="381"/>
      <point x="745.0" y="374" type="curve"/>
      <point x="767.0" y="351" type="line"/>
      <point x="774.0" y="343"/>
      <point x="775.0" y="334"/>
      <point x="767.0" y="325" type="curve" smooth="yes"/>
      <point x="447.0" y="6" type="line" smooth="yes"/>
      <point x="439.0" y="-2"/>
      <point x="429.0" y="-2"/>
      <point x="421.0" y="5" type="curve" smooth="yes"/>
      <point x="398.0" y="28" type="line"/>
      <point x="391.0" y="36"/>
      <point x="391.0" y="46"/>
    </contour>
  </outline>
</glyph>
<glyph name="indexupleft.salt" format="1">
  <advance width="1000"/>
  <outline>
    <contour>
      <point x="336.0" y="292" type="line" smooth="yes"/>
      <point x="355.0" y="301"/>
      <point x="370.0" y="309"/>
      <point x="380.0" y="320" type="curve"/>
      <point x="381.0" y="337"/>
      <point x="379.0" y="344"/>
      <point x="365.0" y="360" type="curve"/>
      <point x="369.0" y="363" type="line"/>
      <point x="378.0" y="354"/>
      <point x="388.0" y="348"/>
      <point x="394.0" y="348" type="curve"/>
      <point x="412.0" y="398" type="line" smooth="yes"/>
      <point x="419.0" y="417"/>
      <point x="421.0" y="428"/>
      <point x="408.0" y="443" type="curve" smooth="yes"/>
      <point x="367.0" y="487" type="line"/>
      <point x="292.0" y="415" type="line" smooth="yes"/>
      <point x="269.0" y="392"/>
      <point x="268.0" y="365"/>
      <point x="276.0" y="342" type="curve" smooth="yes"/>
      <point x="300.0" y="276" type="line"/>
    </contour>
    <contour>
      <point x="425.0" y="56" type="curve"/>
      <point x="494.0" y="-13" type="line" smooth="yes"/>
      <point x="501.0" y="-20"/>
      <point x="512.0" y="-20"/>
      <point x="521.0" y="-12" type="curve" smooth="yes"/>
      <point x="795.0" y="262" type="line" smooth="yes"/>
      <point x="802.0" y="271"/>
      <point x="802.0" y="280"/>
      <point x="795.0" y="288" type="curve"/>
      <point x="727.0" y="355" type="line"/>
      <point x="719.0" y="363"/>
      <point x="710.0" y="363"/>
      <point x="702.0" y="355" type="curve" smooth="yes"/>
      <point x="428.0" y="81" type="line" smooth="yes"/>
      <point x="419.0" y="72"/>
      <point x="418.0" y="63"/>
    </contour>
    <contour>
      <point x="232.0" y="144" type="curve" smooth="yes"/>
      <point x="318.0" y="158" type="line" smooth="yes"/>
      <point x="359.0" y="166"/>
      <point x="379.0" y="170"/>
      <point x="409.0" y="167" type="curve" smooth="yes"/>
      <point x="492.0" y="159" type="line"/>
      <point x="648.0" y="317" type="line"/>
      <point x="588.0" y="474" type="line" smooth="yes"/>
      <point x="579.0" y="499"/>
      <point x="563.0" y="514"/>
      <point x="544.0" y="529" type="curve" smooth="yes"/>
      <point x="273.0" y="735" type="line" smooth="yes"/>
      <point x="266.0" y="740"/>
      <point x="257.0" y="740"/>
      <point x="250.0" y="733" type="curve" smooth="yes"/>
      <point x="212.0" y="694" type="line" smooth="yes"/>
      <point x="205.0" y="687"/>
      <point x="205.0" y="676"/>
      <point x="213.0" y="669" type="curve" smooth="yes"/>
      <point x="416.0" y="449" type="line" smooth="yes"/>
      <point x="436.0" y="428"/>
      <point x="428.0" y="410"/>
      <point x="419.0" y="387" type="curve" smooth="yes"/>
      <point x="401.0" y="338" type="line" smooth="yes"/>
      <point x="392.0" y="314"/>
      <point x="376.0" y="299"/>
      <point x="338.0" y="282" type="curve" smooth="yes"/>
      <point x="216.0" y="228" type="line" smooth="yes"/>
      <point x="204.0" y="222"/>
      <point x="198.0" y="213"/>
      <point x="200.0" y="205" type="curve" smooth="yes"/>
      <point x="211.0" y="158" type="line" smooth="yes"/>
      <point x="213.0" y="149"/>
      <point x="222.0" y="142"/>
    </contour>
  </outline>
</glyph>
<glyph name="indexupleft.salt_outline" format="1">
  <advance width="1000"/>
  <outline>
    <contour>
      <point x="537.0" y="-13" type="curve" smooth="yes"/>
      <point x="796.0" y="247" type="line" smooth="yes"/>
      <point x="816.0" y="267"/>
      <point x="814.0" y="284"/>
      <point x="796.0" y="302" type="curve" smooth="yes"/>
      <point x="744.0" y="355" type="line" smooth="yes"/>
      <point x="726.0" y="373"/>
      <point x="707.0" y="373"/>
      <point x="689.0" y="356" type="curve" smooth="yes"/>
      <point x="659.0" y="326" type="line"/>
      <point x="603.0" y="473" type="line" smooth="yes"/>
      <point x="590.0" y="504"/>
      <point x="571.0" y="523"/>
      <point x="549.0" y="540" type="curve" smooth="yes"/>
      <point x="284.0" y="739" type="line" smooth="yes"/>
      <point x="266.0" y="753"/>
      <point x="251.0" y="746"/>
      <point x="239.0" y="733" type="curve" smooth="yes"/>
      <point x="210.0" y="705" type="line" smooth="yes"/>
      <point x="199.0" y="694"/>
      <point x="197.0" y="676"/>
      <point x="208.0" y="663" type="curve" smooth="yes"/>
      <point x="361.0" y="496" type="line"/>
      <point x="289.0" y="424" type="line" smooth="yes"/>
      <point x="266.0" y="402"/>
      <point x="253.0" y="378"/>
      <point x="266.0" y="342" type="curve" smooth="yes"/>
      <point x="290.0" y="271" type="line"/>
      <point x="220.0" y="239" type="line" smooth="yes"/>
      <point x="200.0" y="230"/>
      <point x="186.0" y="217"/>
      <point x="190.0" y="198" type="curve" smooth="yes"/>
      <point x="201.0" y="154" type="line" smooth="yes"/>
      <point x="205.0" y="136"/>
      <point x="218.0" y="127"/>
      <point x="239.0" y="130" type="curve" smooth="yes"/>
      <point x="330.0" y="145" type="line" smooth="yes"/>
      <point x="359.0" y="149"/>
      <point x="386.0" y="155"/>
      <point x="414.0" y="153" type="curve" smooth="yes"/>
      <point x="482.0" y="148" type="line"/>
      <point x="428.0" y="93" type="line" smooth="yes"/>
      <point x="412.0" y="79"/>
      <point x="410.0" y="58"/>
      <point x="428.0" y="40" type="curve" smooth="yes"/>
      <point x="481.0" y="-13" type="line" smooth="yes"/>
      <point x="499.0" y="-31"/>
      <point x="518.0" y="-31"/>
    </contour>
    <contour>
      <point x="339.0" y="294" type="curve" smooth="yes"/>
      <point x="310.0" y="280" type="line"/>
      <point x="286.0" y="350" type="line" smooth="yes"/>
      <point x="277.0" y="373"/>
      <point x="286.0" y="392"/>
      <point x="302.0" y="407" type="curve" smooth="yes"/>
      <point x="375.0" y="481" type="line"/>
      <point x="409.0" y="444" type="line" smooth="yes"/>
      <point x="422.0" y="428"/>
      <point x="424.0" y="413"/>
      <point x="416.0" y="395" type="curve" smooth="yes"/>
      <point x="396.0" y="349" type="line"/>
      <point x="389.0" y="348"/>
      <point x="380.0" y="354"/>
      <point x="370.0" y="363" type="curve"/>
      <point x="367.0" y="360" type="line"/>
      <point x="378.0" y="347"/>
      <point x="383.0" y="334"/>
      <point x="382.0" y="322" type="curve"/>
      <point x="372.0" y="309"/>
      <point x="359.0" y="302"/>
    </contour>
    <contour>
      <point x="443.0" y="81" type="curve" smooth="yes"/>
      <point x="704.0" y="340" type="line" smooth="yes"/>
      <point x="712.0" y="348"/>
      <point x="720.0" y="348"/>
      <point x="729.0" y="340" type="curve"/>
      <point x="752.0" y="317" type="line"/>
      <point x="759.0" y="310"/>
      <point x="760.0" y="300"/>
      <point x="752.0" y="292" type="curve" smooth="yes"/>
      <point x="493.0" y="32" type="line" smooth="yes"/>
      <point x="484.0" y="24"/>
      <point x="474.0" y="24"/>
      <point x="466.0" y="31" type="curve" smooth="yes"/>
      <point x="442.0" y="56" type="line"/>
      <point x="435.0" y="63"/>
      <point x="436.0" y="72"/>
    </contour>
    <contour>
      <point x="236.0" y="151" type="line" smooth="yes"/>
      <point x="229.0" y="149"/>
      <point x="223.0" y="154"/>
      <point x="222.0" y="159" type="curve" smooth="yes"/>
      <point x="211.0" y="198" type="line" smooth="yes"/>
      <point x="209.0" y="208"/>
      <point x="214.0" y="215"/>
      <point x="228.0" y="220" type="curve" smooth="yes"/>
      <point x="348.0" y="275" type="line" smooth="yes"/>
      <point x="379.0" y="289"/>
      <point x="397.0" y="301"/>
      <point x="411.0" y="331" type="curve" smooth="yes"/>
      <point x="436.0" y="387" type="line" smooth="yes"/>
      <point x="446.0" y="410"/>
      <point x="445.0" y="436"/>
      <point x="425.0" y="457" type="curve" smooth="yes"/>
      <point x="230.0" y="669" type="line" smooth="yes"/>
      <point x="222.0" y="676"/>
      <point x="222.0" y="687"/>
      <point x="229.0" y="694" type="curve" smooth="yes"/>
      <point x="252.0" y="717" type="line" smooth="yes"/>
      <point x="260.0" y="724"/>
      <point x="268.0" y="725"/>
      <point x="274.0" y="720" type="curve" smooth="yes"/>
      <point x="539.0" y="522" type="line" smooth="yes"/>
      <point x="558.0" y="507"/>
      <point x="572.0" y="491"/>
      <point x="583.0" y="467" type="curve" smooth="yes"/>
      <point x="643.0" y="310" type="line"/>
      <point x="502.0" y="168" type="line"/>
      <point x="418.0" y="174" type="line" smooth="yes"/>
      <point x="388.0" y="177"/>
      <point x="359.0" y="171"/>
      <point x="327.0" y="166" type="curve" smooth="yes"/>
    </contour>
  </outline>
</glyph>
<glyph name="indexupright.salt_outline" format="1">
  <advance width="1000"/>
  <outline>
    <contour>
      <point x="764.0" y="151" type="curve" smooth="yes"/>
      <point x="673.0" y="166" type="line" smooth="yes"/>
      <point x="641.0" y="171"/>
      <point x="612.0" y="177"/>
      <point x="582.0" y="174" type="curve" smooth="yes"/>
      <point x="498.0" y="168" type="line"/>
      <point x="357.0" y="310" type="line"/>
      <point x="417.0" y="467" type="line" smooth="yes"/>
      <point x="428.0" y="491"/>
      <point x="442.0" y="507"/>
      <point x="461.0" y="522" type="curve" smooth="yes"/>
      <point x="726.0" y="720" type="line" smooth="yes"/>
      <point x="732.0" y="725"/>
      <point x="740.0" y="724"/>
      <point x="748.0" y="717" type="curve" smooth="yes"/>
      <point x="771.0" y="694" type="line" smooth="yes"/>
      <point x="778.0" y="687"/>
      <point x="778.0" y="676"/>
      <point x="770.0" y="669" type="curve" smooth="yes"/>
      <point x="575.0" y="457" type="line" smooth="yes"/>
      <point x="555.0" y="436"/>
      <point x="554.0" y="410"/>
      <point x="564.0" y="387" type="curve" smooth="yes"/>
      <point x="589.0" y="331" type="line" smooth="yes"/>
      <point x="603.0" y="301"/>
      <point x="621.0" y="289"/>
      <point x="652.0" y="275" type="curve" smooth="yes"/>
      <point x="772.0" y="220" type="line" smooth="yes"/>
      <point x="786.0" y="215"/>
      <point x="791.0" y="208"/>
      <point x="789.0" y="198" type="curve" smooth="yes"/>
      <point x="778.0" y="159" type="line" smooth="yes"/>
      <point x="777.0" y="154"/>
      <point x="771.0" y="149"/>
    </contour>
    <contour>
      <point x="661.0" y="294" type="line" smooth="yes"/>
      <point x="641.0" y="302"/>
      <point x="628.0" y="309"/>
      <point x="618.0" y="322" type="curve"/>
      <point x="617.0" y="334"/>
      <point x="622.0" y="347"/>
      <point x="633.0" y="360" type="curve"/>
      <point x="630.0" y="363" type="line"/>
      <point x="620.0" y="354"/>
      <point x="611.0" y="348"/>
      <point x="604.0" y="349" type="curve"/>
      <point x="584.0" y="395" type="line" smooth="yes"/>
      <point x="576.0" y="413"/>
      <point x="578.0" y="428"/>
      <point x="591.0" y="444" type="curve" smooth="yes"/>
      <point x="625.0" y="481" type="line"/>
      <point x="698.0" y="407" type="line" smooth="yes"/>
      <point x="714.0" y="392"/>
      <point x="723.0" y="373"/>
      <point x="714.0" y="350" type="curve" smooth="yes"/>
      <point x="690.0" y="280" type="line"/>
    </contour>
    <contour>
      <point x="558.0" y="56" type="curve"/>
      <point x="534.0" y="31" type="line" smooth="yes"/>
      <point x="526.0" y="24"/>
      <point x="516.0" y="24"/>
      <point x="507.0" y="32" type="curve" smooth="yes"/>
      <point x="248.0" y="292" type="line" smooth="yes"/>
      <point x="240.0" y="300"/>
      <point x="241.0" y="310"/>
      <point x="248.0" y="317" type="curve"/>
      <point x="271.0" y="340" type="line"/>
      <point x="280.0" y="348"/>
      <point x="288.0" y="348"/>
      <point x="296.0" y="340" type="curve" smooth="yes"/>
      <point x="557.0" y="81" type="line" smooth="yes"/>
      <point x="564.0" y="72"/>
      <point x="565.0" y="63"/>
    </contour>
    <contour>
      <point x="519.0" y="-13" type="curve" smooth="yes"/>
      <point x="572.0" y="40" type="line" smooth="yes"/>
      <point x="590.0" y="58"/>
      <point x="588.0" y="79"/>
      <point x="572.0" y="93" type="curve" smooth="yes"/>
      <point x="518.0" y="148" type="line"/>
      <point x="586.0" y="153" type="line" smooth="yes"/>
      <point x="614.0" y="155"/>
      <point x="641.0" y="149"/>
      <point x="670.0" y="145" type="curve" smooth="yes"/>
      <point x="761.0" y="130" type="line" smooth="yes"/>
      <point x="782.0" y="127"/>
      <point x="795.0" y="136"/>
      <point x="799.0" y="154" type="curve" smooth="yes"/>
      <point x="810.0" y="198" type="line" smooth="yes"/>
      <point x="814.0" y="217"/>
      <point x="800.0" y="230"/>
      <point x="780.0" y="239" type="curve" smooth="yes"/>
      <point x="710.0" y="271" type="line"/>
      <point x="734.0" y="342" type="line" smooth="yes"/>
      <point x="747.0" y="378"/>
      <point x="734.0" y="402"/>
      <point x="711.0" y="424" type="curve" smooth="yes"/>
      <point x="639.0" y="496" type="line"/>
      <point x="792.0" y="663" type="line" smooth="yes"/>
      <point x="803.0" y="676"/>
      <point x="801.0" y="694"/>
      <point x="790.0" y="705" type="curve" smooth="yes"/>
      <point x="761.0" y="733" type="line" smooth="yes"/>
      <point x="749.0" y="746"/>
      <point x="734.0" y="753"/>
      <point x="716.0" y="739" type="curve" smooth="yes"/>
      <point x="451.0" y="540" type="line" smooth="yes"/>
      <point x="429.0" y="523"/>
      <point x="410.0" y="504"/>
      <point x="397.0" y="473" type="curve" smooth="yes"/>
      <point x="341.0" y="326" type="line"/>
      <point x="311.0" y="356" type="line" smooth="yes"/>
      <point x="293.0" y="373"/>
      <point x="274.0" y="373"/>
      <point x="256.0" y="355" type="curve" smooth="yes"/>
      <point x="204.0" y="302" type="line" smooth="yes"/>
      <point x="186.0" y="284"/>
      <point x="184.0" y="267"/>
      <point x="204.0" y="247" type="curve" smooth="yes"/>
      <point x="463.0" y="-13" type="line" smooth="yes"/>
      <point x="482.0" y="-31"/>
      <point x="501.0" y="-31"/>
    </contour>
  </outline>
</glyph>
<glyph name="perthousand.v" format="1">
  <advance width="1000"/>
  <outline>
    <contour>
      <point x="751.0" y="-5" type="curve" smooth="yes"/>
      <point x="870.0" y="-5"/>
      <point x="898.0" y="43"/>
      <point x="898.0" y="114" type="curve"/>
      <point x="898.0" y="254" type="line" smooth="yes"/>
      <point x="898.0" y="325"/>
      <point x="870.0" y="373"/>
      <point x="751.0" y="373" type="curve" smooth="yes"/>
      <point x="690.0" y="373"/>
      <point x="653.0" y="360"/>
      <point x="630.0" y="339" type="curve"/>
      <point x="610.0" y="360"/>
      <point x="576.0" y="373"/>
      <point x="519.0" y="373" type="curve" smooth="yes"/>
      <point x="509.0" y="373"/>
      <point x="500.0" y="373"/>
      <point x="492.0" y="372" type="curve"/>
      <point x="700.0" y="684" type="line" smooth="yes"/>
      <point x="714.0" y="705"/>
      <point x="704.0" y="720"/>
      <point x="679.0" y="720" type="curve" smooth="yes"/>
      <point x="594.0" y="720" type="line" smooth="yes"/>
      <point x="569.0" y="720"/>
      <point x="557.0" y="705"/>
      <point x="543.0" y="684" type="curve" smooth="yes"/>
      <point x="439.0" y="528" type="line"/>
      <point x="439.0" y="606" type="line" smooth="yes"/>
      <point x="439.0" y="677"/>
      <point x="407.0" y="725"/>
      <point x="272.0" y="725" type="curve" smooth="yes"/>
      <point x="137.0" y="725"/>
      <point x="103.0" y="677"/>
      <point x="103.0" y="606" type="curve" smooth="yes"/>
      <point x="103.0" y="466" type="line" smooth="yes"/>
      <point x="103.0" y="395"/>
      <point x="137.0" y="347"/>
      <point x="272.0" y="347" type="curve" smooth="yes"/>
      <point x="290.0" y="347"/>
      <point x="306.0" y="348"/>
      <point x="320.0" y="349" type="curve"/>
      <point x="111.0" y="36" type="line" smooth="yes"/>
      <point x="97.0" y="15"/>
      <point x="107.0" y="0"/>
      <point x="132.0" y="0" type="curve" smooth="yes"/>
      <point x="217.0" y="0" type="line" smooth="yes"/>
      <point x="242.0" y="0"/>
      <point x="254.0" y="15"/>
      <point x="268.0" y="36" type="curve" smooth="yes"/>
      <point x="370.0" y="189" type="line"/>
      <point x="370.0" y="114" type="line" smooth="yes"/>
      <point x="370.0" y="43"/>
      <point x="400.0" y="-5"/>
      <point x="519.0" y="-5" type="curve" smooth="yes"/>
      <point x="579.0" y="-5"/>
      <point x="613.0" y="7"/>
      <point x="633.0" y="27" type="curve"/>
      <point x="655.0" y="7"/>
      <point x="692.0" y="-5"/>
    </contour>
    <contour>
      <point x="248.0" y="497" type="curve"/>
      <point x="248.0" y="575" type="line" smooth="yes"/>
      <point x="248.0" y="583"/>
      <point x="251.0" y="592"/>
      <point x="272.0" y="592" type="curve" smooth="yes"/>
      <point x="292.0" y="592"/>
      <point x="295.0" y="583"/>
      <point x="295.0" y="575" type="curve" smooth="yes"/>
      <point x="295.0" y="497" type="line" smooth="yes"/>
      <point x="295.0" y="487"/>
      <point x="292.0" y="479"/>
      <point x="272.0" y="479" type="curve" smooth="yes"/>
      <point x="252.0" y="479"/>
      <point x="248.0" y="487"/>
    </contour>
    <contour>
      <point x="707.0" y="145" type="curve"/>
      <point x="707.0" y="223" type="line" smooth="yes"/>
      <point x="707.0" y="231"/>
      <point x="710.0" y="240"/>
      <point x="731.0" y="240" type="curve" smooth="yes"/>
      <point x="751.0" y="240"/>
      <point x="754.0" y="231"/>
      <point x="754.0" y="223" type="curve" smooth="yes"/>
      <point x="754.0" y="145" type="line" smooth="yes"/>
      <point x="754.0" y="135"/>
      <point x="751.0" y="127"/>
      <point x="731.0" y="127" type="curve" smooth="yes"/>
      <point x="711.0" y="127"/>
      <point x="707.0" y="135"/>
    </contour>
    <contour>
      <point x="515.0" y="145" type="curve"/>
      <point x="515.0" y="223" type="line" smooth="yes"/>
      <point x="515.0" y="231"/>
      <point x="518.0" y="240"/>
      <point x="539.0" y="240" type="curve" smooth="yes"/>
      <point x="559.0" y="240"/>
      <point x="562.0" y="231"/>
      <point x="562.0" y="223" type="curve" smooth="yes"/>
      <point x="562.0" y="145" type="line" smooth="yes"/>
      <point x="562.0" y="135"/>
      <point x="559.0" y="127"/>
      <point x="539.0" y="127" type="curve" smooth="yes"/>
      <point x="519.0" y="127"/>
      <point x="515.0" y="135"/>
    </contour>
    <contour>
      <point x="372.0" y="584" type="curve" smooth="yes"/>
      <point x="372.0" y="487" type="line" smooth="yes"/>
      <point x="372.0" y="429"/>
      <point x="344.0" y="408"/>
      <point x="272.0" y="408" type="curve" smooth="yes"/>
      <point x="201.0" y="408"/>
      <point x="171.0" y="429"/>
      <point x="171.0" y="487" type="curve" smooth="yes"/>
      <point x="171.0" y="584" type="line" smooth="yes"/>
      <point x="171.0" y="642"/>
      <point x="201.0" y="664"/>
      <point x="272.0" y="664" type="curve" smooth="yes"/>
      <point x="344.0" y="664"/>
      <point x="372.0" y="642"/>
    </contour>
    <contour>
      <point x="272.0" y="418" type="curve" smooth="yes"/>
      <point x="334.0" y="418"/>
      <point x="362.0" y="435"/>
      <point x="362.0" y="487" type="curve" smooth="yes"/>
      <point x="362.0" y="584" type="line" smooth="yes"/>
      <point x="362.0" y="636"/>
      <point x="334.0" y="654"/>
      <point x="272.0" y="654" type="curve" smooth="yes"/>
      <point x="211.0" y="654"/>
      <point x="181.0" y="636"/>
      <point x="181.0" y="584" type="curve" smooth="yes"/>
      <point x="181.0" y="487" type="line" smooth="yes"/>
      <point x="181.0" y="435"/>
      <point x="211.0" y="418"/>
    </contour>
    <contour>
      <point x="231.0" y="90" type="line"/>
      <point x="219.0" y="90" type="line"/>
      <point x="580.0" y="630" type="line"/>
      <point x="592.0" y="630" type="line"/>
    </contour>
    <contour>
      <point x="731.0" y="56" type="curve" smooth="yes"/>
      <point x="678.0" y="56"/>
      <point x="646.0" y="69"/>
      <point x="634.0" y="101" type="curve"/>
      <point x="623.0" y="69"/>
      <point x="593.0" y="56"/>
      <point x="539.0" y="56" type="curve" smooth="yes"/>
      <point x="468.0" y="56"/>
      <point x="438.0" y="77"/>
      <point x="438.0" y="135" type="curve" smooth="yes"/>
      <point x="438.0" y="232" type="line" smooth="yes"/>
      <point x="438.0" y="290"/>
      <point x="468.0" y="312"/>
      <point x="539.0" y="312" type="curve" smooth="yes"/>
      <point x="593.0" y="312"/>
      <point x="623.0" y="299"/>
      <point x="634.0" y="266" type="curve"/>
      <point x="646.0" y="299"/>
      <point x="678.0" y="312"/>
      <point x="731.0" y="312" type="curve" smooth="yes"/>
      <point x="803.0" y="312"/>
      <point x="831.0" y="290"/>
      <point x="831.0" y="232" type="curve" smooth="yes"/>
      <point x="831.0" y="135" type="line" smooth="yes"/>
      <point x="831.0" y="77"/>
      <point x="803.0" y="56"/>
    </contour>
    <contour>
      <point x="731.0" y="66" type="curve" smooth="yes"/>
      <point x="793.0" y="66"/>
      <point x="821.0" y="83"/>
      <point x="821.0" y="135" type="curve" smooth="yes"/>
      <point x="821.0" y="232" type="line" smooth="yes"/>
      <point x="821.0" y="284"/>
      <point x="793.0" y="302"/>
      <point x="731.0" y="302" type="curve" smooth="yes"/>
      <point x="670.0" y="302"/>
      <point x="639.0" y="284"/>
      <point x="639.0" y="232" type="curve" smooth="yes"/>
      <point x="639.0" y="135" type="line" smooth="yes"/>
      <point x="639.0" y="83"/>
      <point x="670.0" y="66"/>
    </contour>
    <contour>
      <point x="539.0" y="66" type="curve" smooth="yes"/>
      <point x="601.0" y="66"/>
      <point x="629.0" y="83"/>
      <point x="629.0" y="135" type="curve" smooth="yes"/>
      <point x="629.0" y="232" type="line" smooth="yes"/>
      <point x="629.0" y="284"/>
      <point x="601.0" y="302"/>
      <point x="539.0" y="302" type="curve" smooth="yes"/>
      <point x="478.0" y="302"/>
      <point x="448.0" y="284"/>
      <point x="448.0" y="232" type="curve" smooth="yes"/>
      <point x="448.0" y="135" type="line" smooth="yes"/>
      <point x="448.0" y="83"/>
      <point x="478.0" y="66"/>
    </contour>
  </outline>
</glyph>
<glyph name="quoteleft.salt" format="1">
  <advance width="307.119931271"/>
  <outline>
    <contour>
      <point x="161.0" y="720" type="line" smooth="yes"/>
      <point x="96.0" y="720"/>
      <point x="55.0" y="685"/>
      <point x="55.0" y="611" type="curve" smooth="yes"/>
      <point x="55.0" y="476" type="line" smooth="yes"/>
      <point x="55.0" y="458"/>
      <point x="62.0" y="450"/>
      <point x="80.0" y="450" type="curve" smooth="yes"/>
      <point x="226.0" y="450" type="line" smooth="yes"/>
      <point x="244.0" y="450"/>
      <point x="252.0" y="458"/>
      <point x="252.0" y="476" type="curve"/>
      <point x="252.0" y="583" type="line"/>
      <point x="252.0" y="601"/>
      <point x="244.0" y="608"/>
      <point x="226.0" y="608" type="curve" smooth="yes"/>
      <point x="147.0" y="608" type="line"/>
      <point x="147.0" y="619" type="line" smooth="yes"/>
      <point x="147.0" y="632"/>
      <point x="154.0" y="639"/>
      <point x="167.0" y="639" type="curve" smooth="yes"/>
      <point x="216.0" y="639" type="line" smooth="yes"/>
      <point x="234.0" y="639"/>
      <point x="242.0" y="647"/>
      <point x="242.0" y="665" type="curve"/>
      <point x="242.0" y="694" type="line"/>
      <point x="242.0" y="713"/>
      <point x="234.0" y="720"/>
      <point x="216.0" y="720" type="curve" smooth="yes"/>
    </contour>
    <contour>
      <point x="202.0" y="534" type="line"/>
      <point x="202.0" y="524" type="line"/>
      <point x="104.0" y="524" type="line"/>
      <point x="104.0" y="610" type="line" smooth="yes"/>
      <point x="104.0" y="649"/>
      <point x="121.0" y="684"/>
      <point x="160.0" y="684" type="curve" smooth="yes"/>
      <point x="201.0" y="684" type="line"/>
      <point x="201.0" y="674" type="line"/>
      <point x="160.0" y="674" type="line" smooth="yes"/>
      <point x="127.0" y="674"/>
      <point x="114.0" y="643"/>
      <point x="114.0" y="610" type="curve" smooth="yes"/>
      <point x="114.0" y="534" type="line"/>
    </contour>
  </outline>
</glyph>
